<svg xmlns="http://www.w3.org/2000/svg" width="50" height="80" viewBox="0 0 50 80">
  <defs>
    <style>
      .cls-1 {
        fill: #fff;
      }
    </style>
  </defs>
  <g id="_0" data-name="0" transform="translate(79 178)">
    <rect id="사각형_9" data-name="사각형 9" width="50" height="80" transform="translate(-79 -178)"/>
    <path id="패스_9" data-name="패스 9" class="cls-1" d="M26.862-9.842H24.79a12.636,12.636,0,0,0-1.924.148Q18.5-9.25,17.094-7.622a22.9,22.9,0,0,0-2.96,4.81L12.876-.074H11.1Q10.064-.3,9.694-.37A10.863,10.863,0,0,1,3.811-3.7,20.048,20.048,0,0,1,.74-7.881a7.059,7.059,0,0,1-.814-3.071V-38.406A9.82,9.82,0,0,1,2.59-44.844a15.812,15.812,0,0,1,5.55-4.218,28.071,28.071,0,0,0,6.734-4.144,13.041,13.041,0,0,0,1.628-1.85,2.668,2.668,0,0,1,1.332.444,12.3,12.3,0,0,1,5.328,4.292,36.713,36.713,0,0,1,3.256,5.846l.444,1.184Zm-7.326-.3q.222-.074.444-2.516l.074-6.438-.074-8.88-.222-8.658-.222-5.106a3.34,3.34,0,0,0-.555-2.146,12.945,12.945,0,0,0-2.7-2,19.047,19.047,0,0,0-3.33-1.628,9.059,9.059,0,0,0-2.96-.74,2.111,2.111,0,0,0-1.554.518q-.518.518-.518,3.108,0,.814-.074,2.886t-.074,3.4l.148,11.1.3,9.324.148,2.664A3.073,3.073,0,0,0,9.694-12.95l2.96,1.776a10.537,10.537,0,0,0,2.516,1.147,8.842,8.842,0,0,0,2.59.407A3.244,3.244,0,0,0,19.536-10.138Z" transform="translate(-68 -112)"/>
  </g>
</svg>
