<svg xmlns="http://www.w3.org/2000/svg" width="100" height="100" viewBox="0 0 100 100">
  <g id="_0change" data-name="0change" transform="translate(-721 -184)">
    <circle id="타원_2" data-name="타원 2" cx="50" cy="50" r="50" transform="translate(721 184)" fill="#902727"/>
    <rect id="사각형_16" data-name="사각형 16" width="30" height="50" rx="6" transform="translate(741 209)"/>
    <path id="패스_23" data-name="패스 23" d="M3.816-25.236C2.808-25.776,2.34-26.28,2.2-26.28L-2.2-25.236c-.216.072-.576.468-1.62,1.044a13.914,13.914,0,0,1-1.548.612V-1.656a13.913,13.913,0,0,1,1.548.612C-2.808-.5-2.34,0-2.2,0L2.2-1.044c.144-.036.648-.5,1.62-1.044,1.152-.612,1.548-.5,1.548-.648V-24.624A13.913,13.913,0,0,1,3.816-25.236ZM2.2-2.52-2.2-1.44V-23.76L2.2-24.84Z" transform="translate(756 247)" fill="#fff"/>
    <path id="합치기_1" data-name="합치기 1" d="M-3955.633,1276.892h3.752l-3.752,3.181Zm-4.966,0H-3980l9.7-.355-9.7-.355h19.4l4.966-.182v-3l3.752,3.182h-3.752v.892Z" transform="translate(4754.803 -1046.509)" stroke="#000" stroke-width="1"/>
    <path id="합치기_2" data-name="합치기 2" d="M24.368,3.181H28.12L24.368,0Zm-4.966,0H0l9.7.355L0,3.891H19.4l4.966.182v3L28.12,3.891H24.368V3Z" transform="translate(802.922 243.564) rotate(180)" stroke="#000" stroke-width="1"/>
  </g>
</svg>
