<svg xmlns="http://www.w3.org/2000/svg" width="50" height="80" viewBox="0 0 50 80">
  <defs>
    <style>
      .cls-1 {
        fill: #fff;
      }
    </style>
  </defs>
  <g id="_1" data-name="1" transform="translate(19 178)">
    <rect id="사각형_1" data-name="사각형 1" class="cls-1" width="50" height="80" transform="translate(-19 -178)"/>
    <path id="패스_8" data-name="패스 8" d="M17.168-6.808,15.762-5.624q-.592.518-1.184,1.11a12.567,12.567,0,0,0-.888.962l-2,2.812L11.1.074,6.808-4.958A9.2,9.2,0,0,0,4.144-7.03l-.962-.444L4.218-8.51a3.7,3.7,0,0,0,1.11-2.368V-47.286q-.222-2.072-2.812-2.072a12.16,12.16,0,0,0-2.442.37L.74-50.209a2.765,2.765,0,0,1,.444-.629,5.325,5.325,0,0,1,2.368-2.294l1.554-.3L6.29-53.5a5.551,5.551,0,0,1,2.516.592L11.1-51.8l3.256-3.182v13.69l-.074,16.5v14.8a3.131,3.131,0,0,0,1.406,2.442Z" transform="translate(-3 -111)"/>
  </g>
</svg>
