<svg xmlns="http://www.w3.org/2000/svg" width="155" height="220" viewBox="0 0 155 220">
  <g id="_10card" data-name="10card" transform="translate(-725 -315)">
    <rect id="사각형_1" data-name="사각형 1" width="155" height="220" rx="8" transform="translate(725 315)" fill="#fff"/>
    <g id="그룹_1" data-name="그룹 1" transform="translate(88 33)">
      <path id="다각형_1" data-name="다각형 1" d="M22.5,0,30,13.158,22.5,26.316H7.5L0,13.158,7.5,0Z" transform="translate(696.316 311.078) rotate(90)" fill="#fff"/>
      <path id="패스_2" data-name="패스 2" d="M599.513,433.776l12.908,6.33V455.56l-12.908-7.235Z" transform="translate(71 -114.922)" fill="#c2b9af"/>
      <path id="패스_3" data-name="패스 3" d="M612.105,455.793l12.446-7.565V433.836l-12.446,6.5Z" transform="translate(71.316 -115.155)" fill="#69625a"/>
      <path id="패스_1" data-name="패스 1" d="M613.166,432.069c-.242-.021-9.436,6.225-9.436,6.225v11.633l9.436,5,9.6-5v-7.844s-9.327,2.816-9.334,5.557,0-4.456,0-4.456l12.882-6.759v15.838l-13.15,6.816-13.85-6.816V436.424l10.461-6.449v-3.406a4.377,4.377,0,0,1,2.253-3.373c2.061-.995-1.463,4.6,1.135,5.894s10.318,5.832,10.318,5.832l-2.829,1.9S613.408,432.089,613.166,432.069Z" transform="translate(70 -118)"/>
    </g>
    <path id="패스_93" data-name="패스 93" d="M4.707-15a2.716,2.716,0,0,1,1.6,1.289q.313.352.313,4.063v.078q0,1.182-.078,6.992,0,.361.7.7l.078.039q0-.234.078-.234a.425.425,0,0,0,.078.2A4.968,4.968,0,0,1,8.34-2.5a.3.3,0,0,1,.117-.039.4.4,0,0,1,.313.391A24.355,24.355,0,0,1,6.074,0H5.957A12.572,12.572,0,0,1,3.34-1.68a11.433,11.433,0,0,1,.7-.937l.078-9.219q0-.547-.82-1.094H3.223a3.131,3.131,0,0,1-.781.391H2.4q-.146-.049-.273-.352A15.959,15.959,0,0,1,4.707-15Zm11.143-.039a7.626,7.626,0,0,1,4.023,2.93,7.078,7.078,0,0,1,1.172,3.828v.664q0,3.32-3.437,6.6A5.961,5.961,0,0,1,15.967,0h-.352a7.757,7.757,0,0,1-3.359-2.344,6.68,6.68,0,0,1-1.6-4.57v-.234q0-3.877,4.258-7.266A10.725,10.725,0,0,0,15.85-15.039Zm-1.836,2.3a7.373,7.373,0,0,0-1.445,4.18v.469q0,3.086,3.4,5.273a5,5,0,0,0,1.719.625,5.158,5.158,0,0,0,1.25-2.461,5.073,5.073,0,0,0,.2-1.6q0-4.678-4.648-6.406Q14.053-12.734,14.014-12.734Z" transform="translate(731 339)"/>
    <path id="패스_92" data-name="패스 92" d="M4.707-15a2.716,2.716,0,0,1,1.6,1.289q.313.352.313,4.063v.078q0,1.182-.078,6.992,0,.361.7.7l.078.039q0-.234.078-.234a.425.425,0,0,0,.078.2A4.968,4.968,0,0,1,8.34-2.5a.3.3,0,0,1,.117-.039.4.4,0,0,1,.313.391A24.355,24.355,0,0,1,6.074,0H5.957A12.572,12.572,0,0,1,3.34-1.68a11.433,11.433,0,0,1,.7-.937l.078-9.219q0-.547-.82-1.094H3.223a3.131,3.131,0,0,1-.781.391H2.4q-.146-.049-.273-.352A15.959,15.959,0,0,1,4.707-15Zm11.143-.039a7.626,7.626,0,0,1,4.023,2.93,7.078,7.078,0,0,1,1.172,3.828v.664q0,3.32-3.437,6.6A5.961,5.961,0,0,1,15.967,0h-.352a7.757,7.757,0,0,1-3.359-2.344,6.68,6.68,0,0,1-1.6-4.57v-.234q0-3.877,4.258-7.266A10.725,10.725,0,0,0,15.85-15.039Zm-1.836,2.3a7.373,7.373,0,0,0-1.445,4.18v.469q0,3.086,3.4,5.273a5,5,0,0,0,1.719.625,5.158,5.158,0,0,0,1.25-2.461,5.073,5.073,0,0,0,.2-1.6q0-4.678-4.648-6.406Q14.053-12.734,14.014-12.734Z" transform="translate(875 509) rotate(180)"/>
    <g id="그룹_29" data-name="그룹 29" transform="translate(88 79)">
      <path id="다각형_1-2" data-name="다각형 1" d="M22.5,0,30,13.158,22.5,26.316H7.5L0,13.158,7.5,0Z" transform="translate(696.316 311.078) rotate(90)" fill="#fff"/>
      <path id="패스_2-2" data-name="패스 2" d="M599.513,433.776l12.908,6.33V455.56l-12.908-7.235Z" transform="translate(71 -114.922)" fill="#c2b9af"/>
      <path id="패스_3-2" data-name="패스 3" d="M612.105,455.793l12.446-7.565V433.836l-12.446,6.5Z" transform="translate(71.316 -115.155)" fill="#69625a"/>
      <path id="패스_1-2" data-name="패스 1" d="M613.166,432.069c-.242-.021-9.436,6.225-9.436,6.225v11.633l9.436,5,9.6-5v-7.844s-9.327,2.816-9.334,5.557,0-4.456,0-4.456l12.882-6.759v15.838l-13.15,6.816-13.85-6.816V436.424l10.461-6.449v-3.406a4.377,4.377,0,0,1,2.253-3.373c2.061-.995-1.463,4.6,1.135,5.894s10.318,5.832,10.318,5.832l-2.829,1.9S613.408,432.089,613.166,432.069Z" transform="translate(70 -118)"/>
    </g>
    <g id="그룹_30" data-name="그룹 30" transform="translate(822.316 476.078)">
      <path id="다각형_1-3" data-name="다각형 1" d="M22.5,0,30,13.158,22.5,26.316H7.5L0,13.158,7.5,0Z" transform="translate(0 30) rotate(-90)" fill="#fff"/>
      <path id="패스_2-3" data-name="패스 2" d="M612.421,455.56l-12.908-6.33V433.776l12.908,7.235Z" transform="translate(-586.618 -433.337)" fill="#c2b9af"/>
      <path id="패스_3-3" data-name="패스 3" d="M624.551,433.836,612.105,441.4v14.392l12.446-6.5Z" transform="translate(-611.656 -433.396)" fill="#69625a"/>
      <path id="패스_1-3" data-name="패스 1" d="M612.466,450.087c.242.021,9.436-6.225,9.436-6.225V432.23l-9.436-5-9.6,5v7.844s9.327-2.816,9.334-5.557,0,4.456,0,4.456l-12.882,6.759V429.894l13.15-6.816,13.85,6.816v15.838l-10.461,6.449v3.406a4.377,4.377,0,0,1-2.253,3.373c-2.061.995,1.463-4.6-1.135-5.894s-10.318-5.832-10.318-5.832l2.829-1.9S612.224,450.067,612.466,450.087Z" transform="translate(-599.316 -423.078)"/>
    </g>
    <g id="그룹_31" data-name="그룹 31" transform="translate(822.316 430.078)">
      <path id="다각형_1-4" data-name="다각형 1" d="M22.5,0,30,13.158,22.5,26.316H7.5L0,13.158,7.5,0Z" transform="translate(0 30) rotate(-90)" fill="#fff"/>
      <path id="패스_2-4" data-name="패스 2" d="M612.421,455.56l-12.908-6.33V433.776l12.908,7.235Z" transform="translate(-586.618 -433.337)" fill="#c2b9af"/>
      <path id="패스_3-4" data-name="패스 3" d="M624.551,433.836,612.105,441.4v14.392l12.446-6.5Z" transform="translate(-611.656 -433.396)" fill="#69625a"/>
      <path id="패스_1-4" data-name="패스 1" d="M612.466,450.087c.242.021,9.436-6.225,9.436-6.225V432.23l-9.436-5-9.6,5v7.844s9.327-2.816,9.334-5.557,0,4.456,0,4.456l-12.882,6.759V429.894l13.15-6.816,13.85,6.816v15.838l-10.461,6.449v3.406a4.377,4.377,0,0,1-2.253,3.373c-2.061.995,1.463-4.6-1.135-5.894s-10.318-5.832-10.318-5.832l2.829-1.9S612.224,450.067,612.466,450.087Z" transform="translate(-599.316 -423.078)"/>
    </g>
    <g id="그룹_32" data-name="그룹 32" transform="translate(153 33)">
      <path id="다각형_1-5" data-name="다각형 1" d="M22.5,0,30,13.158,22.5,26.316H7.5L0,13.158,7.5,0Z" transform="translate(696.316 311.078) rotate(90)" fill="#fff"/>
      <path id="패스_2-5" data-name="패스 2" d="M599.513,433.776l12.908,6.33V455.56l-12.908-7.235Z" transform="translate(71 -114.922)" fill="#c2b9af"/>
      <path id="패스_3-5" data-name="패스 3" d="M612.105,455.793l12.446-7.565V433.836l-12.446,6.5Z" transform="translate(71.316 -115.155)" fill="#69625a"/>
      <path id="패스_1-5" data-name="패스 1" d="M613.166,432.069c-.242-.021-9.436,6.225-9.436,6.225v11.633l9.436,5,9.6-5v-7.844s-9.327,2.816-9.334,5.557,0-4.456,0-4.456l12.882-6.759v15.838l-13.15,6.816-13.85-6.816V436.424l10.461-6.449v-3.406a4.377,4.377,0,0,1,2.253-3.373c2.061-.995-1.463,4.6,1.135,5.894s10.318,5.832,10.318,5.832l-2.829,1.9S613.408,432.089,613.166,432.069Z" transform="translate(70 -118)"/>
    </g>
    <g id="그룹_33" data-name="그룹 33" transform="translate(153 79)">
      <path id="다각형_1-6" data-name="다각형 1" d="M22.5,0,30,13.158,22.5,26.316H7.5L0,13.158,7.5,0Z" transform="translate(696.316 311.078) rotate(90)" fill="#fff"/>
      <path id="패스_2-6" data-name="패스 2" d="M599.513,433.776l12.908,6.33V455.56l-12.908-7.235Z" transform="translate(71 -114.922)" fill="#c2b9af"/>
      <path id="패스_3-6" data-name="패스 3" d="M612.105,455.793l12.446-7.565V433.836l-12.446,6.5Z" transform="translate(71.316 -115.155)" fill="#69625a"/>
      <path id="패스_1-6" data-name="패스 1" d="M613.166,432.069c-.242-.021-9.436,6.225-9.436,6.225v11.633l9.436,5,9.6-5v-7.844s-9.327,2.816-9.334,5.557,0-4.456,0-4.456l12.882-6.759v15.838l-13.15,6.816-13.85-6.816V436.424l10.461-6.449v-3.406a4.377,4.377,0,0,1,2.253-3.373c2.061-.995-1.463,4.6,1.135,5.894s10.318,5.832,10.318,5.832l-2.829,1.9S613.408,432.089,613.166,432.069Z" transform="translate(70 -118)"/>
    </g>
    <g id="그룹_34" data-name="그룹 34" transform="translate(757.316 476.078)">
      <path id="다각형_1-7" data-name="다각형 1" d="M22.5,0,30,13.158,22.5,26.316H7.5L0,13.158,7.5,0Z" transform="translate(0 30) rotate(-90)" fill="#fff"/>
      <path id="패스_2-7" data-name="패스 2" d="M612.421,455.56l-12.908-6.33V433.776l12.908,7.235Z" transform="translate(-586.618 -433.337)" fill="#c2b9af"/>
      <path id="패스_3-7" data-name="패스 3" d="M624.551,433.836,612.105,441.4v14.392l12.446-6.5Z" transform="translate(-611.656 -433.396)" fill="#69625a"/>
      <path id="패스_1-7" data-name="패스 1" d="M612.466,450.087c.242.021,9.436-6.225,9.436-6.225V432.23l-9.436-5-9.6,5v7.844s9.327-2.816,9.334-5.557,0,4.456,0,4.456l-12.882,6.759V429.894l13.15-6.816,13.85,6.816v15.838l-10.461,6.449v3.406a4.377,4.377,0,0,1-2.253,3.373c-2.061.995,1.463-4.6-1.135-5.894s-10.318-5.832-10.318-5.832l2.829-1.9S612.224,450.067,612.466,450.087Z" transform="translate(-599.316 -423.078)"/>
    </g>
    <g id="그룹_35" data-name="그룹 35" transform="translate(757.316 430.078)">
      <path id="다각형_1-8" data-name="다각형 1" d="M22.5,0,30,13.158,22.5,26.316H7.5L0,13.158,7.5,0Z" transform="translate(0 30) rotate(-90)" fill="#fff"/>
      <path id="패스_2-8" data-name="패스 2" d="M612.421,455.56l-12.908-6.33V433.776l12.908,7.235Z" transform="translate(-586.618 -433.337)" fill="#c2b9af"/>
      <path id="패스_3-8" data-name="패스 3" d="M624.551,433.836,612.105,441.4v14.392l12.446-6.5Z" transform="translate(-611.656 -433.396)" fill="#69625a"/>
      <path id="패스_1-8" data-name="패스 1" d="M612.466,450.087c.242.021,9.436-6.225,9.436-6.225V432.23l-9.436-5-9.6,5v7.844s9.327-2.816,9.334-5.557,0,4.456,0,4.456l-12.882,6.759V429.894l13.15-6.816,13.85,6.816v15.838l-10.461,6.449v3.406a4.377,4.377,0,0,1-2.253,3.373c-2.061.995,1.463-4.6-1.135-5.894s-10.318-5.832-10.318-5.832l2.829-1.9S612.224,450.067,612.466,450.087Z" transform="translate(-599.316 -423.078)"/>
    </g>
    <g id="그룹_36" data-name="그룹 36" transform="translate(790.316 452.078)">
      <path id="다각형_1-9" data-name="다각형 1" d="M22.5,0,30,13.158,22.5,26.316H7.5L0,13.158,7.5,0Z" transform="translate(0 30) rotate(-90)" fill="#fff"/>
      <path id="패스_2-9" data-name="패스 2" d="M612.421,455.56l-12.908-6.33V433.776l12.908,7.235Z" transform="translate(-586.618 -433.337)" fill="#c2b9af"/>
      <path id="패스_3-9" data-name="패스 3" d="M624.551,433.836,612.105,441.4v14.392l12.446-6.5Z" transform="translate(-611.656 -433.396)" fill="#69625a"/>
      <path id="패스_1-9" data-name="패스 1" d="M612.466,450.087c.242.021,9.436-6.225,9.436-6.225V432.23l-9.436-5-9.6,5v7.844s9.327-2.816,9.334-5.557,0,4.456,0,4.456l-12.882,6.759V429.894l13.15-6.816,13.85,6.816v15.838l-10.461,6.449v3.406a4.377,4.377,0,0,1-2.253,3.373c-2.061.995,1.463-4.6-1.135-5.894s-10.318-5.832-10.318-5.832l2.829-1.9S612.224,450.067,612.466,450.087Z" transform="translate(-599.316 -423.078)"/>
    </g>
    <g id="그룹_37" data-name="그룹 37" transform="translate(790.316 361.078)">
      <path id="다각형_1-10" data-name="다각형 1" d="M22.5,0,30,13.158,22.5,26.316H7.5L0,13.158,7.5,0Z" transform="translate(27 6) rotate(90)" fill="#fff"/>
      <path id="패스_2-10" data-name="패스 2" d="M599.513,433.776l12.908,6.33V455.56l-12.908-7.235Z" transform="translate(-598.316 -420)" fill="#c2b9af"/>
      <path id="패스_3-10" data-name="패스 3" d="M612.105,455.793l12.446-7.565V433.836l-12.446,6.5Z" transform="translate(-598 -420.233)" fill="#69625a"/>
      <path id="패스_1-10" data-name="패스 1" d="M613.166,432.069c-.242-.021-9.436,6.225-9.436,6.225v11.633l9.436,5,9.6-5v-7.844s-9.327,2.816-9.334,5.557,0-4.456,0-4.456l12.882-6.759v15.838l-13.15,6.816-13.85-6.816V436.424l10.461-6.449v-3.406a4.377,4.377,0,0,1,2.253-3.373c2.061-.995-1.463,4.6,1.135,5.894s10.318,5.832,10.318,5.832l-2.829,1.9S613.408,432.089,613.166,432.069Z" transform="translate(-599.316 -423.078)"/>
    </g>
  </g>
</svg>
