<svg xmlns="http://www.w3.org/2000/svg" width="155" height="220" viewBox="0 0 155 220">
  <g id="_1bcard" data-name="1bcard" transform="translate(-725 -315)">
    <rect id="사각형_1" data-name="사각형 1" width="155" height="220" rx="8" transform="translate(725 315)"/>
    <g id="그룹_1" data-name="그룹 1" transform="translate(120 102)">
      <path id="다각형_1" data-name="다각형 1" d="M22.5,0,30,13.158,22.5,26.316H7.5L0,13.158,7.5,0Z" transform="translate(696.316 311.078) rotate(90)" fill="#110d03"/>
      <path id="패스_2" data-name="패스 2" d="M599.513,433.776l12.908,6.33V455.56l-12.908-7.235Z" transform="translate(71 -114.922)" fill="#69625a"/>
      <path id="패스_3" data-name="패스 3" d="M612.105,455.793l12.446-7.565V433.836l-12.446,6.5Z" transform="translate(71.316 -115.155)" fill="#9e978f"/>
      <path id="패스_1" data-name="패스 1" d="M613.166,432.069c-.242-.021-9.436,6.225-9.436,6.225v11.633l9.436,5,9.6-5v-7.844s-9.327,2.816-9.334,5.557,0-4.456,0-4.456l12.882-6.759v15.838l-13.15,6.816-13.85-6.816V436.424l10.461-6.449v-3.406a4.377,4.377,0,0,1,2.253-3.373c2.061-.995-1.463,4.6,1.135,5.894s10.318,5.832,10.318,5.832l-2.829,1.9S613.408,432.089,613.166,432.069Z" transform="translate(70 -118)" fill="#fff"/>
    </g>
    <path id="패스_50" data-name="패스 50" d="M5.648-18A3.259,3.259,0,0,1,7.57-16.453q.375.422.375,4.875v.094q0,1.418-.094,8.391,0,.434.844.844l.094.047q0-.281.094-.281a.511.511,0,0,0,.094.234A5.962,5.962,0,0,1,10.008-3a.36.36,0,0,1,.141-.047.476.476,0,0,1,.375.469A29.226,29.226,0,0,1,7.289,0H7.148A15.086,15.086,0,0,1,4.008-2.016a13.719,13.719,0,0,1,.844-1.125L4.945-14.2q0-.656-.984-1.312H3.867a3.758,3.758,0,0,1-.937.469H2.883q-.176-.059-.328-.422A19.151,19.151,0,0,1,5.648-18Z" transform="translate(733 344)" fill="#fff"/>
    <path id="패스_49" data-name="패스 49" d="M5.648-18A3.259,3.259,0,0,1,7.57-16.453q.375.422.375,4.875v.094q0,1.418-.094,8.391,0,.434.844.844l.094.047q0-.281.094-.281a.511.511,0,0,0,.094.234A5.962,5.962,0,0,1,10.008-3a.36.36,0,0,1,.141-.047.476.476,0,0,1,.375.469A29.226,29.226,0,0,1,7.289,0H7.148A15.086,15.086,0,0,1,4.008-2.016a13.719,13.719,0,0,1,.844-1.125L4.945-14.2q0-.656-.984-1.312H3.867a3.758,3.758,0,0,1-.937.469H2.883q-.176-.059-.328-.422A19.151,19.151,0,0,1,5.648-18Z" transform="translate(872 506) rotate(180)" fill="#fff"/>
  </g>
</svg>
