<svg xmlns="http://www.w3.org/2000/svg" width="50" height="80" viewBox="0 0 50 80">
  <defs>
    <style>
      .cls-1 {
        fill: #fff;
      }
    </style>
  </defs>
  <g id="_2" data-name="2" transform="translate(-41 178)">
    <rect id="사각형_2" data-name="사각형 2" width="50" height="80" transform="translate(41 -178)"/>
    <path id="패스_7" data-name="패스 7" class="cls-1" d="M29.526-40.552a19.181,19.181,0,0,1-3.774,11.84,29.255,29.255,0,0,1-8.288,6.882l-8.14,4.588A19.81,19.81,0,0,0,4.44-12.654a14.468,14.468,0,0,0-1.7,3.774h22.5a8.315,8.315,0,0,0,2.96-.592l1.036-.666-3.478,4.81a6.693,6.693,0,0,0-.925,1.295Q24.494-3.4,23.68-1.85L22.94.074H.3v-1.11l.3-6.734q0-3.922,4.81-8.732l4.81-4.218a46.5,46.5,0,0,0,6.66-6.512A17.769,17.769,0,0,0,20.646-38.11a15.064,15.064,0,0,0-.518-4.07,11.751,11.751,0,0,0-1.7-3.552,7.154,7.154,0,0,0-6.216-3.626q-2.59,0-3.7,3.182A20.574,20.574,0,0,0,7.7-39.812,62.732,62.732,0,0,0,8.214-31.6l.3,1.7a10.031,10.031,0,0,1-2.146-.185,9.87,9.87,0,0,1-1.924-.7Q.37-32.56.37-37.444l.074-1.11q0-5.55,5.92-9.028l4.884-2.886,5.18-3.478,1.628-1.036a9.374,9.374,0,0,1,3.034.592,12.076,12.076,0,0,1,5.476,3.774Q29.526-46.916,29.526-40.552Z" transform="translate(50 -113)"/>
  </g>
</svg>
