<svg xmlns="http://www.w3.org/2000/svg" width="155" height="220" viewBox="0 0 155 220">
  <g id="_2card" data-name="2card" transform="translate(-725 -315)">
    <rect id="사각형_1" data-name="사각형 1" width="155" height="220" rx="8" transform="translate(725 315)" fill="#fff"/>
    <g id="그룹_1" data-name="그룹 1" transform="translate(120 49)">
      <path id="다각형_1" data-name="다각형 1" d="M22.5,0,30,13.158,22.5,26.316H7.5L0,13.158,7.5,0Z" transform="translate(696.316 311.078) rotate(90)" fill="#fff"/>
      <path id="패스_2" data-name="패스 2" d="M599.513,433.776l12.908,6.33V455.56l-12.908-7.235Z" transform="translate(71 -114.922)" fill="#c2b9af"/>
      <path id="패스_3" data-name="패스 3" d="M612.105,455.793l12.446-7.565V433.836l-12.446,6.5Z" transform="translate(71.316 -115.155)" fill="#69625a"/>
      <path id="패스_1" data-name="패스 1" d="M613.166,432.069c-.242-.021-9.436,6.225-9.436,6.225v11.633l9.436,5,9.6-5v-7.844s-9.327,2.816-9.334,5.557,0-4.456,0-4.456l12.882-6.759v15.838l-13.15,6.816-13.85-6.816V436.424l10.461-6.449v-3.406a4.377,4.377,0,0,1,2.253-3.373c2.061-.995-1.463,4.6,1.135,5.894s10.318,5.832,10.318,5.832l-2.829,1.9S613.408,432.089,613.166,432.069Z" transform="translate(70 -118)"/>
    </g>
    <path id="패스_57" data-name="패스 57" d="M7.055-18q.551,0,6.188,3.7a2.574,2.574,0,0,1,.094.844v.563q0,4.1-6.375,7.547Q5.543-4.395,4.57-3.609a7.5,7.5,0,0,0-.891.891h.047a13.741,13.741,0,0,1,4.547-.75h.234a14.934,14.934,0,0,1,5.156.938v.047L11.414,0h-.047A13.6,13.6,0,0,1,8.977-.7,17.151,17.151,0,0,0,6.82-.937,19.155,19.155,0,0,0,1.664,0H1.523q-.07,0-.187-.187a8.1,8.1,0,0,1,2.2-3.891q0-.059,4.266-4.078a7.345,7.345,0,0,0,2.344-4.875v-.422a3.24,3.24,0,0,0-1.125-2.578q-1.887,1.277-5.156,3.984a11.4,11.4,0,0,1-2.016-1.781Q3.539-15.328,7.055-18Z" transform="translate(733 344)"/>
    <path id="패스_58" data-name="패스 58" d="M7.055-18q.551,0,6.188,3.7a2.574,2.574,0,0,1,.094.844v.563q0,4.1-6.375,7.547Q5.543-4.395,4.57-3.609a7.5,7.5,0,0,0-.891.891h.047a13.741,13.741,0,0,1,4.547-.75h.234a14.934,14.934,0,0,1,5.156.938v.047L11.414,0h-.047A13.6,13.6,0,0,1,8.977-.7,17.151,17.151,0,0,0,6.82-.937,19.155,19.155,0,0,0,1.664,0H1.523q-.07,0-.187-.187a8.1,8.1,0,0,1,2.2-3.891q0-.059,4.266-4.078a7.345,7.345,0,0,0,2.344-4.875v-.422a3.24,3.24,0,0,0-1.125-2.578q-1.887,1.277-5.156,3.984a11.4,11.4,0,0,1-2.016-1.781Q3.539-15.328,7.055-18Z" transform="translate(872 506) rotate(180)"/>
    <g id="그룹_12" data-name="그룹 12" transform="translate(789.316 460.078)">
      <path id="다각형_1-2" data-name="다각형 1" d="M22.5,0,30,13.158,22.5,26.316H7.5L0,13.158,7.5,0Z" transform="translate(0 30) rotate(-90)" fill="#fff"/>
      <path id="패스_2-2" data-name="패스 2" d="M612.421,455.56l-12.908-6.33V433.776l12.908,7.235Z" transform="translate(-586.618 -433.337)" fill="#c2b9af"/>
      <path id="패스_3-2" data-name="패스 3" d="M624.551,433.836,612.105,441.4v14.392l12.446-6.5Z" transform="translate(-611.656 -433.396)" fill="#69625a"/>
      <path id="패스_1-2" data-name="패스 1" d="M612.466,450.087c.242.021,9.436-6.225,9.436-6.225V432.23l-9.436-5-9.6,5v7.844s9.327-2.816,9.334-5.557,0,4.456,0,4.456l-12.882,6.759V429.894l13.15-6.816,13.85,6.816v15.838l-10.461,6.449v3.406a4.377,4.377,0,0,1-2.253,3.373c-2.061.995,1.463-4.6-1.135-5.894s-10.318-5.832-10.318-5.832l2.829-1.9S612.224,450.067,612.466,450.087Z" transform="translate(-599.316 -423.078)"/>
    </g>
  </g>
</svg>
