<svg xmlns="http://www.w3.org/2000/svg" width="50" height="80" viewBox="0 0 50 80">
  <defs>
    <style>
      .cls-1 {
        fill: #fff;
      }
    </style>
  </defs>
  <g id="_3" data-name="3" transform="translate(-101 178)">
    <rect id="사각형_3" data-name="사각형 3" class="cls-1" width="50" height="80" transform="translate(101 -178)"/>
    <path id="패스_6" data-name="패스 6" d="M28.194-22.274l-.074,5.55a9.391,9.391,0,0,1-1.85,5.4,14.179,14.179,0,0,1-3.108,2.738L18.648-5.846q-.888.592-2.183,1.665T13.986-2L12.062.074A13.053,13.053,0,0,1,10.508,0Q9.916-.074,8.88-.3A10.847,10.847,0,0,1,3.108-3.552Q-.074-7.1-.074-13.024q0-6.216,4.44-8.214a7.079,7.079,0,0,1,1.887-.629,13.932,13.932,0,0,1,2.479-.185l-.666,1.7A19.38,19.38,0,0,0,7.4-15.1a8.351,8.351,0,0,0,1.554,5.032A8.292,8.292,0,0,0,13.172-7.03a12.684,12.684,0,0,0,3.552.592,3.128,3.128,0,0,0,2.294-.74,4.17,4.17,0,0,0,.37-2.072l.148-4.736v-6.29a33.685,33.685,0,0,0-.518-7.252,5.442,5.442,0,0,0-.481-1.221,8.941,8.941,0,0,0-.851-1.295,6.111,6.111,0,0,0-1.961-1.739,5.609,5.609,0,0,0-2.849-.7,17.276,17.276,0,0,0-6.808,1.258l-2,1.332,2.22-3.922a24.85,24.85,0,0,1,6.29-6.66q2.22-1.628,4.958-3.922,1.184-.962,2.442-2l2-2.146H13.024a24.685,24.685,0,0,0-3.182.222,31.081,31.081,0,0,0-3.922.814L2.294-46.4l.444-.592a24.687,24.687,0,0,0,1.406-2.035q.666-1.073,1-1.665a14.547,14.547,0,0,0,.74-1.591q.407-1,.555-1.443l.222-1.258H28.194L26.566-51.43a19.827,19.827,0,0,1-5.661,6.586,68.477,68.477,0,0,0-6.253,5.106,15.083,15.083,0,0,0-1.258,1.258q-.666.74-.962,1.11l1.332-.148,1.332-.074a15.094,15.094,0,0,1,2.4.185q1.147.185,1.887.333a8.44,8.44,0,0,1,3.626,1.628,16.017,16.017,0,0,1,3.4,3.478Q28.194-28.86,28.194-22.274Z" transform="translate(111 -111)"/>
  </g>
</svg>
