<svg xmlns="http://www.w3.org/2000/svg" width="155" height="220" viewBox="0 0 155 220">
  <g id="_3bcard" data-name="3bcard" transform="translate(-725 -315)">
    <rect id="사각형_1" data-name="사각형 1" width="155" height="220" rx="8" transform="translate(725 315)"/>
    <g id="그룹_1" data-name="그룹 1" transform="translate(789.316 407.078)">
      <path id="다각형_1" data-name="다각형 1" d="M22.5,0,30,13.158,22.5,26.316H7.5L0,13.158,7.5,0Z" transform="translate(0 30) rotate(-90)"/>
      <path id="패스_2" data-name="패스 2" d="M612.421,455.56l-12.908-6.33V433.776l12.908,7.235Z" transform="translate(-586.618 -433.337)" fill="#69625a"/>
      <path id="패스_3" data-name="패스 3" d="M624.551,433.836,612.105,441.4v14.392l12.446-6.5Z" transform="translate(-611.656 -433.396)" fill="#9e978f"/>
      <path id="패스_1" data-name="패스 1" d="M612.466,450.087c.242.021,9.436-6.225,9.436-6.225V432.23l-9.436-5-9.6,5v7.844s9.327-2.816,9.334-5.557,0,4.456,0,4.456l-12.882,6.759V429.894l13.15-6.816,13.85,6.816v15.838l-10.461,6.449v3.406a4.377,4.377,0,0,1-2.253,3.373c-2.061.995,1.463-4.6-1.135-5.894s-10.318-5.832-10.318-5.832l2.829-1.9S612.224,450.067,612.466,450.087Z" transform="translate(-599.316 -423.078)" fill="#fff"/>
    </g>
    <path id="패스_70" data-name="패스 70" d="M6.129-18q3.363,1.313,6.328,2.813a4.177,4.177,0,0,0,.047.656,5.046,5.046,0,0,1-1.687,3.75A14.8,14.8,0,0,0,9.129-9.7a7.092,7.092,0,0,1,3.328,2.2,3.418,3.418,0,0,1,.656,1.688v1.172q0,1.5-2.578,3.188A16.817,16.817,0,0,1,6.176,0a8.379,8.379,0,0,1-2.3-1.641A30.2,30.2,0,0,1,.973-4.031,9.725,9.725,0,0,1,2.8-5.906a2.508,2.508,0,0,1,1.313.8Q8.426-1.687,8.52-1.687q.387,0,.891-.7a4.727,4.727,0,0,0,.375-1.875v-.516a4.4,4.4,0,0,0-2.3-4.031,6.194,6.194,0,0,0-2.109-.375H4.02q-.035-.469-.094-.469l.047-.094v-.281a5.259,5.259,0,0,0,4.313-1.828,5.164,5.164,0,0,0,.844-2.953q0-1.359-.75-1.359H8.238A5.157,5.157,0,0,0,6.41-15q-.105.035-2.531,1.781H3.832A13.247,13.247,0,0,1,2.1-14.906,39.684,39.684,0,0,1,6.129-18Z" transform="translate(733 344)" fill="#fff"/>
    <path id="패스_71" data-name="패스 71" d="M6.129-18q3.363,1.313,6.328,2.813a4.177,4.177,0,0,0,.047.656,5.046,5.046,0,0,1-1.687,3.75A14.8,14.8,0,0,0,9.129-9.7a7.092,7.092,0,0,1,3.328,2.2,3.418,3.418,0,0,1,.656,1.688v1.172q0,1.5-2.578,3.188A16.817,16.817,0,0,1,6.176,0a8.379,8.379,0,0,1-2.3-1.641A30.2,30.2,0,0,1,.973-4.031,9.725,9.725,0,0,1,2.8-5.906a2.508,2.508,0,0,1,1.313.8Q8.426-1.687,8.52-1.687q.387,0,.891-.7a4.727,4.727,0,0,0,.375-1.875v-.516a4.4,4.4,0,0,0-2.3-4.031,6.194,6.194,0,0,0-2.109-.375H4.02q-.035-.469-.094-.469l.047-.094v-.281a5.259,5.259,0,0,0,4.313-1.828,5.164,5.164,0,0,0,.844-2.953q0-1.359-.75-1.359H8.238A5.157,5.157,0,0,0,6.41-15q-.105.035-2.531,1.781H3.832A13.247,13.247,0,0,1,2.1-14.906,39.684,39.684,0,0,1,6.129-18Z" transform="translate(872 506) rotate(180)" fill="#fff"/>
    <g id="그룹_13" data-name="그룹 13" transform="translate(120 49)">
      <path id="패스_5" data-name="패스 5" d="M22.5,0,30,13.158,22.5,26.316H7.5L0,13.158,7.5,0Z" transform="translate(696.316 311.078) rotate(90)"/>
      <path id="패스_2-2" data-name="패스 2" d="M599.513,433.776l12.908,6.33V455.56l-12.908-7.235Z" transform="translate(71 -114.922)" fill="#69625a"/>
      <path id="패스_3-2" data-name="패스 3" d="M612.105,455.793l12.446-7.565V433.836l-12.446,6.5Z" transform="translate(71.316 -115.155)" fill="#9e978f"/>
      <path id="패스_1-2" data-name="패스 1" d="M613.166,432.069c-.242-.021-9.436,6.225-9.436,6.225v11.633l9.436,5,9.6-5v-7.844s-9.327,2.816-9.334,5.557,0-4.456,0-4.456l12.882-6.759v15.838l-13.15,6.816-13.85-6.816V436.424l10.461-6.449v-3.406a4.377,4.377,0,0,1,2.253-3.373c2.061-.995-1.463,4.6,1.135,5.894s10.318,5.832,10.318,5.832l-2.829,1.9S613.408,432.089,613.166,432.069Z" transform="translate(70 -118)" fill="#fff"/>
    </g>
    <g id="그룹_14" data-name="그룹 14" transform="translate(789.316 460.078)">
      <path id="패스_6" data-name="패스 6" d="M22.5,0,30,13.158,22.5,26.316H7.5L0,13.158,7.5,0Z" transform="translate(0 30) rotate(-90)"/>
      <path id="패스_2-3" data-name="패스 2" d="M612.421,455.56l-12.908-6.33V433.776l12.908,7.235Z" transform="translate(-586.618 -433.337)" fill="#69625a"/>
      <path id="패스_3-3" data-name="패스 3" d="M624.551,433.836,612.105,441.4v14.392l12.446-6.5Z" transform="translate(-611.656 -433.396)" fill="#9e978f"/>
      <path id="패스_1-3" data-name="패스 1" d="M612.466,450.087c.242.021,9.436-6.225,9.436-6.225V432.23l-9.436-5-9.6,5v7.844s9.327-2.816,9.334-5.557,0,4.456,0,4.456l-12.882,6.759V429.894l13.15-6.816,13.85,6.816v15.838l-10.461,6.449v3.406a4.377,4.377,0,0,1-2.253,3.373c-2.061.995,1.463-4.6-1.135-5.894s-10.318-5.832-10.318-5.832l2.829-1.9S612.224,450.067,612.466,450.087Z" transform="translate(-599.316 -423.078)" fill="#fff"/>
    </g>
  </g>
</svg>
