<svg xmlns="http://www.w3.org/2000/svg" width="50" height="80" viewBox="0 0 50 80">
  <defs>
    <style>
      .cls-1 {
        fill: #fff;
      }
    </style>
  </defs>
  <g id="_4" data-name="4" transform="translate(-161 178)">
    <rect id="사각형_4" data-name="사각형 4" width="50" height="80" transform="translate(161 -178)"/>
    <path id="패스_1" data-name="패스 1" class="cls-1" d="M25.974-5.772l-3.034,3.4L20.868.074l-3.4-4.44a7.177,7.177,0,0,0-2-1.628L13.986-7.03a1.23,1.23,0,0,0,1-.74,4.865,4.865,0,0,0,.333-2.072v-9.176H0l.074-4.514q0-1.406,3.256-7.1L8.288-38.7l9.99-16.28.666,1.11a35.515,35.515,0,0,0,2.886,4l2.738,2.738.666.518-.962.148a1.765,1.765,0,0,0-1.036,1.628l.074,35a4.05,4.05,0,0,0,1.332,3.4A5.412,5.412,0,0,0,25.974-5.772ZM15.244-23.31v-21.9l-1.85,1.258q-1.554,2-2.923,4.107t-2.7,4.625L4-29.156Q1.554-25.012,1.554-23.9q0,.592.518.592Z" transform="translate(171 -113)"/>
  </g>
</svg>
