<svg xmlns="http://www.w3.org/2000/svg" width="155" height="220" viewBox="0 0 155 220">
  <g id="_4bcard" data-name="4bcard" transform="translate(-725 -315)">
    <rect id="사각형_1" data-name="사각형 1" width="155" height="220" rx="8" transform="translate(725 315)"/>
    <g id="그룹_1" data-name="그룹 1" transform="translate(88 59)">
      <path id="다각형_1" data-name="다각형 1" d="M22.5,0,30,13.158,22.5,26.316H7.5L0,13.158,7.5,0Z" transform="translate(696.316 311.078) rotate(90)"/>
      <path id="패스_2" data-name="패스 2" d="M599.513,433.776l12.908,6.33V455.56l-12.908-7.235Z" transform="translate(71 -114.922)" fill="#69625a"/>
      <path id="패스_3" data-name="패스 3" d="M612.105,455.793l12.446-7.565V433.836l-12.446,6.5Z" transform="translate(71.316 -115.155)" fill="#9e978f"/>
      <path id="패스_1" data-name="패스 1" d="M613.166,432.069c-.242-.021-9.436,6.225-9.436,6.225v11.633l9.436,5,9.6-5v-7.844s-9.327,2.816-9.334,5.557,0-4.456,0-4.456l12.882-6.759v15.838l-13.15,6.816-13.85-6.816V436.424l10.461-6.449v-3.406a4.377,4.377,0,0,1,2.253-3.373c2.061-.995-1.463,4.6,1.135,5.894s10.318,5.832,10.318,5.832l-2.829,1.9S613.408,432.089,613.166,432.069Z" transform="translate(70 -118)" fill="#fff"/>
    </g>
    <path id="패스_72" data-name="패스 72" d="M7.723-18a2.981,2.981,0,0,1,1.734.984,4,4,0,0,1,.516,2.391q.047.48.047,1.688v2.391q0,1.406.094,2.391.938.047,1.406.047h1.031a7.2,7.2,0,0,1,.516,2.2v.047a.309.309,0,0,1-.328.188H10.676q-.609,0-.609.188-.047.516-.047.891v.656q0,.984.141.984a2.406,2.406,0,0,0,1.219.469h.094a1.367,1.367,0,0,0,.656-.375h.094q.375,0,.375.422Q9.527-.07,9.316,0A31.184,31.184,0,0,1,6.223-1.828a8.044,8.044,0,0,0,.891-1.5V-5.062l-.047-.562q-.469-.047-.7-.047-1.477,0-5.344-.047Q.551-7.84.5-8.25.867-8.8,7.723-18ZM1.395-8.25V-8.2H2.426q1.16,0,2.3.047L7.066-8.25v-4.359q0-2.437-.516-2.437a.041.041,0,0,0-.047-.047H6.457Q3.516-11.4,1.395-8.25Z" transform="translate(733 344)" fill="#fff"/>
    <path id="패스_73" data-name="패스 73" d="M7.723-18a2.981,2.981,0,0,1,1.734.984,4,4,0,0,1,.516,2.391q.047.48.047,1.688v2.391q0,1.406.094,2.391.938.047,1.406.047h1.031a7.2,7.2,0,0,1,.516,2.2v.047a.309.309,0,0,1-.328.188H10.676q-.609,0-.609.188-.047.516-.047.891v.656q0,.984.141.984a2.406,2.406,0,0,0,1.219.469h.094a1.367,1.367,0,0,0,.656-.375h.094q.375,0,.375.422Q9.527-.07,9.316,0A31.184,31.184,0,0,1,6.223-1.828a8.044,8.044,0,0,0,.891-1.5V-5.062l-.047-.562q-.469-.047-.7-.047-1.477,0-5.344-.047Q.551-7.84.5-8.25.867-8.8,7.723-18ZM1.395-8.25V-8.2H2.426q1.16,0,2.3.047L7.066-8.25v-4.359q0-2.437-.516-2.437a.041.041,0,0,0-.047-.047H6.457Q3.516-11.4,1.395-8.25Z" transform="translate(872 506) rotate(180)" fill="#fff"/>
    <g id="그룹_15" data-name="그룹 15" transform="translate(151 59)">
      <path id="패스_7" data-name="패스 7" d="M22.5,0,30,13.158,22.5,26.316H7.5L0,13.158,7.5,0Z" transform="translate(696.316 311.078) rotate(90)"/>
      <path id="패스_2-2" data-name="패스 2" d="M599.513,433.776l12.908,6.33V455.56l-12.908-7.235Z" transform="translate(71 -114.922)" fill="#69625a"/>
      <path id="패스_3-2" data-name="패스 3" d="M612.105,455.793l12.446-7.565V433.836l-12.446,6.5Z" transform="translate(71.316 -115.155)" fill="#9e978f"/>
      <path id="패스_1-2" data-name="패스 1" d="M613.166,432.069c-.242-.021-9.436,6.225-9.436,6.225v11.633l9.436,5,9.6-5v-7.844s-9.327,2.816-9.334,5.557,0-4.456,0-4.456l12.882-6.759v15.838l-13.15,6.816-13.85-6.816V436.424l10.461-6.449v-3.406a4.377,4.377,0,0,1,2.253-3.373c2.061-.995-1.463,4.6,1.135,5.894s10.318,5.832,10.318,5.832l-2.829,1.9S613.408,432.089,613.166,432.069Z" transform="translate(70 -118)" fill="#fff"/>
    </g>
    <g id="그룹_16" data-name="그룹 16" transform="translate(820.316 450.078)">
      <path id="다각형_1-2" data-name="다각형 1" d="M22.5,0,30,13.158,22.5,26.316H7.5L0,13.158,7.5,0Z" transform="translate(0 30) rotate(-90)"/>
      <path id="패스_2-3" data-name="패스 2" d="M612.421,455.56l-12.908-6.33V433.776l12.908,7.235Z" transform="translate(-586.618 -433.337)" fill="#69625a"/>
      <path id="패스_3-3" data-name="패스 3" d="M624.551,433.836,612.105,441.4v14.392l12.446-6.5Z" transform="translate(-611.656 -433.396)" fill="#9e978f"/>
      <path id="패스_1-3" data-name="패스 1" d="M612.466,450.087c.242.021,9.436-6.225,9.436-6.225V432.23l-9.436-5-9.6,5v7.844s9.327-2.816,9.334-5.557,0,4.456,0,4.456l-12.882,6.759V429.894l13.15-6.816,13.85,6.816v15.838l-10.461,6.449v3.406a4.377,4.377,0,0,1-2.253,3.373c-2.061.995,1.463-4.6-1.135-5.894s-10.318-5.832-10.318-5.832l2.829-1.9S612.224,450.067,612.466,450.087Z" transform="translate(-599.316 -423.078)" fill="#fff"/>
    </g>
    <g id="그룹_17" data-name="그룹 17" transform="translate(757.316 450.078)">
      <path id="패스_8" data-name="패스 8" d="M22.5,0,30,13.158,22.5,26.316H7.5L0,13.158,7.5,0Z" transform="translate(0 30) rotate(-90)"/>
      <path id="패스_2-4" data-name="패스 2" d="M612.421,455.56l-12.908-6.33V433.776l12.908,7.235Z" transform="translate(-586.618 -433.337)" fill="#69625a"/>
      <path id="패스_3-4" data-name="패스 3" d="M624.551,433.836,612.105,441.4v14.392l12.446-6.5Z" transform="translate(-611.656 -433.396)" fill="#9e978f"/>
      <path id="패스_1-4" data-name="패스 1" d="M612.466,450.087c.242.021,9.436-6.225,9.436-6.225V432.23l-9.436-5-9.6,5v7.844s9.327-2.816,9.334-5.557,0,4.456,0,4.456l-12.882,6.759V429.894l13.15-6.816,13.85,6.816v15.838l-10.461,6.449v3.406a4.377,4.377,0,0,1-2.253,3.373c-2.061.995,1.463-4.6-1.135-5.894s-10.318-5.832-10.318-5.832l2.829-1.9S612.224,450.067,612.466,450.087Z" transform="translate(-599.316 -423.078)" fill="#fff"/>
    </g>
  </g>
</svg>
