<svg xmlns="http://www.w3.org/2000/svg" width="50" height="80" viewBox="0 0 50 80">
  <defs>
    <style>
      .cls-1 {
        fill: #fff;
      }
    </style>
  </defs>
  <g id="_5" data-name="5" transform="translate(-221 178)">
    <rect id="사각형_5" data-name="사각형 5" class="cls-1" width="50" height="80" transform="translate(221 -178)"/>
    <path id="패스_2" data-name="패스 2" d="M29.9-54.982l-.814.444a15.6,15.6,0,0,0-1.332.888,11.48,11.48,0,0,0-1.961,1.813,14.676,14.676,0,0,0-1.739,2.7L23.458-47.8l-17.02.074L5.254-40.774,4.44-33.818l-.222,2,1.7-1.11,3.774-2.22a15.645,15.645,0,0,0,4.07-3.108L15.54-40.33a14.854,14.854,0,0,1,3.182.666,11.862,11.862,0,0,1,5.92,4.514,16.048,16.048,0,0,1,2.442,6.364,49.174,49.174,0,0,1,.37,6.364v1.7q0,6.142-2.257,9.62a11.622,11.622,0,0,1-6.623,4.81,9.31,9.31,0,0,0-4.81,3.626L12.358.074A12.775,12.775,0,0,1,5.032-2.368Q0-5.846,0-12.654a9.165,9.165,0,0,1,4.366-8.214,17.654,17.654,0,0,1,4.366-1.7L7.77-21.238q-.222.518-.592,1.591a6.444,6.444,0,0,0-.37,2.109A12.258,12.258,0,0,0,9.546-9.25a6.867,6.867,0,0,0,5.4,2.738,4.2,4.2,0,0,0,2.59-.777,5.178,5.178,0,0,0,1.554-3.071,34.251,34.251,0,0,0,.518-6.956v-2.22a30.739,30.739,0,0,0-.814-7.548q-1.11-4.366-3.256-5.624a7.228,7.228,0,0,0-3.4-.74A10.107,10.107,0,0,0,7.1-32.116a16.815,16.815,0,0,0-3.4,2.664l-1.184,1.48.222-2.738q.518-5.92,1.11-9.694L5.106-49.58l.518-5.328Z" transform="translate(230 -111)"/>
  </g>
</svg>
