<svg xmlns="http://www.w3.org/2000/svg" width="155" height="220" viewBox="0 0 155 220">
  <g id="_5bcard" data-name="5bcard" transform="translate(-725 -315)">
    <rect id="사각형_1" data-name="사각형 1" width="155" height="220" rx="8" transform="translate(725 315)"/>
    <g id="그룹_1" data-name="그룹 1" transform="translate(120 102)">
      <path id="다각형_1" data-name="다각형 1" d="M22.5,0,30,13.158,22.5,26.316H7.5L0,13.158,7.5,0Z" transform="translate(696.316 311.078) rotate(90)"/>
      <path id="패스_2" data-name="패스 2" d="M599.513,433.776l12.908,6.33V455.56l-12.908-7.235Z" transform="translate(71 -114.922)" fill="#69625a"/>
      <path id="패스_3" data-name="패스 3" d="M612.105,455.793l12.446-7.565V433.836l-12.446,6.5Z" transform="translate(71.316 -115.155)" fill="#9e978f"/>
      <path id="패스_1" data-name="패스 1" d="M613.166,432.069c-.242-.021-9.436,6.225-9.436,6.225v11.633l9.436,5,9.6-5v-7.844s-9.327,2.816-9.334,5.557,0-4.456,0-4.456l12.882-6.759v15.838l-13.15,6.816-13.85-6.816V436.424l10.461-6.449v-3.406a4.377,4.377,0,0,1,2.253-3.373c2.061-.995-1.463,4.6,1.135,5.894s10.318,5.832,10.318,5.832l-2.829,1.9S613.408,432.089,613.166,432.069Z" transform="translate(70 -118)" fill="#fff"/>
    </g>
    <path id="패스_74" data-name="패스 74" d="M8.4-17.906h.891a19.253,19.253,0,0,1,2.109.094q-.8,2.133-.891,2.531-1.477.141-3.234.141H7.184q-.973,0-2.953-.047a1.45,1.45,0,0,1-.375.047,44.073,44.073,0,0,0-.984,5.719,26.339,26.339,0,0,0,3.7-2.437,12.5,12.5,0,0,1,1.5-.937,6.961,6.961,0,0,1,3.891,3.188A4.868,4.868,0,0,1,12.48-7.5v1.078a5.947,5.947,0,0,1-2.062,4.266A10.49,10.49,0,0,1,6.105,0H5.918Q.9-2.719.9-2.766v-.141q0-.234,1.125-1.359a5.113,5.113,0,0,1,.656-.75q1.395.656,5.3,2.766.516.211.516.328h.047A3.343,3.343,0,0,1,9.2-2.484a3.938,3.938,0,0,0,.844-2.578v-.094A4.634,4.634,0,0,0,7.277-9.469a3.074,3.074,0,0,0-1.547-.609H5.59a3.517,3.517,0,0,0-1.547.891q-.82.586-2.109,1.359H1.887q.844-6.187,1.594-9.937Q5.965-17.906,8.4-17.906Z" transform="translate(733 344)" fill="#fff"/>
    <path id="패스_75" data-name="패스 75" d="M8.4-17.906h.891a19.253,19.253,0,0,1,2.109.094q-.8,2.133-.891,2.531-1.477.141-3.234.141H7.184q-.973,0-2.953-.047a1.45,1.45,0,0,1-.375.047,44.073,44.073,0,0,0-.984,5.719,26.339,26.339,0,0,0,3.7-2.437,12.5,12.5,0,0,1,1.5-.937,6.961,6.961,0,0,1,3.891,3.188A4.868,4.868,0,0,1,12.48-7.5v1.078a5.947,5.947,0,0,1-2.062,4.266A10.49,10.49,0,0,1,6.105,0H5.918Q.9-2.719.9-2.766v-.141q0-.234,1.125-1.359a5.113,5.113,0,0,1,.656-.75q1.395.656,5.3,2.766.516.211.516.328h.047A3.343,3.343,0,0,1,9.2-2.484a3.938,3.938,0,0,0,.844-2.578v-.094A4.634,4.634,0,0,0,7.277-9.469a3.074,3.074,0,0,0-1.547-.609H5.59a3.517,3.517,0,0,0-1.547.891q-.82.586-2.109,1.359H1.887q.844-6.187,1.594-9.937Q5.965-17.906,8.4-17.906Z" transform="translate(871 506) rotate(180)" fill="#fff"/>
    <g id="그룹_18" data-name="그룹 18" transform="translate(88 59)">
      <path id="패스_9" data-name="패스 9" d="M22.5,0,30,13.158,22.5,26.316H7.5L0,13.158,7.5,0Z" transform="translate(696.316 311.078) rotate(90)"/>
      <path id="패스_2-2" data-name="패스 2" d="M599.513,433.776l12.908,6.33V455.56l-12.908-7.235Z" transform="translate(71 -114.922)" fill="#69625a"/>
      <path id="패스_3-2" data-name="패스 3" d="M612.105,455.793l12.446-7.565V433.836l-12.446,6.5Z" transform="translate(71.316 -115.155)" fill="#9e978f"/>
      <path id="패스_1-2" data-name="패스 1" d="M613.166,432.069c-.242-.021-9.436,6.225-9.436,6.225v11.633l9.436,5,9.6-5v-7.844s-9.327,2.816-9.334,5.557,0-4.456,0-4.456l12.882-6.759v15.838l-13.15,6.816-13.85-6.816V436.424l10.461-6.449v-3.406a4.377,4.377,0,0,1,2.253-3.373c2.061-.995-1.463,4.6,1.135,5.894s10.318,5.832,10.318,5.832l-2.829,1.9S613.408,432.089,613.166,432.069Z" transform="translate(70 -118)" fill="#fff"/>
    </g>
    <g id="그룹_19" data-name="그룹 19" transform="translate(151 59)">
      <path id="다각형_1-2" data-name="다각형 1" d="M22.5,0,30,13.158,22.5,26.316H7.5L0,13.158,7.5,0Z" transform="translate(696.316 311.078) rotate(90)"/>
      <path id="패스_2-3" data-name="패스 2" d="M599.513,433.776l12.908,6.33V455.56l-12.908-7.235Z" transform="translate(71 -114.922)" fill="#69625a"/>
      <path id="패스_3-3" data-name="패스 3" d="M612.105,455.793l12.446-7.565V433.836l-12.446,6.5Z" transform="translate(71.316 -115.155)" fill="#9e978f"/>
      <path id="패스_1-3" data-name="패스 1" d="M613.166,432.069c-.242-.021-9.436,6.225-9.436,6.225v11.633l9.436,5,9.6-5v-7.844s-9.327,2.816-9.334,5.557,0-4.456,0-4.456l12.882-6.759v15.838l-13.15,6.816-13.85-6.816V436.424l10.461-6.449v-3.406a4.377,4.377,0,0,1,2.253-3.373c2.061-.995-1.463,4.6,1.135,5.894s10.318,5.832,10.318,5.832l-2.829,1.9S613.408,432.089,613.166,432.069Z" transform="translate(70 -118)" fill="#fff"/>
    </g>
    <g id="그룹_20" data-name="그룹 20" transform="translate(820.316 450.078)">
      <path id="패스_11" data-name="패스 11" d="M22.5,0,30,13.158,22.5,26.316H7.5L0,13.158,7.5,0Z" transform="translate(0 30) rotate(-90)"/>
      <path id="패스_2-4" data-name="패스 2" d="M612.421,455.56l-12.908-6.33V433.776l12.908,7.235Z" transform="translate(-586.618 -433.337)" fill="#69625a"/>
      <path id="패스_3-4" data-name="패스 3" d="M624.551,433.836,612.105,441.4v14.392l12.446-6.5Z" transform="translate(-611.656 -433.396)" fill="#9e978f"/>
      <path id="패스_1-4" data-name="패스 1" d="M612.466,450.087c.242.021,9.436-6.225,9.436-6.225V432.23l-9.436-5-9.6,5v7.844s9.327-2.816,9.334-5.557,0,4.456,0,4.456l-12.882,6.759V429.894l13.15-6.816,13.85,6.816v15.838l-10.461,6.449v3.406a4.377,4.377,0,0,1-2.253,3.373c-2.061.995,1.463-4.6-1.135-5.894s-10.318-5.832-10.318-5.832l2.829-1.9S612.224,450.067,612.466,450.087Z" transform="translate(-599.316 -423.078)" fill="#fff"/>
    </g>
    <g id="그룹_21" data-name="그룹 21" transform="translate(757.316 450.078)">
      <path id="패스_10" data-name="패스 10" d="M22.5,0,30,13.158,22.5,26.316H7.5L0,13.158,7.5,0Z" transform="translate(0 30) rotate(-90)"/>
      <path id="패스_2-5" data-name="패스 2" d="M612.421,455.56l-12.908-6.33V433.776l12.908,7.235Z" transform="translate(-586.618 -433.337)" fill="#69625a"/>
      <path id="패스_3-5" data-name="패스 3" d="M624.551,433.836,612.105,441.4v14.392l12.446-6.5Z" transform="translate(-611.656 -433.396)" fill="#9e978f"/>
      <path id="패스_1-5" data-name="패스 1" d="M612.466,450.087c.242.021,9.436-6.225,9.436-6.225V432.23l-9.436-5-9.6,5v7.844s9.327-2.816,9.334-5.557,0,4.456,0,4.456l-12.882,6.759V429.894l13.15-6.816,13.85,6.816v15.838l-10.461,6.449v3.406a4.377,4.377,0,0,1-2.253,3.373c-2.061.995,1.463-4.6-1.135-5.894s-10.318-5.832-10.318-5.832l2.829-1.9S612.224,450.067,612.466,450.087Z" transform="translate(-599.316 -423.078)" fill="#fff"/>
    </g>
  </g>
</svg>
