<svg xmlns="http://www.w3.org/2000/svg" width="50" height="80" viewBox="0 0 50 80">
  <defs>
    <style>
      .cls-1 {
        fill: #fff;
      }
    </style>
  </defs>
  <g id="_6" data-name="6" transform="translate(-281 178)">
    <rect id="사각형_6" data-name="사각형 6" width="50" height="80" transform="translate(281 -178)"/>
    <path id="패스_3" data-name="패스 3" class="cls-1" d="M26.492-20.276q0,6.956-3.33,11.1Q20.646-6.142,15.1-4.292a6.921,6.921,0,0,0-4.07,2.664L10.36.074,8.51-.962,4.218-3.848Q2-5.624,1.036-11.285A73.68,73.68,0,0,1,.074-23.606,64.828,64.828,0,0,1,1.258-37.592a26.569,26.569,0,0,1,4.366-9.546A21.747,21.747,0,0,1,12.8-53.206a39.168,39.168,0,0,1,4.07-1.776l.666,1.11,1.628,2.442q.592.666.666.74a13.889,13.889,0,0,0,1.48,1.258l1.11.74-2.442.074q-5.772,1.036-8.806,7.252A25.058,25.058,0,0,0,8.806-34.04l-.444,3.478.962-.518q1.184-.74,1.85-1.258a16.187,16.187,0,0,0,1.554-1.332A12.278,12.278,0,0,0,14.5-35.964,3.85,3.85,0,0,1,15.1-37l.888-.074h1.258a14,14,0,0,1,2.072.3,9.17,9.17,0,0,1,3.108,1.258,8.973,8.973,0,0,1,3.071,5.18A40.191,40.191,0,0,1,26.492-20.276ZM18.8-8.214a42.25,42.25,0,0,0,.37-6.66,60.408,60.408,0,0,0-.481-8.1,14.173,14.173,0,0,0-1.665-5.439,3.97,3.97,0,0,0-1.48-1.7,5.381,5.381,0,0,0-1.7-.592A3.892,3.892,0,0,0,11.4-29.674a4.14,4.14,0,0,0-.777.629q-.407.407-1.184,1.221a6.683,6.683,0,0,0-1.221,3.256q-.148,1.332-.3,2.7a25.118,25.118,0,0,0-.148,2.7l.222,4.292a15.734,15.734,0,0,0,.814,3.7q1.11,3.626,2.96,4.292l1.776.444a7.123,7.123,0,0,0,2.59.518A2.94,2.94,0,0,0,17.945-6.4,2.781,2.781,0,0,0,18.8-8.214Z" transform="translate(292 -113)"/>
  </g>
</svg>
