<svg xmlns="http://www.w3.org/2000/svg" width="155" height="220" viewBox="0 0 155 220">
  <g id="_6card" data-name="6card" transform="translate(-725 -315)">
    <rect id="사각형_1" data-name="사각형 1" width="155" height="220" rx="8" transform="translate(725 315)" fill="#fff"/>
    <g id="그룹_1" data-name="그룹 1" transform="translate(88.984 46)">
      <path id="다각형_1" data-name="다각형 1" d="M22.5,0,30,13.158,22.5,26.316H7.5L0,13.158,7.5,0Z" transform="translate(696.316 311.078) rotate(90)" fill="#fff"/>
      <path id="패스_2" data-name="패스 2" d="M599.513,433.776l12.908,6.33V455.56l-12.908-7.235Z" transform="translate(71 -114.922)" fill="#c2b9af"/>
      <path id="패스_3" data-name="패스 3" d="M612.105,455.793l12.446-7.565V433.836l-12.446,6.5Z" transform="translate(71.316 -115.155)" fill="#69625a"/>
      <path id="패스_1" data-name="패스 1" d="M613.166,432.069c-.242-.021-9.436,6.225-9.436,6.225v11.633l9.436,5,9.6-5v-7.844s-9.327,2.816-9.334,5.557,0-4.456,0-4.456l12.882-6.759v15.838l-13.15,6.816-13.85-6.816V436.424l10.461-6.449v-3.406a4.377,4.377,0,0,1,2.253-3.373c2.061-.995-1.463,4.6,1.135,5.894s10.318,5.832,10.318,5.832l-2.829,1.9S613.408,432.089,613.166,432.069Z" transform="translate(70 -118)"/>
    </g>
    <path id="패스_61" data-name="패스 61" d="M7.652-17.953a23.462,23.462,0,0,1,4.641,2.344v.047a10.269,10.269,0,0,1-1.828,2.2h-.047q-1.277-.516-4.641-2.3A10.8,10.8,0,0,0,3.621-9.187a3.1,3.1,0,0,1,.047.609q1.605-.785,5.109-2.906a5.816,5.816,0,0,0,.75-.422,5.75,5.75,0,0,1,3.234,2.813,2.965,2.965,0,0,1,.281,1.172v1.406q0,1.395-1.969,3.7A10.759,10.759,0,0,1,9.012-1.266Q7.512,0,7.09,0H6.434a2.75,2.75,0,0,1-.891-.469A7.764,7.764,0,0,1,2.684-2.578,6.954,6.954,0,0,1,.9-7.359v-.562q0-4.395,4.547-8.437ZM3.809-7.641v.047q0,1.828,2.25,3.7A7.01,7.01,0,0,0,8.777-2.484q0,.059.375.141a3.8,3.8,0,0,0,1.5-3.141A3.893,3.893,0,0,0,8.5-8.859,1.719,1.719,0,0,0,7.23-9.516,5.162,5.162,0,0,0,4.7-8.109,2.247,2.247,0,0,1,3.809-7.641Z" transform="translate(733 344)"/>
    <path id="패스_62" data-name="패스 62" d="M7.652-17.953a23.462,23.462,0,0,1,4.641,2.344v.047a10.269,10.269,0,0,1-1.828,2.2h-.047q-1.277-.516-4.641-2.3A10.8,10.8,0,0,0,3.621-9.187a3.1,3.1,0,0,1,.047.609q1.605-.785,5.109-2.906a5.816,5.816,0,0,0,.75-.422,5.75,5.75,0,0,1,3.234,2.813,2.965,2.965,0,0,1,.281,1.172v1.406q0,1.395-1.969,3.7A10.759,10.759,0,0,1,9.012-1.266Q7.512,0,7.09,0H6.434a2.75,2.75,0,0,1-.891-.469A7.764,7.764,0,0,1,2.684-2.578,6.954,6.954,0,0,1,.9-7.359v-.562q0-4.395,4.547-8.437ZM3.809-7.641v.047q0,1.828,2.25,3.7A7.01,7.01,0,0,0,8.777-2.484q0,.059.375.141a3.8,3.8,0,0,0,1.5-3.141A3.893,3.893,0,0,0,8.5-8.859,1.719,1.719,0,0,0,7.23-9.516,5.162,5.162,0,0,0,4.7-8.109,2.247,2.247,0,0,1,3.809-7.641Z" transform="translate(874 506) rotate(180)"/>
    <g id="그룹_22" data-name="그룹 22" transform="translate(758.3 463.078)">
      <path id="다각형_1-2" data-name="다각형 1" d="M22.5,0,30,13.158,22.5,26.316H7.5L0,13.158,7.5,0Z" transform="translate(27 0) rotate(90)" fill="#fff"/>
      <path id="패스_2-2" data-name="패스 2" d="M599.513,455.56l12.908-6.33V433.776l-12.908,7.235Z" transform="translate(-598.316 -433.337)" fill="#c2b9af"/>
      <path id="패스_3-2" data-name="패스 3" d="M612.105,433.836l12.446,7.565v14.392l-12.446-6.5Z" transform="translate(-598 -433.396)" fill="#69625a"/>
      <path id="패스_1-2" data-name="패스 1" d="M613.166,450.087c-.242.021-9.436-6.225-9.436-6.225V432.23l9.436-5,9.6,5v7.844s-9.327-2.816-9.334-5.557,0,4.456,0,4.456l12.882,6.759V429.894l-13.15-6.816-13.85,6.816v15.838l10.461,6.449v3.406a4.377,4.377,0,0,0,2.253,3.373c2.061.995-1.463-4.6,1.135-5.894s10.318-5.832,10.318-5.832l-2.829-1.9S613.408,450.067,613.166,450.087Z" transform="translate(-599.316 -423.078)"/>
    </g>
    <g id="그룹_23" data-name="그룹 23" transform="translate(758.3 407.078)">
      <path id="다각형_1-3" data-name="다각형 1" d="M22.5,0,30,13.158,22.5,26.316H7.5L0,13.158,7.5,0Z" transform="translate(27 0) rotate(90)" fill="#fff"/>
      <path id="패스_2-3" data-name="패스 2" d="M599.513,455.56l12.908-6.33V433.776l-12.908,7.235Z" transform="translate(-598.316 -433.337)" fill="#c2b9af"/>
      <path id="패스_3-3" data-name="패스 3" d="M612.105,433.836l12.446,7.565v14.392l-12.446-6.5Z" transform="translate(-598 -433.396)" fill="#69625a"/>
      <path id="패스_1-3" data-name="패스 1" d="M613.166,450.087c-.242.021-9.436-6.225-9.436-6.225V432.23l9.436-5,9.6,5v7.844s-9.327-2.816-9.334-5.557,0,4.456,0,4.456l12.882,6.759V429.894l-13.15-6.816-13.85,6.816v15.838l10.461,6.449v3.406a4.377,4.377,0,0,0,2.253,3.373c2.061.995-1.463-4.6,1.135-5.894s10.318-5.832,10.318-5.832l-2.829-1.9S613.408,450.067,613.166,450.087Z" transform="translate(-599.316 -423.078)"/>
    </g>
    <g id="그룹_24" data-name="그룹 24" transform="translate(150.984 46)">
      <path id="다각형_1-4" data-name="다각형 1" d="M22.5,0,30,13.158,22.5,26.316H7.5L0,13.158,7.5,0Z" transform="translate(696.316 311.078) rotate(90)" fill="#fff"/>
      <path id="패스_2-4" data-name="패스 2" d="M599.513,433.776l12.908,6.33V455.56l-12.908-7.235Z" transform="translate(71 -114.922)" fill="#c2b9af"/>
      <path id="패스_3-4" data-name="패스 3" d="M612.105,455.793l12.446-7.565V433.836l-12.446,6.5Z" transform="translate(71.316 -115.155)" fill="#69625a"/>
      <path id="패스_1-4" data-name="패스 1" d="M613.166,432.069c-.242-.021-9.436,6.225-9.436,6.225v11.633l9.436,5,9.6-5v-7.844s-9.327,2.816-9.334,5.557,0-4.456,0-4.456l12.882-6.759v15.838l-13.15,6.816-13.85-6.816V436.424l10.461-6.449v-3.406a4.377,4.377,0,0,1,2.253-3.373c2.061-.995-1.463,4.6,1.135,5.894s10.318,5.832,10.318,5.832l-2.829,1.9S613.408,432.089,613.166,432.069Z" transform="translate(70 -118)"/>
    </g>
    <g id="그룹_25" data-name="그룹 25" transform="translate(820.3 463.078)">
      <path id="다각형_1-5" data-name="다각형 1" d="M22.5,0,30,13.158,22.5,26.316H7.5L0,13.158,7.5,0Z" transform="translate(27 0) rotate(90)" fill="#fff"/>
      <path id="패스_2-5" data-name="패스 2" d="M599.513,455.56l12.908-6.33V433.776l-12.908,7.235Z" transform="translate(-598.316 -433.337)" fill="#c2b9af"/>
      <path id="패스_3-5" data-name="패스 3" d="M612.105,433.836l12.446,7.565v14.392l-12.446-6.5Z" transform="translate(-598 -433.396)" fill="#69625a"/>
      <path id="패스_1-5" data-name="패스 1" d="M613.166,450.087c-.242.021-9.436-6.225-9.436-6.225V432.23l9.436-5,9.6,5v7.844s-9.327-2.816-9.334-5.557,0,4.456,0,4.456l12.882,6.759V429.894l-13.15-6.816-13.85,6.816v15.838l10.461,6.449v3.406a4.377,4.377,0,0,0,2.253,3.373c2.061.995-1.463-4.6,1.135-5.894s10.318-5.832,10.318-5.832l-2.829-1.9S613.408,450.067,613.166,450.087Z" transform="translate(-599.316 -423.078)"/>
    </g>
    <g id="그룹_26" data-name="그룹 26" transform="translate(820.3 407.078)">
      <path id="다각형_1-6" data-name="다각형 1" d="M22.5,0,30,13.158,22.5,26.316H7.5L0,13.158,7.5,0Z" transform="translate(27 0) rotate(90)" fill="#fff"/>
      <path id="패스_2-6" data-name="패스 2" d="M599.513,455.56l12.908-6.33V433.776l-12.908,7.235Z" transform="translate(-598.316 -433.337)" fill="#c2b9af"/>
      <path id="패스_3-6" data-name="패스 3" d="M612.105,433.836l12.446,7.565v14.392l-12.446-6.5Z" transform="translate(-598 -433.396)" fill="#69625a"/>
      <path id="패스_1-6" data-name="패스 1" d="M613.166,450.087c-.242.021-9.436-6.225-9.436-6.225V432.23l9.436-5,9.6,5v7.844s-9.327-2.816-9.334-5.557,0,4.456,0,4.456l12.882,6.759V429.894l-13.15-6.816-13.85,6.816v15.838l10.461,6.449v3.406a4.377,4.377,0,0,0,2.253,3.373c2.061.995-1.463-4.6,1.135-5.894s10.318-5.832,10.318-5.832l-2.829-1.9S613.408,450.067,613.166,450.087Z" transform="translate(-599.316 -423.078)"/>
    </g>
  </g>
</svg>
