<svg xmlns="http://www.w3.org/2000/svg" width="50" height="80" viewBox="0 0 50 80">
  <defs>
    <style>
      .cls-1 {
        fill: #fff;
      }
    </style>
  </defs>
  <g id="_7" data-name="7" transform="translate(-341 178)">
    <rect id="사각형_7" data-name="사각형 7" class="cls-1" width="50" height="80" transform="translate(341 -178)"/>
    <path id="패스_4" data-name="패스 4" d="M31.154-54.982,29.6-52.54l-4.292,7.1Q22.5-40.848,18.722-34.188A22.349,22.349,0,0,0,16.576-27.6a59.58,59.58,0,0,0-.592,8.436l.222,4.81.37,4.07A3.449,3.449,0,0,0,17.908-7.4l1.48.74-1.11.74-2,1.7-2,2.59L13.024.074l-.666-1.258a9.977,9.977,0,0,0-2.146-2.738q-.37-.37-.888-.814A21.63,21.63,0,0,0,7.1-6.364L5.328-7.4l.962-.592a3,3,0,0,0,.888-2V-11.4q0-2.59.074-4.4a31.234,31.234,0,0,1,.37-3.663A29.7,29.7,0,0,1,10.212-29.6,57.884,57.884,0,0,1,14.8-37.592l4.958-7.252q.962-1.332,1.776-2.368.222-.3.666-.814l-3.552-.518q-2.96-.3-6.216-.3a61.339,61.339,0,0,0-8.806.666q-.814.148-1.665.259a12.377,12.377,0,0,0-2.035.481l1.11-1.184L3.108-51.06a19.152,19.152,0,0,0,1.85-3.108l.37-.814Z" transform="translate(350 -113)"/>
  </g>
</svg>
