<svg xmlns="http://www.w3.org/2000/svg" width="155" height="220" viewBox="0 0 155 220">
  <g id="_7card" data-name="7card" transform="translate(-725 -315)">
    <rect id="사각형_1" data-name="사각형 1" width="155" height="220" rx="8" transform="translate(725 315)" fill="#fff"/>
    <g id="그룹_1" data-name="그룹 1" transform="translate(88.984 46)">
      <path id="다각형_1" data-name="다각형 1" d="M22.5,0,30,13.158,22.5,26.316H7.5L0,13.158,7.5,0Z" transform="translate(696.316 311.078) rotate(90)" fill="#fff"/>
      <path id="패스_2" data-name="패스 2" d="M599.513,433.776l12.908,6.33V455.56l-12.908-7.235Z" transform="translate(71 -114.922)" fill="#c2b9af"/>
      <path id="패스_3" data-name="패스 3" d="M612.105,455.793l12.446-7.565V433.836l-12.446,6.5Z" transform="translate(71.316 -115.155)" fill="#69625a"/>
      <path id="패스_1" data-name="패스 1" d="M613.166,432.069c-.242-.021-9.436,6.225-9.436,6.225v11.633l9.436,5,9.6-5v-7.844s-9.327,2.816-9.334,5.557,0-4.456,0-4.456l12.882-6.759v15.838l-13.15,6.816-13.85-6.816V436.424l10.461-6.449v-3.406a4.377,4.377,0,0,1,2.253-3.373c2.061-.995-1.463,4.6,1.135,5.894s10.318,5.832,10.318,5.832l-2.829,1.9S613.408,432.089,613.166,432.069Z" transform="translate(70 -118)"/>
    </g>
    <path id="패스_64" data-name="패스 64" d="M3.656-17.859q8.168.188,9.656.188v.8A21.8,21.8,0,0,0,9-10.828a23.705,23.705,0,0,0-2.344,8.3q0,1.406-.281,1.406Q4.676-.516,2.766,0V-.047q0-6.727,7.594-14.859v-.047q-.094,0-.094-.047l-.469.047H9.516q-.6,0-3.891-.234-2.941,0-3.75,2.109a.222.222,0,0,1-.234.188,3.67,3.67,0,0,0-.516-.047v-.047Q1.125-13.488,3.656-17.859Z" transform="translate(733 344)"/>
    <path id="패스_63" data-name="패스 63" d="M3.656-17.859q8.168.188,9.656.188v.8A21.8,21.8,0,0,0,9-10.828a23.705,23.705,0,0,0-2.344,8.3q0,1.406-.281,1.406Q4.676-.516,2.766,0V-.047q0-6.727,7.594-14.859v-.047q-.094,0-.094-.047l-.469.047H9.516q-.6,0-3.891-.234-2.941,0-3.75,2.109a.222.222,0,0,1-.234.188,3.67,3.67,0,0,0-.516-.047v-.047Q1.125-13.488,3.656-17.859Z" transform="translate(874 506) rotate(180)"/>
    <g id="그룹_22" data-name="그룹 22" transform="translate(758.3 463.078)">
      <path id="다각형_1-2" data-name="다각형 1" d="M22.5,0,30,13.158,22.5,26.316H7.5L0,13.158,7.5,0Z" transform="translate(27 0) rotate(90)" fill="#fff"/>
      <path id="패스_2-2" data-name="패스 2" d="M599.513,455.56l12.908-6.33V433.776l-12.908,7.235Z" transform="translate(-598.316 -433.337)" fill="#c2b9af"/>
      <path id="패스_3-2" data-name="패스 3" d="M612.105,433.836l12.446,7.565v14.392l-12.446-6.5Z" transform="translate(-598 -433.396)" fill="#69625a"/>
      <path id="패스_1-2" data-name="패스 1" d="M613.166,450.087c-.242.021-9.436-6.225-9.436-6.225V432.23l9.436-5,9.6,5v7.844s-9.327-2.816-9.334-5.557,0,4.456,0,4.456l12.882,6.759V429.894l-13.15-6.816-13.85,6.816v15.838l10.461,6.449v3.406a4.377,4.377,0,0,0,2.253,3.373c2.061.995-1.463-4.6,1.135-5.894s10.318-5.832,10.318-5.832l-2.829-1.9S613.408,450.067,613.166,450.087Z" transform="translate(-599.316 -423.078)"/>
    </g>
    <g id="그룹_23" data-name="그룹 23" transform="translate(758.3 407.078)">
      <path id="다각형_1-3" data-name="다각형 1" d="M22.5,0,30,13.158,22.5,26.316H7.5L0,13.158,7.5,0Z" transform="translate(27 0) rotate(90)" fill="#fff"/>
      <path id="패스_2-3" data-name="패스 2" d="M599.513,455.56l12.908-6.33V433.776l-12.908,7.235Z" transform="translate(-598.316 -433.337)" fill="#c2b9af"/>
      <path id="패스_3-3" data-name="패스 3" d="M612.105,433.836l12.446,7.565v14.392l-12.446-6.5Z" transform="translate(-598 -433.396)" fill="#69625a"/>
      <path id="패스_1-3" data-name="패스 1" d="M613.166,450.087c-.242.021-9.436-6.225-9.436-6.225V432.23l9.436-5,9.6,5v7.844s-9.327-2.816-9.334-5.557,0,4.456,0,4.456l12.882,6.759V429.894l-13.15-6.816-13.85,6.816v15.838l10.461,6.449v3.406a4.377,4.377,0,0,0,2.253,3.373c2.061.995-1.463-4.6,1.135-5.894s10.318-5.832,10.318-5.832l-2.829-1.9S613.408,450.067,613.166,450.087Z" transform="translate(-599.316 -423.078)"/>
    </g>
    <g id="그룹_24" data-name="그룹 24" transform="translate(150.984 46)">
      <path id="다각형_1-4" data-name="다각형 1" d="M22.5,0,30,13.158,22.5,26.316H7.5L0,13.158,7.5,0Z" transform="translate(696.316 311.078) rotate(90)" fill="#fff"/>
      <path id="패스_2-4" data-name="패스 2" d="M599.513,433.776l12.908,6.33V455.56l-12.908-7.235Z" transform="translate(71 -114.922)" fill="#c2b9af"/>
      <path id="패스_3-4" data-name="패스 3" d="M612.105,455.793l12.446-7.565V433.836l-12.446,6.5Z" transform="translate(71.316 -115.155)" fill="#69625a"/>
      <path id="패스_1-4" data-name="패스 1" d="M613.166,432.069c-.242-.021-9.436,6.225-9.436,6.225v11.633l9.436,5,9.6-5v-7.844s-9.327,2.816-9.334,5.557,0-4.456,0-4.456l12.882-6.759v15.838l-13.15,6.816-13.85-6.816V436.424l10.461-6.449v-3.406a4.377,4.377,0,0,1,2.253-3.373c2.061-.995-1.463,4.6,1.135,5.894s10.318,5.832,10.318,5.832l-2.829,1.9S613.408,432.089,613.166,432.069Z" transform="translate(70 -118)"/>
    </g>
    <g id="그룹_25" data-name="그룹 25" transform="translate(820.3 463.078)">
      <path id="다각형_1-5" data-name="다각형 1" d="M22.5,0,30,13.158,22.5,26.316H7.5L0,13.158,7.5,0Z" transform="translate(27 0) rotate(90)" fill="#fff"/>
      <path id="패스_2-5" data-name="패스 2" d="M599.513,455.56l12.908-6.33V433.776l-12.908,7.235Z" transform="translate(-598.316 -433.337)" fill="#c2b9af"/>
      <path id="패스_3-5" data-name="패스 3" d="M612.105,433.836l12.446,7.565v14.392l-12.446-6.5Z" transform="translate(-598 -433.396)" fill="#69625a"/>
      <path id="패스_1-5" data-name="패스 1" d="M613.166,450.087c-.242.021-9.436-6.225-9.436-6.225V432.23l9.436-5,9.6,5v7.844s-9.327-2.816-9.334-5.557,0,4.456,0,4.456l12.882,6.759V429.894l-13.15-6.816-13.85,6.816v15.838l10.461,6.449v3.406a4.377,4.377,0,0,0,2.253,3.373c2.061.995-1.463-4.6,1.135-5.894s10.318-5.832,10.318-5.832l-2.829-1.9S613.408,450.067,613.166,450.087Z" transform="translate(-599.316 -423.078)"/>
    </g>
    <g id="그룹_26" data-name="그룹 26" transform="translate(820.3 407.078)">
      <path id="다각형_1-6" data-name="다각형 1" d="M22.5,0,30,13.158,22.5,26.316H7.5L0,13.158,7.5,0Z" transform="translate(27 0) rotate(90)" fill="#fff"/>
      <path id="패스_2-6" data-name="패스 2" d="M599.513,455.56l12.908-6.33V433.776l-12.908,7.235Z" transform="translate(-598.316 -433.337)" fill="#c2b9af"/>
      <path id="패스_3-6" data-name="패스 3" d="M612.105,433.836l12.446,7.565v14.392l-12.446-6.5Z" transform="translate(-598 -433.396)" fill="#69625a"/>
      <path id="패스_1-6" data-name="패스 1" d="M613.166,450.087c-.242.021-9.436-6.225-9.436-6.225V432.23l9.436-5,9.6,5v7.844s-9.327-2.816-9.334-5.557,0,4.456,0,4.456l12.882,6.759V429.894l-13.15-6.816-13.85,6.816v15.838l10.461,6.449v3.406a4.377,4.377,0,0,0,2.253,3.373c2.061.995-1.463-4.6,1.135-5.894s10.318-5.832,10.318-5.832l-2.829-1.9S613.408,450.067,613.166,450.087Z" transform="translate(-599.316 -423.078)"/>
    </g>
    <g id="그룹_27" data-name="그룹 27" transform="translate(119.984 70)">
      <path id="다각형_1-7" data-name="다각형 1" d="M22.5,0,30,13.158,22.5,26.316H7.5L0,13.158,7.5,0Z" transform="translate(696.316 311.078) rotate(90)" fill="#fff"/>
      <path id="패스_2-7" data-name="패스 2" d="M599.513,433.776l12.908,6.33V455.56l-12.908-7.235Z" transform="translate(71 -114.922)" fill="#c2b9af"/>
      <path id="패스_3-7" data-name="패스 3" d="M612.105,455.793l12.446-7.565V433.836l-12.446,6.5Z" transform="translate(71.316 -115.155)" fill="#69625a"/>
      <path id="패스_1-7" data-name="패스 1" d="M613.166,432.069c-.242-.021-9.436,6.225-9.436,6.225v11.633l9.436,5,9.6-5v-7.844s-9.327,2.816-9.334,5.557,0-4.456,0-4.456l12.882-6.759v15.838l-13.15,6.816-13.85-6.816V436.424l10.461-6.449v-3.406a4.377,4.377,0,0,1,2.253-3.373c2.061-.995-1.463,4.6,1.135,5.894s10.318,5.832,10.318,5.832l-2.829,1.9S613.408,432.089,613.166,432.069Z" transform="translate(70 -118)"/>
    </g>
  </g>
</svg>
