<svg xmlns="http://www.w3.org/2000/svg" width="50" height="80" viewBox="0 0 50 80">
  <defs>
    <style>
      .cls-1 {
        fill: #fff;
      }
    </style>
  </defs>
  <g id="_8" data-name="8" transform="translate(-401 178)">
    <rect id="사각형_8" data-name="사각형 8" width="50" height="80" transform="translate(401 -178)"/>
    <path id="패스_5" data-name="패스 5" class="cls-1" d="M28.712-18.278a12.3,12.3,0,0,1-1.7,6.364Q24.42-7.7,18.426-5.7A13.552,13.552,0,0,0,13.468-2.96,8.923,8.923,0,0,0,11.692.074a10.362,10.362,0,0,1-2.96-1.48,19.777,19.777,0,0,1-5.7-4.81,12.964,12.964,0,0,1-3.108-8.14,12.986,12.986,0,0,1,3.922-9.916A15.771,15.771,0,0,1,7.7-26.714a12.083,12.083,0,0,1-2.96-2.294A12.115,12.115,0,0,1,1.7-37.37q0-4.884,1.924-7.511t6.956-4.329A14.312,14.312,0,0,0,16.8-52.762l1.48-2.22a17.03,17.03,0,0,1,2.664,1.628,17.349,17.349,0,0,1,2.627,2.183,21.694,21.694,0,0,1,2.257,2.627,13.706,13.706,0,0,1,2.738,8.066q0,6.068-3.33,8.732a9.854,9.854,0,0,1-3.4,1.48l1.221.555a3.831,3.831,0,0,1,.851.555Q28.712-25.9,28.712-18.278ZM20.2-41.81a14.939,14.939,0,0,0-3.256-4.958,5.915,5.915,0,0,0-4.07-2.072,3.922,3.922,0,0,0-1.924.592Q9.1-46.842,9.1-42.7q0,1.332.074,2.072a23.548,23.548,0,0,0,.555,2.7,7.6,7.6,0,0,0,1.813,3.4,7.919,7.919,0,0,0,3.182,2.109l3.7,1.184,1.628.592.518-1.85q.222-1.11.37-2.22a16.779,16.779,0,0,0,.148-2.22,9.849,9.849,0,0,0-.222-2.516A7.228,7.228,0,0,0,20.2-41.81Zm-.814,27.454.148-1.11v-.888q0-6.142-5.106-7.474a15.556,15.556,0,0,1-4.292-1.554l-.518-.37L9.176-22.57a59.072,59.072,0,0,0-.444,6.364l.074,2.442A8.453,8.453,0,0,0,9.287-11.8a7.716,7.716,0,0,0,1.147,1.887,12.737,12.737,0,0,0,2,2,5.81,5.81,0,0,0,4.144,1.48q1.924-.37,2.368-3.256Z" transform="translate(411 -113)"/>
  </g>
</svg>
