<svg xmlns="http://www.w3.org/2000/svg" width="155" height="220" viewBox="0 0 155 220">
  <g id="_8bcard" data-name="8bcard" transform="translate(-725 -315)">
    <path id="패스_83" data-name="패스 83" d="M8,0H147a8,8,0,0,1,8,8V212a8,8,0,0,1-8,8H8a8,8,0,0,1-8-8V8A8,8,0,0,1,8,0Z" transform="translate(725 315)"/>
    <g id="그룹_1" data-name="그룹 1" transform="translate(88.984 46)">
      <path id="다각형_1" data-name="다각형 1" d="M22.5,0,30,13.158,22.5,26.316H7.5L0,13.158,7.5,0Z" transform="translate(696.316 311.078) rotate(90)"/>
      <path id="패스_2" data-name="패스 2" d="M599.513,433.776l12.908,6.33V455.56l-12.908-7.235Z" transform="translate(71 -114.922)" fill="#69625a"/>
      <path id="패스_3" data-name="패스 3" d="M612.105,455.793l12.446-7.565V433.836l-12.446,6.5Z" transform="translate(71.316 -115.155)" fill="#9e978f"/>
      <path id="패스_1" data-name="패스 1" d="M613.166,432.069c-.242-.021-9.436,6.225-9.436,6.225v11.633l9.436,5,9.6-5v-7.844s-9.327,2.816-9.334,5.557,0-4.456,0-4.456l12.882-6.759v15.838l-13.15,6.816-13.85-6.816V436.424l10.461-6.449v-3.406a4.377,4.377,0,0,1,2.253-3.373c2.061-.995-1.463,4.6,1.135,5.894s10.318,5.832,10.318,5.832l-2.829,1.9S613.408,432.089,613.166,432.069Z" transform="translate(70 -118)" fill="#fff"/>
    </g>
    <path id="패스_84" data-name="패스 84" d="M6.621-18.094q3.938,0,5.156,2.344a3.56,3.56,0,0,1,.281,1.172A4.509,4.509,0,0,1,10.043-11.2a.428.428,0,0,1-.234.141v.047a8.543,8.543,0,0,1,2.109,1.781,2.874,2.874,0,0,1,.75,1.875v1.172q0,2.426-4.219,5.391A3.469,3.469,0,0,1,7.184,0H5.965A5.811,5.811,0,0,1,1.652-1.922,3.19,3.19,0,0,1,.9-3.844v-.469q0-1.77,2.344-4.078Q1.23-9.5,1.23-10.875v-.516q0-2.918,4.219-6.656Q5.625-18.047,6.621-18.094Zm-3.375,4.5a1.8,1.8,0,0,0,1.031,1.781q.316.328,3.7.469,0,.059.609.141a2.791,2.791,0,0,0,1.266-1.969V-13.5q0-.926-1.641-1.5A14.352,14.352,0,0,0,5.5-15.281q-1.781,0-1.781.281A2.966,2.966,0,0,0,3.246-13.594ZM4.324-8.109a3.589,3.589,0,0,0-1.312,2.25,2.418,2.418,0,0,0,1.547,2.2,7.284,7.284,0,0,0,3.141.75H7.84q2.7,0,3.422-1.875l.047-.328q0-1.184-1.781-2.2a14.284,14.284,0,0,0-4.219-.656Z" transform="translate(733 344)" fill="#fff"/>
    <path id="패스_85" data-name="패스 85" d="M6.621-18.094q3.938,0,5.156,2.344a3.56,3.56,0,0,1,.281,1.172A4.509,4.509,0,0,1,10.043-11.2a.428.428,0,0,1-.234.141v.047a8.543,8.543,0,0,1,2.109,1.781,2.874,2.874,0,0,1,.75,1.875v1.172q0,2.426-4.219,5.391A3.469,3.469,0,0,1,7.184,0H5.965A5.811,5.811,0,0,1,1.652-1.922,3.19,3.19,0,0,1,.9-3.844v-.469q0-1.77,2.344-4.078Q1.23-9.5,1.23-10.875v-.516q0-2.918,4.219-6.656Q5.625-18.047,6.621-18.094Zm-3.375,4.5a1.8,1.8,0,0,0,1.031,1.781q.316.328,3.7.469,0,.059.609.141a2.791,2.791,0,0,0,1.266-1.969V-13.5q0-.926-1.641-1.5A14.352,14.352,0,0,0,5.5-15.281q-1.781,0-1.781.281A2.966,2.966,0,0,0,3.246-13.594ZM4.324-8.109a3.589,3.589,0,0,0-1.312,2.25,2.418,2.418,0,0,0,1.547,2.2,7.284,7.284,0,0,0,3.141.75H7.84q2.7,0,3.422-1.875l.047-.328q0-1.184-1.781-2.2a14.284,14.284,0,0,0-4.219-.656Z" transform="translate(874 506) rotate(180)" fill="#fff"/>
    <g id="그룹_52" data-name="그룹 52" transform="translate(150.984 46)">
      <path id="다각형_1-2" data-name="다각형 1" d="M22.5,0,30,13.158,22.5,26.316H7.5L0,13.158,7.5,0Z" transform="translate(696.316 311.078) rotate(90)"/>
      <path id="패스_2-2" data-name="패스 2" d="M599.513,433.776l12.908,6.33V455.56l-12.908-7.235Z" transform="translate(71 -114.922)" fill="#69625a"/>
      <path id="패스_3-2" data-name="패스 3" d="M612.105,455.793l12.446-7.565V433.836l-12.446,6.5Z" transform="translate(71.316 -115.155)" fill="#9e978f"/>
      <path id="패스_1-2" data-name="패스 1" d="M613.166,432.069c-.242-.021-9.436,6.225-9.436,6.225v11.633l9.436,5,9.6-5v-7.844s-9.327,2.816-9.334,5.557,0-4.456,0-4.456l12.882-6.759v15.838l-13.15,6.816-13.85-6.816V436.424l10.461-6.449v-3.406a4.377,4.377,0,0,1,2.253-3.373c2.061-.995-1.463,4.6,1.135,5.894s10.318,5.832,10.318,5.832l-2.829,1.9S613.408,432.089,613.166,432.069Z" transform="translate(70 -118)" fill="#fff"/>
    </g>
    <g id="그룹_53" data-name="그룹 53" transform="translate(820.3 407.078)">
      <path id="다각형_1-3" data-name="다각형 1" d="M22.5,0,30,13.158,22.5,26.316H7.5L0,13.158,7.5,0Z" transform="translate(0 30) rotate(-90)"/>
      <path id="패스_2-3" data-name="패스 2" d="M612.421,455.56l-12.908-6.33V433.776l12.908,7.235Z" transform="translate(-586.618 -433.337)" fill="#69625a"/>
      <path id="패스_3-3" data-name="패스 3" d="M624.551,433.836,612.105,441.4v14.392l12.446-6.5Z" transform="translate(-611.656 -433.396)" fill="#9e978f"/>
      <path id="패스_1-3" data-name="패스 1" d="M612.466,450.087c.242.021,9.436-6.225,9.436-6.225V432.23l-9.436-5-9.6,5v7.844s9.327-2.816,9.334-5.557,0,4.456,0,4.456l-12.882,6.759V429.894l13.15-6.816,13.85,6.816v15.838l-10.461,6.449v3.406a4.377,4.377,0,0,1-2.253,3.373c-2.061.995,1.463-4.6-1.135-5.894s-10.318-5.832-10.318-5.832l2.829-1.9S612.224,450.067,612.466,450.087Z" transform="translate(-599.316 -423.078)" fill="#fff"/>
    </g>
    <g id="그룹_54" data-name="그룹 54" transform="translate(758.3 407.078)">
      <path id="다각형_1-4" data-name="다각형 1" d="M22.5,0,30,13.158,22.5,26.316H7.5L0,13.158,7.5,0Z" transform="translate(0 30) rotate(-90)"/>
      <path id="패스_2-4" data-name="패스 2" d="M612.421,455.56l-12.908-6.33V433.776l12.908,7.235Z" transform="translate(-586.618 -433.337)" fill="#69625a"/>
      <path id="패스_3-4" data-name="패스 3" d="M624.551,433.836,612.105,441.4v14.392l12.446-6.5Z" transform="translate(-611.656 -433.396)" fill="#9e978f"/>
      <path id="패스_1-4" data-name="패스 1" d="M612.466,450.087c.242.021,9.436-6.225,9.436-6.225V432.23l-9.436-5-9.6,5v7.844s9.327-2.816,9.334-5.557,0,4.456,0,4.456l-12.882,6.759V429.894l13.15-6.816,13.85,6.816v15.838l-10.461,6.449v3.406a4.377,4.377,0,0,1-2.253,3.373c-2.061.995,1.463-4.6-1.135-5.894s-10.318-5.832-10.318-5.832l2.829-1.9S612.224,450.067,612.466,450.087Z" transform="translate(-599.316 -423.078)" fill="#fff"/>
    </g>
    <g id="그룹_55" data-name="그룹 55" transform="translate(820.3 463.078)">
      <path id="다각형_1-5" data-name="다각형 1" d="M22.5,0,30,13.158,22.5,26.316H7.5L0,13.158,7.5,0Z" transform="translate(0 30) rotate(-90)"/>
      <path id="패스_2-5" data-name="패스 2" d="M612.421,455.56l-12.908-6.33V433.776l12.908,7.235Z" transform="translate(-586.618 -433.337)" fill="#69625a"/>
      <path id="패스_3-5" data-name="패스 3" d="M624.551,433.836,612.105,441.4v14.392l12.446-6.5Z" transform="translate(-611.656 -433.396)" fill="#9e978f"/>
      <path id="패스_1-5" data-name="패스 1" d="M612.466,450.087c.242.021,9.436-6.225,9.436-6.225V432.23l-9.436-5-9.6,5v7.844s9.327-2.816,9.334-5.557,0,4.456,0,4.456l-12.882,6.759V429.894l13.15-6.816,13.85,6.816v15.838l-10.461,6.449v3.406a4.377,4.377,0,0,1-2.253,3.373c-2.061.995,1.463-4.6-1.135-5.894s-10.318-5.832-10.318-5.832l2.829-1.9S612.224,450.067,612.466,450.087Z" transform="translate(-599.316 -423.078)" fill="#fff"/>
    </g>
    <g id="그룹_56" data-name="그룹 56" transform="translate(758.3 463.078)">
      <path id="다각형_1-6" data-name="다각형 1" d="M22.5,0,30,13.158,22.5,26.316H7.5L0,13.158,7.5,0Z" transform="translate(0 30) rotate(-90)"/>
      <path id="패스_2-6" data-name="패스 2" d="M612.421,455.56l-12.908-6.33V433.776l12.908,7.235Z" transform="translate(-586.618 -433.337)" fill="#69625a"/>
      <path id="패스_3-6" data-name="패스 3" d="M624.551,433.836,612.105,441.4v14.392l12.446-6.5Z" transform="translate(-611.656 -433.396)" fill="#9e978f"/>
      <path id="패스_1-6" data-name="패스 1" d="M612.466,450.087c.242.021,9.436-6.225,9.436-6.225V432.23l-9.436-5-9.6,5v7.844s9.327-2.816,9.334-5.557,0,4.456,0,4.456l-12.882,6.759V429.894l13.15-6.816,13.85,6.816v15.838l-10.461,6.449v3.406a4.377,4.377,0,0,1-2.253,3.373c-2.061.995,1.463-4.6-1.135-5.894s-10.318-5.832-10.318-5.832l2.829-1.9S612.224,450.067,612.466,450.087Z" transform="translate(-599.316 -423.078)" fill="#fff"/>
    </g>
    <g id="그룹_57" data-name="그룹 57" transform="translate(119.984 70)">
      <path id="다각형_1-7" data-name="다각형 1" d="M22.5,0,30,13.158,22.5,26.316H7.5L0,13.158,7.5,0Z" transform="translate(696.316 311.078) rotate(90)"/>
      <path id="패스_2-7" data-name="패스 2" d="M599.513,433.776l12.908,6.33V455.56l-12.908-7.235Z" transform="translate(71 -114.922)" fill="#69625a"/>
      <path id="패스_3-7" data-name="패스 3" d="M612.105,455.793l12.446-7.565V433.836l-12.446,6.5Z" transform="translate(71.316 -115.155)" fill="#9e978f"/>
      <path id="패스_1-7" data-name="패스 1" d="M613.166,432.069c-.242-.021-9.436,6.225-9.436,6.225v11.633l9.436,5,9.6-5v-7.844s-9.327,2.816-9.334,5.557,0-4.456,0-4.456l12.882-6.759v15.838l-13.15,6.816-13.85-6.816V436.424l10.461-6.449v-3.406a4.377,4.377,0,0,1,2.253-3.373c2.061-.995-1.463,4.6,1.135,5.894s10.318,5.832,10.318,5.832l-2.829,1.9S613.408,432.089,613.166,432.069Z" transform="translate(70 -118)" fill="#fff"/>
    </g>
    <g id="그룹_58" data-name="그룹 58" transform="translate(789.3 436.078)">
      <path id="다각형_1-8" data-name="다각형 1" d="M22.5,0,30,13.158,22.5,26.316H7.5L0,13.158,7.5,0Z" transform="translate(0 30) rotate(-90)"/>
      <path id="패스_2-8" data-name="패스 2" d="M612.421,455.56l-12.908-6.33V433.776l12.908,7.235Z" transform="translate(-586.618 -433.337)" fill="#69625a"/>
      <path id="패스_3-8" data-name="패스 3" d="M624.551,433.836,612.105,441.4v14.392l12.446-6.5Z" transform="translate(-611.656 -433.396)" fill="#9e978f"/>
      <path id="패스_1-8" data-name="패스 1" d="M612.466,450.087c.242.021,9.436-6.225,9.436-6.225V432.23l-9.436-5-9.6,5v7.844s9.327-2.816,9.334-5.557,0,4.456,0,4.456l-12.882,6.759V429.894l13.15-6.816,13.85,6.816v15.838l-10.461,6.449v3.406a4.377,4.377,0,0,1-2.253,3.373c-2.061.995,1.463-4.6-1.135-5.894s-10.318-5.832-10.318-5.832l2.829-1.9S612.224,450.067,612.466,450.087Z" transform="translate(-599.316 -423.078)" fill="#fff"/>
    </g>
  </g>
</svg>
