<svg xmlns="http://www.w3.org/2000/svg" width="155" height="220" viewBox="0 0 155 220">
  <g id="_9card" data-name="9card" transform="translate(-725 -315)">
    <rect id="사각형_1" data-name="사각형 1" width="155" height="220" rx="8" transform="translate(725 315)" fill="#fff"/>
    <g id="그룹_1" data-name="그룹 1" transform="translate(88 33)">
      <path id="다각형_1" data-name="다각형 1" d="M22.5,0,30,13.158,22.5,26.316H7.5L0,13.158,7.5,0Z" transform="translate(696.316 311.078) rotate(90)" fill="#fff"/>
      <path id="패스_2" data-name="패스 2" d="M599.513,433.776l12.908,6.33V455.56l-12.908-7.235Z" transform="translate(71 -114.922)" fill="#c2b9af"/>
      <path id="패스_3" data-name="패스 3" d="M612.105,455.793l12.446-7.565V433.836l-12.446,6.5Z" transform="translate(71.316 -115.155)" fill="#69625a"/>
      <path id="패스_1" data-name="패스 1" d="M613.166,432.069c-.242-.021-9.436,6.225-9.436,6.225v11.633l9.436,5,9.6-5v-7.844s-9.327,2.816-9.334,5.557,0-4.456,0-4.456l12.882-6.759v15.838l-13.15,6.816-13.85-6.816V436.424l10.461-6.449v-3.406a4.377,4.377,0,0,1,2.253-3.373c2.061-.995-1.463,4.6,1.135,5.894s10.318,5.832,10.318,5.832l-2.829,1.9S613.408,432.089,613.166,432.069Z" transform="translate(70 -118)"/>
    </g>
    <path id="패스_67" data-name="패스 67" d="M6.762-17.953a8.015,8.015,0,0,1,3.75,2.25,6.523,6.523,0,0,1,1.453,1.922,7.326,7.326,0,0,1,.75,2.906v1.828a9.491,9.491,0,0,1-1.5,4.5A15.786,15.786,0,0,1,8.777-1.781,10.137,10.137,0,0,1,6.387,0,39.708,39.708,0,0,1,1.746-2.437a13.944,13.944,0,0,1,1.828-2.3q4.395,2.3,4.453,2.3a10.85,10.85,0,0,0,2.016-5.906Q10-8.906,10-9.187,6.516-7.16,4.512-5.906A5.4,5.4,0,0,1,1.559-8.3,5.341,5.341,0,0,1,.9-10.734a6.294,6.294,0,0,1,1.5-3.891,15.163,15.163,0,0,1,3.75-2.953ZM4.652-15.422A3.742,3.742,0,0,0,3.34-12.656v.469q0,1.652,2.625,3.516a4.947,4.947,0,0,0,.8.328A22.772,22.772,0,0,1,9.152-9.7a3.231,3.231,0,0,1,.7-.516A5.849,5.849,0,0,0,8.73-12.75a7.3,7.3,0,0,0-2.25-1.969A6.47,6.47,0,0,0,4.652-15.422Z" transform="translate(733 344)"/>
    <path id="패스_48" data-name="패스 48" d="M6.762-17.953a8.015,8.015,0,0,1,3.75,2.25,6.523,6.523,0,0,1,1.453,1.922,7.326,7.326,0,0,1,.75,2.906v1.828a9.491,9.491,0,0,1-1.5,4.5A15.786,15.786,0,0,1,8.777-1.781,10.137,10.137,0,0,1,6.387,0,39.708,39.708,0,0,1,1.746-2.437a13.944,13.944,0,0,1,1.828-2.3q4.395,2.3,4.453,2.3a10.85,10.85,0,0,0,2.016-5.906Q10-8.906,10-9.187,6.516-7.16,4.512-5.906A5.4,5.4,0,0,1,1.559-8.3,5.341,5.341,0,0,1,.9-10.734a6.294,6.294,0,0,1,1.5-3.891,15.163,15.163,0,0,1,3.75-2.953ZM4.652-15.422A3.742,3.742,0,0,0,3.34-12.656v.469q0,1.652,2.625,3.516a4.947,4.947,0,0,0,.8.328A22.772,22.772,0,0,1,9.152-9.7a3.231,3.231,0,0,1,.7-.516A5.849,5.849,0,0,0,8.73-12.75a7.3,7.3,0,0,0-2.25-1.969A6.47,6.47,0,0,0,4.652-15.422Z" transform="translate(872 506) rotate(180)"/>
    <g id="그룹_29" data-name="그룹 29" transform="translate(88 79)">
      <path id="다각형_1-2" data-name="다각형 1" d="M22.5,0,30,13.158,22.5,26.316H7.5L0,13.158,7.5,0Z" transform="translate(696.316 311.078) rotate(90)" fill="#fff"/>
      <path id="패스_2-2" data-name="패스 2" d="M599.513,433.776l12.908,6.33V455.56l-12.908-7.235Z" transform="translate(71 -114.922)" fill="#c2b9af"/>
      <path id="패스_3-2" data-name="패스 3" d="M612.105,455.793l12.446-7.565V433.836l-12.446,6.5Z" transform="translate(71.316 -115.155)" fill="#69625a"/>
      <path id="패스_1-2" data-name="패스 1" d="M613.166,432.069c-.242-.021-9.436,6.225-9.436,6.225v11.633l9.436,5,9.6-5v-7.844s-9.327,2.816-9.334,5.557,0-4.456,0-4.456l12.882-6.759v15.838l-13.15,6.816-13.85-6.816V436.424l10.461-6.449v-3.406a4.377,4.377,0,0,1,2.253-3.373c2.061-.995-1.463,4.6,1.135,5.894s10.318,5.832,10.318,5.832l-2.829,1.9S613.408,432.089,613.166,432.069Z" transform="translate(70 -118)"/>
    </g>
    <g id="그룹_30" data-name="그룹 30" transform="translate(822.316 476.078)">
      <path id="다각형_1-3" data-name="다각형 1" d="M22.5,0,30,13.158,22.5,26.316H7.5L0,13.158,7.5,0Z" transform="translate(0 30) rotate(-90)" fill="#fff"/>
      <path id="패스_2-3" data-name="패스 2" d="M612.421,455.56l-12.908-6.33V433.776l12.908,7.235Z" transform="translate(-586.618 -433.337)" fill="#c2b9af"/>
      <path id="패스_3-3" data-name="패스 3" d="M624.551,433.836,612.105,441.4v14.392l12.446-6.5Z" transform="translate(-611.656 -433.396)" fill="#69625a"/>
      <path id="패스_1-3" data-name="패스 1" d="M612.466,450.087c.242.021,9.436-6.225,9.436-6.225V432.23l-9.436-5-9.6,5v7.844s9.327-2.816,9.334-5.557,0,4.456,0,4.456l-12.882,6.759V429.894l13.15-6.816,13.85,6.816v15.838l-10.461,6.449v3.406a4.377,4.377,0,0,1-2.253,3.373c-2.061.995,1.463-4.6-1.135-5.894s-10.318-5.832-10.318-5.832l2.829-1.9S612.224,450.067,612.466,450.087Z" transform="translate(-599.316 -423.078)"/>
    </g>
    <g id="그룹_31" data-name="그룹 31" transform="translate(822.316 430.078)">
      <path id="다각형_1-4" data-name="다각형 1" d="M22.5,0,30,13.158,22.5,26.316H7.5L0,13.158,7.5,0Z" transform="translate(0 30) rotate(-90)" fill="#fff"/>
      <path id="패스_2-4" data-name="패스 2" d="M612.421,455.56l-12.908-6.33V433.776l12.908,7.235Z" transform="translate(-586.618 -433.337)" fill="#c2b9af"/>
      <path id="패스_3-4" data-name="패스 3" d="M624.551,433.836,612.105,441.4v14.392l12.446-6.5Z" transform="translate(-611.656 -433.396)" fill="#69625a"/>
      <path id="패스_1-4" data-name="패스 1" d="M612.466,450.087c.242.021,9.436-6.225,9.436-6.225V432.23l-9.436-5-9.6,5v7.844s9.327-2.816,9.334-5.557,0,4.456,0,4.456l-12.882,6.759V429.894l13.15-6.816,13.85,6.816v15.838l-10.461,6.449v3.406a4.377,4.377,0,0,1-2.253,3.373c-2.061.995,1.463-4.6-1.135-5.894s-10.318-5.832-10.318-5.832l2.829-1.9S612.224,450.067,612.466,450.087Z" transform="translate(-599.316 -423.078)"/>
    </g>
    <g id="그룹_32" data-name="그룹 32" transform="translate(153 33)">
      <path id="다각형_1-5" data-name="다각형 1" d="M22.5,0,30,13.158,22.5,26.316H7.5L0,13.158,7.5,0Z" transform="translate(696.316 311.078) rotate(90)" fill="#fff"/>
      <path id="패스_2-5" data-name="패스 2" d="M599.513,433.776l12.908,6.33V455.56l-12.908-7.235Z" transform="translate(71 -114.922)" fill="#c2b9af"/>
      <path id="패스_3-5" data-name="패스 3" d="M612.105,455.793l12.446-7.565V433.836l-12.446,6.5Z" transform="translate(71.316 -115.155)" fill="#69625a"/>
      <path id="패스_1-5" data-name="패스 1" d="M613.166,432.069c-.242-.021-9.436,6.225-9.436,6.225v11.633l9.436,5,9.6-5v-7.844s-9.327,2.816-9.334,5.557,0-4.456,0-4.456l12.882-6.759v15.838l-13.15,6.816-13.85-6.816V436.424l10.461-6.449v-3.406a4.377,4.377,0,0,1,2.253-3.373c2.061-.995-1.463,4.6,1.135,5.894s10.318,5.832,10.318,5.832l-2.829,1.9S613.408,432.089,613.166,432.069Z" transform="translate(70 -118)"/>
    </g>
    <g id="그룹_33" data-name="그룹 33" transform="translate(153 79)">
      <path id="다각형_1-6" data-name="다각형 1" d="M22.5,0,30,13.158,22.5,26.316H7.5L0,13.158,7.5,0Z" transform="translate(696.316 311.078) rotate(90)" fill="#fff"/>
      <path id="패스_2-6" data-name="패스 2" d="M599.513,433.776l12.908,6.33V455.56l-12.908-7.235Z" transform="translate(71 -114.922)" fill="#c2b9af"/>
      <path id="패스_3-6" data-name="패스 3" d="M612.105,455.793l12.446-7.565V433.836l-12.446,6.5Z" transform="translate(71.316 -115.155)" fill="#69625a"/>
      <path id="패스_1-6" data-name="패스 1" d="M613.166,432.069c-.242-.021-9.436,6.225-9.436,6.225v11.633l9.436,5,9.6-5v-7.844s-9.327,2.816-9.334,5.557,0-4.456,0-4.456l12.882-6.759v15.838l-13.15,6.816-13.85-6.816V436.424l10.461-6.449v-3.406a4.377,4.377,0,0,1,2.253-3.373c2.061-.995-1.463,4.6,1.135,5.894s10.318,5.832,10.318,5.832l-2.829,1.9S613.408,432.089,613.166,432.069Z" transform="translate(70 -118)"/>
    </g>
    <g id="그룹_34" data-name="그룹 34" transform="translate(757.316 476.078)">
      <path id="다각형_1-7" data-name="다각형 1" d="M22.5,0,30,13.158,22.5,26.316H7.5L0,13.158,7.5,0Z" transform="translate(0 30) rotate(-90)" fill="#fff"/>
      <path id="패스_2-7" data-name="패스 2" d="M612.421,455.56l-12.908-6.33V433.776l12.908,7.235Z" transform="translate(-586.618 -433.337)" fill="#c2b9af"/>
      <path id="패스_3-7" data-name="패스 3" d="M624.551,433.836,612.105,441.4v14.392l12.446-6.5Z" transform="translate(-611.656 -433.396)" fill="#69625a"/>
      <path id="패스_1-7" data-name="패스 1" d="M612.466,450.087c.242.021,9.436-6.225,9.436-6.225V432.23l-9.436-5-9.6,5v7.844s9.327-2.816,9.334-5.557,0,4.456,0,4.456l-12.882,6.759V429.894l13.15-6.816,13.85,6.816v15.838l-10.461,6.449v3.406a4.377,4.377,0,0,1-2.253,3.373c-2.061.995,1.463-4.6-1.135-5.894s-10.318-5.832-10.318-5.832l2.829-1.9S612.224,450.067,612.466,450.087Z" transform="translate(-599.316 -423.078)"/>
    </g>
    <g id="그룹_35" data-name="그룹 35" transform="translate(757.316 430.078)">
      <path id="다각형_1-8" data-name="다각형 1" d="M22.5,0,30,13.158,22.5,26.316H7.5L0,13.158,7.5,0Z" transform="translate(0 30) rotate(-90)" fill="#fff"/>
      <path id="패스_2-8" data-name="패스 2" d="M612.421,455.56l-12.908-6.33V433.776l12.908,7.235Z" transform="translate(-586.618 -433.337)" fill="#c2b9af"/>
      <path id="패스_3-8" data-name="패스 3" d="M624.551,433.836,612.105,441.4v14.392l12.446-6.5Z" transform="translate(-611.656 -433.396)" fill="#69625a"/>
      <path id="패스_1-8" data-name="패스 1" d="M612.466,450.087c.242.021,9.436-6.225,9.436-6.225V432.23l-9.436-5-9.6,5v7.844s9.327-2.816,9.334-5.557,0,4.456,0,4.456l-12.882,6.759V429.894l13.15-6.816,13.85,6.816v15.838l-10.461,6.449v3.406a4.377,4.377,0,0,1-2.253,3.373c-2.061.995,1.463-4.6-1.135-5.894s-10.318-5.832-10.318-5.832l2.829-1.9S612.224,450.067,612.466,450.087Z" transform="translate(-599.316 -423.078)"/>
    </g>
    <g id="그룹_36" data-name="그룹 36" transform="translate(790.316 407.078)">
      <path id="다각형_1-9" data-name="다각형 1" d="M22.5,0,30,13.158,22.5,26.316H7.5L0,13.158,7.5,0Z" transform="translate(0 30) rotate(-90)" fill="#fff"/>
      <path id="패스_2-9" data-name="패스 2" d="M612.421,455.56l-12.908-6.33V433.776l12.908,7.235Z" transform="translate(-586.618 -433.337)" fill="#c2b9af"/>
      <path id="패스_3-9" data-name="패스 3" d="M624.551,433.836,612.105,441.4v14.392l12.446-6.5Z" transform="translate(-611.656 -433.396)" fill="#69625a"/>
      <path id="패스_1-9" data-name="패스 1" d="M612.466,450.087c.242.021,9.436-6.225,9.436-6.225V432.23l-9.436-5-9.6,5v7.844s9.327-2.816,9.334-5.557,0,4.456,0,4.456l-12.882,6.759V429.894l13.15-6.816,13.85,6.816v15.838l-10.461,6.449v3.406a4.377,4.377,0,0,1-2.253,3.373c-2.061.995,1.463-4.6-1.135-5.894s-10.318-5.832-10.318-5.832l2.829-1.9S612.224,450.067,612.466,450.087Z" transform="translate(-599.316 -423.078)"/>
    </g>
  </g>
</svg>
