<svg xmlns="http://www.w3.org/2000/svg" width="150" height="150" viewBox="0 0 150 150">
  <g id="brank" transform="translate(-227 -336)">
    <g id="BlackRank" transform="translate(-62 198)">
      <path id="흑" d="M-3900,1393l0,0-40-50-40,50V1273h80v120Z" transform="translate(4304 -1133)"/>
      <path id="패스_12" data-name="패스 12" d="M14.736-3.168a6.533,6.533,0,0,0-.7.036q-.336.036-.78.12a5.96,5.96,0,0,0-.936.264q-.492.18-1,.42A3.186,3.186,0,0,0,9.912-.936L9.456,0,5.928-.888a1.829,1.829,0,0,1-.672.864A6.943,6.943,0,0,1,4.572.42L3.984.768A3.5,3.5,0,0,1,2.4,1.1,3.088,3.088,0,0,1,.768.7,1.658,1.658,0,0,1,.024-.768v-.24a3.96,3.96,0,0,1,1.02-2.208A2.923,2.923,0,0,1,3.336-4.2l.432.024a16.091,16.091,0,0,1,2.544.432,3.838,3.838,0,0,1,.4.1A5.086,5.086,0,0,1,7.2-3.48l.12-.168a1.306,1.306,0,0,0,.12-.48,1.11,1.11,0,0,0-.1-.456,1.6,1.6,0,0,0-.336-.456,4.164,4.164,0,0,0-.432-.384,3.507,3.507,0,0,0-.384-.252,1.812,1.812,0,0,0-.348-.156,1.019,1.019,0,0,0-.3-.048l-.216.072L4.9-5.736l-.528.048H4.1l-.1-.024-.072-.1a1.356,1.356,0,0,1-.192-.576l.024-.24A1.824,1.824,0,0,1,4.1-7.392l.24-.288L3.7-7.512a1.062,1.062,0,0,0-.648.984A2.44,2.44,0,0,0,3.408-5.3l.36.48a4.387,4.387,0,0,1-1.056-.432A1.923,1.923,0,0,1,1.656-6.984,3,3,0,0,1,2.832-9.456a2.965,2.965,0,0,1,.492-.288,5.668,5.668,0,0,1,.66-.264q.048-.216.06-.324a1.03,1.03,0,0,1,.084-.276A4.673,4.673,0,0,1,6.48-13.032a16.891,16.891,0,0,0,1.944-1.152l.444-.348a3.394,3.394,0,0,0,.348-.348l-1.176.216q-.624.072-1.488.144t-1.416.072a8,8,0,0,0-2.964.42,1.473,1.473,0,0,0-1,1.452,1.549,1.549,0,0,0,.432,1.248,1.225,1.225,0,0,0,.84.24,1.817,1.817,0,0,0,.672-.144l.264-.168a.5.5,0,0,1-.144.288.88.88,0,0,1-.72.264A2.383,2.383,0,0,1,1.008-11.4a2.467,2.467,0,0,1-.984-2.088V-13.9A3.541,3.541,0,0,1,1.44-16.44a3.821,3.821,0,0,1,2.4-.816,6.643,6.643,0,0,1,2.424.78A6.873,6.873,0,0,0,8.5-15.7a.614.614,0,0,0,.5-.24,3.374,3.374,0,0,0,.408-1.1q.144-.7.648-.7l.192.072a.42.42,0,0,1,.12.216l-.12.408-.192.552-.432,1.32.336-.024a1.766,1.766,0,0,0,.768-.288,2.328,2.328,0,0,0,.528-.648l.144-.24a2.141,2.141,0,0,1,.744.24,3.959,3.959,0,0,1,1.4.96,5.368,5.368,0,0,1,.624.78,3.072,3.072,0,0,1,.216.6,3.748,3.748,0,0,1,.108.972,3.88,3.88,0,0,1-1.3,3.048,6.086,6.086,0,0,1-1.32.744l.792.072a5.172,5.172,0,0,1,1.7.648,1.461,1.461,0,0,1,.456.852,6.791,6.791,0,0,1,.144,1.524q0,.7-.024,1.08t-.144,1.176Zm-3.264-8.3a13.275,13.275,0,0,0-.048-1.392,1.41,1.41,0,0,0-.288-.7,1.359,1.359,0,0,0-.6-.288l-.72-.12-.312.024v4.368q.12.192.576.192a1.7,1.7,0,0,0,.54-.084,1.309,1.309,0,0,0,.456-.264,1.049,1.049,0,0,0,.3-.492A5.147,5.147,0,0,0,11.472-11.472ZM9.264-3.528V-13.92a2.668,2.668,0,0,0-.876.408,2.17,2.17,0,0,0-.732.72,3.069,3.069,0,0,0-.336,1.584A3.655,3.655,0,0,0,7.68-9.7,13.033,13.033,0,0,1,8.688-7.464l.048,1.08L8.664-4.536v.48q-.072.288-.1.408a.635.635,0,0,0,.36.1ZM11.52-5.256V-5.9a8.382,8.382,0,0,0-.072-1.368,1.127,1.127,0,0,0-.216-.7.9.9,0,0,0-.768-.288,1.744,1.744,0,0,0-.552.1L9.5-7.968V-3.5a2.152,2.152,0,0,1,.528.228,3.516,3.516,0,0,0,1.1.276l.336.048ZM5.664-.96l-.84-.216-.552-.072-.6-.048a3.325,3.325,0,0,0-1.416.252.856.856,0,0,0-.528.828A.7.7,0,0,0,2.052.42a1.53,1.53,0,0,0,.828.2L3.456.552l.48-.12A3.019,3.019,0,0,0,5.04-.24,4.174,4.174,0,0,0,5.664-.96ZM19.992-15.24a2.6,2.6,0,0,0-.528.288,1.432,1.432,0,0,0-.528,1.128V-2.448a.783.783,0,0,0,.408.72l.36.12-.312.264-.624.576-.5.7-.12.192-.336-.456-.648-.792a3.226,3.226,0,0,0-.768-.624L15.96-2.04l.24-.072a.588.588,0,0,0,.264-.5V-14.448l.984.816.312-.5a3.825,3.825,0,0,1,.744-.84,1.6,1.6,0,0,1,.5-.216l.624-.072h.24ZM27.624-1.824l-.768.768a4.062,4.062,0,0,0-.576.84l-.12.24L25.944-.1a1.752,1.752,0,0,1-.7-.552,2.963,2.963,0,0,1-.456-.84l-.1-.288-.384.216-.648.456a4.1,4.1,0,0,0-.552.7L22.8.024l-.5-.168a2.856,2.856,0,0,1-.756-.372,3.11,3.11,0,0,1-.588-.78l-.264-.528V-8.856l.768-.12a4.462,4.462,0,0,0,1.608-.72,7.752,7.752,0,0,0,.612-.492,3.206,3.206,0,0,0,.444-.492l.192-.384.456.336,1.1.648,1.152.552.48.216a.555.555,0,0,0-.432.528,8.84,8.84,0,0,0-.1.888q-.024.432-.024,1.368v1.2A21.54,21.54,0,0,0,27.06-2.58Q27.168-1.92,27.624-1.824ZM25.152-8.472,24.7-8.544l-.624-.144-.456-.288a1.342,1.342,0,0,0-.48-.24l-.192.072L22.9-3.312l.1.456a1.1,1.1,0,0,0,.24.336l.36.384a.59.59,0,0,0,.264.192.684.684,0,0,0,.576-.288l.312-.456V-7.2l.1-.168.192-.384.1-.336Zm8.88-.432-.024.312a1.68,1.68,0,0,1-.4,1.044,3.994,3.994,0,0,1-.66.54l-.312.168-.1-.36q-.168-.408-.168-.432a4.357,4.357,0,0,0-.288-.456,1.3,1.3,0,0,0-.528-.456l-.6-.12v5.232a1.981,1.981,0,0,0,.72,1.392.777.777,0,0,0,.36.216l.5.048H33q.264-.072.36-.1l.384-.1-.384.384a5.169,5.169,0,0,1-.66.648q-.228.168-.252.192t-.384.528l-.12.192h-.408A3.369,3.369,0,0,1,30.72-.1a1.965,1.965,0,0,1-1-.564,5.439,5.439,0,0,1-.732-1A2.627,2.627,0,0,1,28.7-2.712v-6.36h.264a5.958,5.958,0,0,0,1.1-.084,1.519,1.519,0,0,0,.756-.384,5.132,5.132,0,0,0,.516-.54q.12-.144.336-.456l.36-.552.24.072a2.461,2.461,0,0,1,1.056.768,4.414,4.414,0,0,1,.648,1.1Zm8.544,6.7-.288.288a3.1,3.1,0,0,0-.528.6l-.48.744-.288.48-.216-.288a3.316,3.316,0,0,0-.432-.552l-.432-.432-.312-.24V-4.176a1.281,1.281,0,0,0-.06-.384,1.661,1.661,0,0,0-.18-.384.888.888,0,0,0-.6-.48l-.192.048a.924.924,0,0,0-.42.228,1.365,1.365,0,0,0-.276.444V-2.52a.845.845,0,0,0,.36.72l.384.144-.288.24a5.516,5.516,0,0,0-.552.576l-.576.7-.12.192-.336-.456a5.45,5.45,0,0,0-.672-.792,3.328,3.328,0,0,0-.72-.648l-.432-.288a.839.839,0,0,0,.24-.072.718.718,0,0,0,.24-.5l.024-11.76.984.792.312-.5q.12-.168.264-.36A2.2,2.2,0,0,1,37.428-15a1.455,1.455,0,0,1,.516-.216l.6-.072h.336l-.48.312a1.535,1.535,0,0,0-.5,1.152v4.752q.312.12.864-.312l.528-.48.768-.888.216-.264.768.912.5.432a.983.983,0,0,1,.36.6,1.018,1.018,0,0,1-.084.468,3.321,3.321,0,0,1-.492.564,2.682,2.682,0,0,1-.528.528l-.336.264.384.288.648.672a1.673,1.673,0,0,1,.384.864l.024.24v2.376a.526.526,0,0,0,.336.528ZM39.864-7.8l.048-.24A.73.73,0,0,0,39.66-8.6a1.136,1.136,0,0,0-.78-.228A.85.85,0,0,0,38.3-8.5l-.432.576v2.064h.288a1.952,1.952,0,0,0,.576-.264l.5-.432a1.4,1.4,0,0,0,.36-.528q.048-.1.132-.324T39.864-7.8Z" transform="translate(342 278)"/>
    </g>
    <rect id="사각형_8" data-name="사각형 8" width="150" height="150" transform="translate(227 336)" fill="none"/>
  </g>
</svg>
