<svg xmlns="http://www.w3.org/2000/svg" width="100" height="100" viewBox="0 0 100 100">
  <g id="changecard" transform="translate(-815 -288)">
    <circle id="타원_2" data-name="타원 2" cx="50" cy="50" r="50" transform="translate(815 288)" fill="#5585be"/>
    <g id="사각형_22" data-name="사각형 22" transform="translate(827 318)" fill="#fff" stroke="#adbdcb" stroke-width="1">
      <rect width="25" height="40" rx="4" stroke="none"/>
      <rect x="0.5" y="0.5" width="24" height="39" rx="3.5" fill="none"/>
    </g>
    <g id="사각형_23" data-name="사각형 23" transform="translate(855 318)" fill="#fff" stroke="#adbdcb" stroke-width="1">
      <rect width="25" height="40" rx="4" stroke="none"/>
      <rect x="0.5" y="0.5" width="24" height="39" rx="3.5" fill="none"/>
    </g>
    <g id="합치기_3" data-name="합치기 3" transform="translate(4866 -949)" fill="#fff">
      <path d="M -3975.5 1303.49951171875 L -3977.49951171875 1303.49951171875 L -3977.49951171875 1280.000244140625 L -3977.49951171875 1279.500244140625 L -3977.99951171875 1279.500244140625 L -3979.191162109375 1279.500244140625 L -3976.500244140625 1274.118286132812 L -3973.809326171875 1279.500244140625 L -3975 1279.500244140625 L -3975.5 1279.500244140625 L -3975.5 1280.000244140625 L -3975.5 1303.49951171875 Z" stroke="none"/>
      <path d="M -3976 1302.99951171875 L -3976 1280.000244140625 L -3976 1279.000244140625 L -3975 1279.000244140625 L -3974.6181640625 1279.000244140625 L -3976.500244140625 1275.236328125 L -3978.38232421875 1279.000244140625 L -3977.99951171875 1279.000244140625 L -3976.99951171875 1279.000244140625 L -3976.99951171875 1280.000244140625 L -3976.99951171875 1302.99951171875 L -3976 1302.99951171875 M -3975 1303.99951171875 L -3977.99951171875 1303.99951171875 L -3977.99951171875 1280.000244140625 L -3980.000244140625 1280.000244140625 L -3976.500244140625 1273.000244140625 L -3973.000244140625 1280.000244140625 L -3975 1280.000244140625 L -3975 1303.99951171875 Z" stroke="none" fill="#adbdcb"/>
    </g>
    <g id="합치기_4" data-name="합치기 4" transform="translate(898 324)" fill="#fff">
      <path d="M 3.5 29.88123321533203 L 0.8090149760246277 24.49926376342773 L 2.000730037689209 24.49926376342773 L 2.500730037689209 24.49926376342773 L 2.500730037689209 23.99926376342773 L 2.500730037689209 0.5000038146972656 L 4.500239849090576 0.5000038146972656 L 4.500239849090576 23.99926376342773 L 4.500239849090576 24.49926376342773 L 5.000239849090576 24.49926376342773 L 6.190985202789307 24.49926376342773 L 3.5 29.88123321533203 Z" stroke="none"/>
      <path d="M 3.000730037689209 1.000003814697266 L 3.000730037689209 23.99926376342773 L 3.000730037689209 24.99926376342773 L 2.000730037689209 24.99926376342773 L 1.618034839630127 24.99926376342773 L 3.5 28.76319313049316 L 5.381965160369873 24.99926376342773 L 5.000239849090576 24.99926376342773 L 4.000240325927734 24.99926376342773 L 4.000240325927734 23.99926376342773 L 4.000240325927734 1.000003814697266 L 3.000730037689209 1.000003814697266 M 2.000730037689209 3.814697265625e-06 L 5.000239849090576 3.814697265625e-06 L 5.000239849090576 23.99926376342773 L 7 23.99926376342773 L 3.5 30.99926376342773 L 0 23.99926376342773 L 2.000730037689209 23.99926376342773 L 2.000730037689209 3.814697265625e-06 Z" stroke="none" fill="#adbdcb"/>
    </g>
  </g>
</svg>
