<svg xmlns="http://www.w3.org/2000/svg" width="100" height="100" viewBox="0 0 100 100">
  <g id="chipplus" transform="translate(-815 -288)">
    <circle id="타원_2" data-name="타원 2" cx="50" cy="50" r="50" transform="translate(815 288)" fill="#5585be"/>
    <path id="다각형_8" data-name="다각형 8" d="M26.25,0,35,16,26.25,32H8.75L0,16,8.75,0Z" transform="translate(858.5 321.5) rotate(90)" fill="#baadad"/>
    <path id="다각형_9" data-name="다각형 9" d="M22.5,0,30,13.5,22.5,27H7.5L0,13.5,7.5,0Z" transform="translate(856 324) rotate(90)" fill="#c4bebe"/>
    <path id="패스_20" data-name="패스 20" d="M-5.568,1.2a.378.378,0,0,1-.36-.168l-4.584-6.888L-15.12,1.032a.378.378,0,0,1-.36.168h-2.568q-.288,0-.072-.312l6.048-9.048-5.616-8.448a.2.2,0,0,1-.024-.2q.048-.084.24-.084h2.424q.264,0,.336.144l4.176,6.264,4.2-6.264Q-6.264-16.9-6-16.9h2.424q.192,0,.24.084a.2.2,0,0,1-.024.2L-8.976-8.16-2.928.888Q-2.712,1.2-3,1.2ZM15.192-.1A5.442,5.442,0,0,1,13.08,1.08a8.845,8.845,0,0,1-2.616.384q-.24,0-.732-.036t-1.056-.12q-.564-.084-1.128-.216A4.354,4.354,0,0,1,6.6.768q-.168-.1-.18-.18A1.939,1.939,0,0,1,6.408.336V-1.608q0-.432.5-.192a4.089,4.089,0,0,0,.84.324q.48.132.984.228t1,.144q.492.048.924.048a3.885,3.885,0,0,0,2.652-.912,3.171,3.171,0,0,0,1.044-2.52A3.521,3.521,0,0,0,13.5-6.972,3.69,3.69,0,0,0,10.68-7.9a8.136,8.136,0,0,0-1.62.168,10.463,10.463,0,0,0-1.6.456q-.936.384-.936-.432l.12-8.856a.594.594,0,0,1,.1-.336.75.75,0,0,1,.432-.072H15.96a.287.287,0,0,1,.228.1.32.32,0,0,1,.084.216v1.848a.366.366,0,0,1-.084.228.273.273,0,0,1-.228.108H9.288l-.1,4.464a9.423,9.423,0,0,1,2.112-.216,6.741,6.741,0,0,1,2.256.372A5.334,5.334,0,0,1,15.4-8.772,5.017,5.017,0,0,1,16.62-7.056,5.539,5.539,0,0,1,17.064-4.8,6,6,0,0,1,15.192-.1Z" transform="translate(884 347)" fill="#fff"/>
  </g>
</svg>
