<svg xmlns="http://www.w3.org/2000/svg" width="150" height="150" viewBox="0 0 150 150">
  <g id="drank" transform="translate(-377 -636)">
    <g id="DiaRank" transform="translate(-295 509)">
      <path id="패스_17" data-name="패스 17" d="M14.664-7.752,14.64-4.464l-.024,1.32-1.344.1a6.15,6.15,0,0,0-2.328.72A4.18,4.18,0,0,0,9.552-.84L9.144,0l-.6-.192L5.952-1.008l-.024.072A1.644,1.644,0,0,1,5.3-.072,7.243,7.243,0,0,1,3.96.768,3.445,3.445,0,0,1,2.4,1.1,3.088,3.088,0,0,1,.768.7,1.608,1.608,0,0,1,0-.768l.024-.24A3.662,3.662,0,0,1,1.032-3.192,2.973,2.973,0,0,1,3.336-4.2l.408.024a16.091,16.091,0,0,1,2.544.432l.42.108a4.01,4.01,0,0,1,.468.156l.144-.168a1.113,1.113,0,0,0,.12-.5.967.967,0,0,0-.072-.384,1.737,1.737,0,0,0-.144-.276,1.116,1.116,0,0,0-.216-.228,4.164,4.164,0,0,0-.432-.384,3.562,3.562,0,0,0-.408-.264,1.5,1.5,0,0,0-.624-.192l-.216.048-.432.1-.552.048H4.1l-.12-.024-.12-.144a1.272,1.272,0,0,1-.144-.5l.048-.36a1.9,1.9,0,0,1,.312-.672l.264-.288-.672.168a1.062,1.062,0,0,0-.648.984A2.44,2.44,0,0,0,3.384-5.3l.36.48a6.079,6.079,0,0,1-1.032-.432A1.923,1.923,0,0,1,1.656-6.984,3.028,3.028,0,0,1,2.808-9.456a4.465,4.465,0,0,1,.48-.276,5.463,5.463,0,0,1,.7-.276,2.768,2.768,0,0,1,.12-.6A4.69,4.69,0,0,1,6.48-13.032q.408-.216,1.056-.6t.888-.552l.792-.7-1.2.216q-.576.072-1.464.144t-1.416.072a7.784,7.784,0,0,0-2.976.432,1.425,1.425,0,0,0-.984,1.44,1.556,1.556,0,0,0,.408,1.248,1.225,1.225,0,0,0,.84.24,1.87,1.87,0,0,0,.7-.144l.264-.168a.5.5,0,0,1-.144.288.748.748,0,0,1-.648.264A2.683,2.683,0,0,1,.912-11.4,2.5,2.5,0,0,1,0-13.488L.024-13.9A3.418,3.418,0,0,1,1.416-16.44a3.821,3.821,0,0,1,2.4-.816,6.653,6.653,0,0,1,2.4.78,6.821,6.821,0,0,0,2.256.78A.659.659,0,0,0,9-15.96a2.748,2.748,0,0,0,.384-1.08q.192-.7.648-.7l.192.072q.072.024.12.216l-.1.408-.192.552-.432,1.32.192.024.168.024.384-.072a.772.772,0,0,0,.36-.36l.336-.744.072-.24.408.168a12.57,12.57,0,0,1,1.968,1.152,2.09,2.09,0,0,1,.528.456,2.49,2.49,0,0,1,.36.6,2.069,2.069,0,0,1,.144.816v.168l.072,2.4ZM11.64-8.808v-2.3a4.678,4.678,0,0,0-.1-1.2,1.908,1.908,0,0,0-.48-1.08,1.486,1.486,0,0,0-.7-.336L9.336-13.8v4.992Zm0,1.68V-8.592h-2.3v1.464ZM9.12-3.552V-13.776a1.817,1.817,0,0,0-1.224.432,2.846,2.846,0,0,0-.7,2.16,4.647,4.647,0,0,0,.312,1.56q.864,2.208.912,2.472l.024.408a14.226,14.226,0,0,1-.216,2.136l-.24,1.176a4.226,4.226,0,0,0,.72-.048Zm2.52-3.336h-2.3v3.36a1.321,1.321,0,0,1,.552.312l.816.5a.585.585,0,0,0,.432.024l.312-.192.1-.144.072-1.656ZM5.712-1.056l-.6-.168-.336-.024H4.32a11.528,11.528,0,0,0-1.2.048,2.517,2.517,0,0,0-.792.216Q1.7-.72,1.7-.216a.692.692,0,0,0,.324.648,1.606,1.606,0,0,0,.828.192L3.432.552l.5-.12A4.055,4.055,0,0,0,5.088-.312q.12-.12.3-.324A3.93,3.93,0,0,0,5.712-1.056ZM19.8-15.192l-.48.408-1.032.96a2.957,2.957,0,0,0-.552,1.152l-.24.744v-.432a.665.665,0,0,0-.216-.48l-.288-.456a1.511,1.511,0,0,1-.144-.576.774.774,0,0,1,.084-.372,1.531,1.531,0,0,1,.324-.372,3.28,3.28,0,0,1,1.56-.5ZM19.608-1.728l-.24.24-.384.48-.792.984-.24-.312-.624-.7q-.192-.192-.336-.312a3.04,3.04,0,0,0-.456-.336l-.456-.24a.5.5,0,0,0,.192-.048,1.024,1.024,0,0,0,.432-.744V-8.184l-.1-.216-.24-.36-.408-.264-.24-.144.288-.216.528-.528.792-1.1.336.288.72.552.744.5.36.216-.552.624V-2.4a.713.713,0,0,0,.336.528Zm8.016-.1-.768.768a4.062,4.062,0,0,0-.576.84l-.12.24L25.944-.1a1.752,1.752,0,0,1-.7-.552,2.963,2.963,0,0,1-.456-.84l-.1-.288-.384.216-.648.456a4.1,4.1,0,0,0-.552.7L22.8.024l-.5-.168a2.856,2.856,0,0,1-.756-.372,3.11,3.11,0,0,1-.588-.78l-.264-.528V-8.856l.768-.12a4.462,4.462,0,0,0,1.608-.72,7.752,7.752,0,0,0,.612-.492,3.206,3.206,0,0,0,.444-.492l.192-.384.456.336,1.1.648,1.152.552.48.216a.555.555,0,0,0-.432.528,8.84,8.84,0,0,0-.1.888q-.024.432-.024,1.368v1.2A21.54,21.54,0,0,0,27.06-2.58Q27.168-1.92,27.624-1.824ZM25.152-8.472,24.7-8.544l-.624-.144-.456-.288a1.342,1.342,0,0,0-.48-.24l-.192.072L22.9-3.312l.1.456a1.1,1.1,0,0,0,.24.336l.36.384a.59.59,0,0,0,.264.192.684.684,0,0,0,.576-.288l.312-.456V-7.2l.1-.168.192-.384.1-.336Z" transform="translate(732 272)" fill="#d8e8e7"/>
      <g id="다각형_6" data-name="다각형 6" transform="translate(797 129) rotate(90)" fill="none">
        <path d="M90,0l30,50L90,100H30L0,50,30,0Z" stroke="none"/>
        <path d="M 33.96334838867188 7 L 8.163345336914062 50 L 33.96334838867188 93 L 86.03665924072266 93 L 111.8366622924805 50 L 86.03665924072266 7 L 33.96334838867188 7 M 30.00000762939453 0 L 90 0 L 120 50 L 90 100 L 30.00000762939453 100 L 7.62939453125e-06 50 L 30.00000762939453 0 Z" stroke="none" fill="#d8e8e7"/>
      </g>
      <g id="layer1" transform="translate(706.875 168.864)">
        <path id="path847" d="M79.7.136s4.76,8.07-17.653,13a1.3,1.3,0,0,0,.187,2.087s13.115-4.743,14.69-6.186c0,0-1.576,9.433-14.538,11.083,0,0-.915,1.34,0,2.01,0,0,8.743-2.835,10.218-4.433,0,0-.509,6.5-10.777,9.64,0,0-11.943,2.171-13.654,9.981A51.412,51.412,0,0,1,44.306,45.2s-1.365,4.937-3.9,4.937h-.564c-2.535,0-3.9-4.937-3.9-4.937a51.415,51.415,0,0,1-3.868-7.886c-1.711-7.81-13.654-9.981-13.654-9.981-10.268-3.145-10.776-9.64-10.776-9.64,1.474,1.6,10.217,4.433,10.217,4.433.915-.67,0-2.01,0-2.01C4.9,18.465,3.323,9.032,3.323,9.032c1.576,1.443,14.689,6.186,14.689,6.186a1.3,1.3,0,0,0,.187-2.087C-4.213,8.206.548.136.548.136a69.008,69.008,0,0,1,21.53,7.322c8.767,3.4,13.257,25.32,13.257,25.32,1,5.986,4.789,6.663,4.789,6.663s3.787-.677,4.789-6.663c0,0,4.489-21.921,13.257-25.32A69.018,69.018,0,0,1,79.7.136Z" transform="translate(0 0)" fill="#d8e8e7"/>
      </g>
    </g>
    <rect id="사각형_14" data-name="사각형 14" width="150" height="150" transform="translate(377 636)" fill="none"/>
  </g>
</svg>
