<svg xmlns="http://www.w3.org/2000/svg" width="77.899" height="88.854" viewBox="0 0 77.899 88.854">
  <g id="garnet" transform="translate(-816.074 -133.424)">
    <path id="다각형_7" data-name="다각형 7" d="M65.25,0,87,38,65.25,76H21.75L0,38,21.75,0Z" transform="translate(893 134) rotate(90)" fill="#b50610"/>
    <path id="패스_3" data-name="패스 3" d="M4675-480l37.9,21.645L4675-440.134l-37.852-18.221Z" transform="translate(-3820 614)" fill="none" stroke="#c15252" stroke-width="1"/>
    <path id="패스_4" data-name="패스 4" d="M4675-393v-47.225l37.735-18.289v43.894Z" transform="translate(-3820 614)" fill="none" stroke="#c15252" stroke-width="1"/>
    <path id="패스_5" data-name="패스 5" d="M4637-458.514v43.954l37.592,21.967v-47.75Z" transform="translate(-3820 614)" fill="none" stroke="#c15252" stroke-width="1"/>
    <path id="패스_2" data-name="패스 2" d="M4725.486-862.319l25.588,14.616-8.065,5.284-17.522-10-26.414,14.967v30.925l25.507,15.455,27.124-14.637v-20.014l-26.217,14.853v-10.855l35.335-19.371v40.6l-36.242,20.034-35.045-21.169v-41.152Z" transform="translate(-3870 999)" fill="#f7d488"/>
  </g>
</svg>
