<svg xmlns="http://www.w3.org/2000/svg" width="150" height="150" viewBox="0 0 150 150">
  <g id="gmrank" transform="translate(-377 -786)">
    <g id="GMrank-2" data-name="GMrank" transform="translate(-367 464)">
      <path id="Grand_Master" data-name="Grand Master" d="M-41.292-8.184A4.835,4.835,0,0,1-41.88-6.2a6.69,6.69,0,0,1-1.164,1.788,6.253,6.253,0,0,1-.648.588q-.48.4-1.2.936A12.625,12.625,0,0,0-46.14-1.836a2.651,2.651,0,0,0-.72,1.26A2.036,2.036,0,0,0-46.908,0l-2.016-.384a9.142,9.142,0,0,1-3.024-1.128A7.667,7.667,0,0,1-53.772-3.1a6.756,6.756,0,0,1-.84-3.744,7.8,7.8,0,0,1,.576-3.1,5.752,5.752,0,0,1,1.32-1.944,15.031,15.031,0,0,1,1.56-1.272,5.352,5.352,0,0,1,1.8-.84l1.9-.312a.514.514,0,0,0,.144-.312l-.024-.24v-.168a4.253,4.253,0,0,1-2.016.384h-1.08q-.528-.072-.792-.1a14.353,14.353,0,0,0-1.8.1,4.148,4.148,0,0,0-1.248.336,1.452,1.452,0,0,0-.984,1.44,3.028,3.028,0,0,0,.072.816.982.982,0,0,0,.132.288,2.489,2.489,0,0,0,.372.288l.48.216h.1l-.1.072-.36.072-.5-.072-.624-.36a1.348,1.348,0,0,1-.54-.576,2.917,2.917,0,0,1-.18-.552,3.623,3.623,0,0,1-.048-.672l.072-.84a3.1,3.1,0,0,1,1.3-2.592,4.094,4.094,0,0,1,2.5-.816,5.324,5.324,0,0,1,3,.888,4.865,4.865,0,0,0,1.728.888.9.9,0,0,0,.684-.24,1.129,1.129,0,0,0,.228-.792.917.917,0,0,1,.216-.672.482.482,0,0,1,.5-.192q.216.072.216.48a.564.564,0,0,1-.168.468,1.194,1.194,0,0,0-.312.444,4.466,4.466,0,0,1-.456.984.44.44,0,0,0,.144.24l.36.1a.565.565,0,0,0,.408-.12,1.736,1.736,0,0,0,.264-.648l.144-.7.048-.384.624.216a4.114,4.114,0,0,0,1.152.192,3.376,3.376,0,0,0,.6-.048q.384-.12.6-.168l.384-.1a1.136,1.136,0,0,1-.072.5,3.608,3.608,0,0,1-.6,1.272,2.82,2.82,0,0,1-1.008.96,3.621,3.621,0,0,1-.72.192H-45.2l-.624-.024h-.552a1.682,1.682,0,0,0-.528.1v3.84a4.278,4.278,0,0,0,.768-.288,3.21,3.21,0,0,0,.6-.384q.264-.216.432-.384a5.092,5.092,0,0,0,.408-.48l.288-.48.576.12a3.945,3.945,0,0,1,1.968,1.32,3.246,3.246,0,0,1,.444,1.068A5.629,5.629,0,0,1-41.292-8.184ZM-44.82-6.768v-.288a6.91,6.91,0,0,0-.1-1.392q-.216-1.008-.816-1.008a1.217,1.217,0,0,0-.7.144,2.122,2.122,0,0,0-.48,1.32v5.184h.312a3.765,3.765,0,0,0,.924-.1,1.819,1.819,0,0,0,.564-.228.687.687,0,0,0,.264-.42l.048-1.08v-.192l-.024-.768V-6.768ZM-47.892-13.7H-48.2a3.063,3.063,0,0,0-1.344.312,5,5,0,0,0-1.968,1.632,3.683,3.683,0,0,0-.552,1.44q-.072.48-.12.948a9.778,9.778,0,0,0-.048,1l.024.792.072.576a3.322,3.322,0,0,0,.552,1.32.771.771,0,0,0,.6.384l.048-1.9.024-1.272.024-.312v-.36l-.024-1.272v-.936a1.685,1.685,0,0,1-.048-.288l.72-.288a3.532,3.532,0,0,0,1.08-.7,8.711,8.711,0,0,1,.912-.84Zm.744,10.872V-13.56l-.624.408a1.2,1.2,0,0,0-.288.552l-.072,1.344-.048,1.392.048,1.752.072,1.2-.432.216q-.36.216-.588.348a4.752,4.752,0,0,0-.468.312,3.508,3.508,0,0,0-.312.252,7.22,7.22,0,0,0-.624.6l-.36.432q.24.216.492.408t.588.456A6.269,6.269,0,0,0-47.148-2.832ZM-33.2-10.776l-.432.288q-.192.168-.4.372t-.444.492q-.1.12-.312.444t-.36.588l-.216.5a2.277,2.277,0,0,0-.36-.648.778.778,0,0,0-.576-.288.82.82,0,0,0-.624.288.993.993,0,0,0-.264.7v4.224a2.912,2.912,0,0,0,.1.864q.192.864.792.864a.654.654,0,0,0,.468-.132.99.99,0,0,0,.132-.636l-.12-.288a1.45,1.45,0,0,1-.312-.672.482.482,0,0,1,.156-.348.482.482,0,0,1,.348-.156.466.466,0,0,1,.36.216.873.873,0,0,1,.168.552,2.375,2.375,0,0,1-.168.912,2.45,2.45,0,0,1-.96,1.08,7.711,7.711,0,0,0-.936.96l-.408.576-.312-.36a13.089,13.089,0,0,0-.936-.984l-.744-.672-.24-.216a.342.342,0,0,0,.288-.2,1.115,1.115,0,0,0,.12-.564V-8.472a.647.647,0,0,0-.432-.624l-.432-.144.36-.312.672-.624.384-.552.216-.36.312.192a1.308,1.308,0,0,1,.552.456l.408.624.192.36.192-.12a3.135,3.135,0,0,0,.624-.5l.36-.528.168-.312.168.072a2.925,2.925,0,0,0,.816.144l1.152-.024Zm7.848,8.952-.768.768a4.062,4.062,0,0,0-.576.84l-.12.24-.216-.12a1.752,1.752,0,0,1-.7-.552,2.963,2.963,0,0,1-.456-.84l-.1-.288-.384.216-.648.456a4.1,4.1,0,0,0-.552.7l-.312.432-.5-.168a2.856,2.856,0,0,1-.756-.372,3.11,3.11,0,0,1-.588-.78l-.264-.528V-8.856l.768-.12a4.462,4.462,0,0,0,1.608-.72,7.752,7.752,0,0,0,.612-.492,3.206,3.206,0,0,0,.444-.492l.192-.384.456.336,1.1.648,1.152.552.48.216a.555.555,0,0,0-.432.528A8.839,8.839,0,0,0-26-7.9q-.024.432-.024,1.368v1.2A21.54,21.54,0,0,0-25.92-2.58Q-25.812-1.92-25.356-1.824Zm-2.472-6.648-.456-.072-.624-.144-.456-.288a1.342,1.342,0,0,0-.48-.24l-.192.072-.048,5.832.1.456a1.1,1.1,0,0,0,.24.336l.36.384a.59.59,0,0,0,.264.192.684.684,0,0,0,.576-.288l.312-.456V-7.2l.1-.168.192-.384.1-.336Zm11.16,6.336-.312.312-.5.576-.432.792-.264.48-.744-.84-.48-.48-.336-.264V-7.824a.99.99,0,0,0-.144-.624.644.644,0,0,0-.624-.312.9.9,0,0,0-.912.6,2.975,2.975,0,0,0-.072.744v4.344a1.24,1.24,0,0,0,.432,1.008,1.4,1.4,0,0,0,.432.192l-.288.24-.552.5a1.734,1.734,0,0,0-.216.336q-.144.264-.24.48l-.12.288-.264-.432q-.1-.168-.276-.42a3.473,3.473,0,0,0-.228-.3,5.029,5.029,0,0,0-.816-.552l-.576-.288.072-.288.168-.336.192-.312.12-.12V-8.328a.838.838,0,0,0-.408-.744l-.384-.192.24-.192.552-.528.792-1.1.288.144a2.115,2.115,0,0,1,.588.576,3.06,3.06,0,0,1,.4.792l.12.408a1.636,1.636,0,0,0,.96-.24l.48-.6A3.925,3.925,0,0,0-19.5-10.9l.1-.264.432.144a2.229,2.229,0,0,1,.72.456,1.983,1.983,0,0,1,.528.96l.168.648V-2.64q0,.36.432.48Zm7.584.216h-.48a2.167,2.167,0,0,0-.66.072q-.2.072-.324.12a1.5,1.5,0,0,0-.312.192,2.7,2.7,0,0,0-.888.96l-.264.624h-.408A2.275,2.275,0,0,1-13.98-.48a3.055,3.055,0,0,1-.852-.792,1.831,1.831,0,0,1-.324-.792V-7.992a.805.805,0,0,0-.12-.384.6.6,0,0,0-.432-.24l.6-.1a3.77,3.77,0,0,0,1.2-.552,2.3,2.3,0,0,0,.6-.984l.168-.6-.12-.264a6.7,6.7,0,0,0-.276-.612,4.03,4.03,0,0,0-.348-.54,8.966,8.966,0,0,0-.768-.84l-.5-.528.336.1.384.1.168.048h.408l.24-.552a2.316,2.316,0,0,1,.432-.816,2.347,2.347,0,0,1,.72-.432l.456-.168-.1.48-.1.768a3.431,3.431,0,0,0,.672,1.776l.792,1.176.48.672q.24.336.576.72l.6.648Zm-2.184-6.36A2.061,2.061,0,0,0-11.46-8.9a1.526,1.526,0,0,0-.528-.576l-.216-.144q-.192-.168-.432-.408l-.264-.336v7.512a.766.766,0,0,0,.24.6,2.394,2.394,0,0,0,1.344.288ZM19.068-1.92l-.384.24-.84.624a2.724,2.724,0,0,0-.432.432q-.24.288-.432.552l-.144.288L16.62.1a2.6,2.6,0,0,1-.864-.936,3.08,3.08,0,0,1-.2-.468q-.108-.3-.2-.636l-.1-.5.024-2.328V-6.912H13.26v2.856a7.544,7.544,0,0,0,.084,1.608,1.01,1.01,0,0,0,.348.384l.24.144-.384.24-.864.648a2.725,2.725,0,0,0-.72.792l-.288.456-.36-.24a2.467,2.467,0,0,1-.36-.336,4.814,4.814,0,0,1-.36-.5,3.333,3.333,0,0,1-.216-.48,4.559,4.559,0,0,1-.168-.6l-.1-.5.024-4.464H8.22v3.384a.94.94,0,0,1-.06.36q-.06.144-.2.432A2.544,2.544,0,0,1,7.2-1.9,3.562,3.562,0,0,0,6.252-.72l-.336.7L5.508-.216,4.4-.7a2.344,2.344,0,0,1-.672.84,5.646,5.646,0,0,1-1.224.78,3.761,3.761,0,0,1-1.656.348A3.088,3.088,0,0,1-.78.864a1.586,1.586,0,0,1-.768-1.44l.024-.264a3.64,3.64,0,0,1,.96-2.184A3.151,3.151,0,0,1,1.86-4.1l.36.024a14.36,14.36,0,0,1,2.592.456,3.308,3.308,0,0,1,.384.1q.24.072.48.168l.144-.192a1.219,1.219,0,0,0,.144-.48,1.524,1.524,0,0,0-.1-.432l-.36-.456a3.666,3.666,0,0,0-.864-.7,2.333,2.333,0,0,0-.624-.192L3.8-5.736q-.192.048-.408.1l-.5.024H2.484L2.34-5.784a1.164,1.164,0,0,1-.12-.528l.024-.36A2,2,0,0,1,2.58-7.3l.24-.336-.648.216A1.047,1.047,0,0,0,1.5-6.408a2.44,2.44,0,0,0,.36,1.224l.36.48a6.079,6.079,0,0,1-1.032-.432A1.97,1.97,0,0,1,.108-6.888,2.922,2.922,0,0,1,1.284-9.36,4.2,4.2,0,0,1,2.46-9.936a2.768,2.768,0,0,1,.12-.6A4.771,4.771,0,0,1,5-12.984q.7-.36,1.032-.576t.912-.624a3,3,0,0,0,.384-.288q.192-.168.408-.384l-.912.216a13.289,13.289,0,0,1-2.3.216h-.6l-.288-.024a7.952,7.952,0,0,0-3.024.432,1.442,1.442,0,0,0-.96,1.464A1.592,1.592,0,0,0,.06-11.28a1.282,1.282,0,0,0,.84.24,1.87,1.87,0,0,0,.7-.144l.264-.144-.072.168a.947.947,0,0,1-.84.384,2.526,2.526,0,0,1-1.512-.576,2.532,2.532,0,0,1-.984-2.112l.024-.408A3.545,3.545,0,0,1-.108-16.464a3.853,3.853,0,0,1,2.376-.816,6.562,6.562,0,0,1,2.5.792A6.75,6.75,0,0,0,7.02-15.7a.71.71,0,0,0,.624-.456,1.959,1.959,0,0,0,.12-.36q.1-.336.168-.576.192-.672.648-.672l.192.072a.236.236,0,0,1,.12.216.984.984,0,0,1-.12.432l-.192.552-.408,1.32.168.048.216.024a1.116,1.116,0,0,0,.384-.048l.384-.168A1.517,1.517,0,0,0,9.6-15.54a5.031,5.031,0,0,0,.4-.468,3.352,3.352,0,0,0,.432-.528l.36.288q.312.24.648.528.192.168.528.456A2.73,2.73,0,0,0,12.3-15l.48.336.528.288v.48l.5-.432.624-.5a4.977,4.977,0,0,0,1.224-1.3l.168-.288L17.1-15.264l.84.6.528.288L18.42-11.16,18.4-8.424v3.768a12.45,12.45,0,0,0,.1,2.184,1.407,1.407,0,0,0,.36.408ZM15.324-8.592,15.3-10.728l-.048-1.824-.024-.648-.144-.384a.876.876,0,0,0-.312-.264l-.408-.1a1.155,1.155,0,0,0-.444.084.824.824,0,0,0-.348.276l-.288.192-.024,2.424v2.376Zm0,.264H13.26v1.2h2.016l.024-.816Zm-5.136-.264-.024-2.136-.024-1.824-.048-.72a.458.458,0,0,0-.144-.264.56.56,0,0,0-.312-.24l-.384-.144-.84-.024-.192.024v5.328Zm0,.264H8.22v1.2h1.92l.024-.816Zm-2.136,4.1V-13.9a2.223,2.223,0,0,0-1.38.852,2.977,2.977,0,0,0-.564,1.908,3.846,3.846,0,0,0,.072.732,3.326,3.326,0,0,0,.264.78,6.533,6.533,0,0,1,.744,2.16l.024.792a2.86,2.86,0,0,0,.048.624q0,.48-.024.744t-.1.648a3.713,3.713,0,0,1-.624,1.344l.264.048a1.239,1.239,0,0,0,.624-.18A2.033,2.033,0,0,0,8.052-4.224ZM4.116-.768,3.3-1.008l-.552-.1-.624-.048a3.545,3.545,0,0,0-1.368.24.849.849,0,0,0-.576.84.681.681,0,0,0,.336.66,1.764,1.764,0,0,0,.84.18A2.86,2.86,0,0,0,1.98.72L2.412.6a2.9,2.9,0,0,0,1.08-.672A2.966,2.966,0,0,0,4.116-.768ZM27.06-1.824l-.768.768a4.062,4.062,0,0,0-.576.84l-.12.24L25.38-.1a1.752,1.752,0,0,1-.7-.552,2.963,2.963,0,0,1-.456-.84l-.1-.288-.384.216L23.1-1.1a4.1,4.1,0,0,0-.552.7l-.312.432-.5-.168a2.856,2.856,0,0,1-.756-.372,3.11,3.11,0,0,1-.588-.78l-.264-.528V-8.856l.768-.12A4.462,4.462,0,0,0,22.5-9.7a7.752,7.752,0,0,0,.612-.492,3.206,3.206,0,0,0,.444-.492l.192-.384.456.336,1.1.648,1.152.552.48.216a.555.555,0,0,0-.432.528,8.839,8.839,0,0,0-.1.888q-.024.432-.024,1.368v1.2A21.54,21.54,0,0,0,26.5-2.58Q26.6-1.92,27.06-1.824ZM24.588-8.472l-.456-.072-.624-.144-.456-.288a1.342,1.342,0,0,0-.48-.24l-.192.072-.048,5.832.1.456a1.1,1.1,0,0,0,.24.336l.36.384a.59.59,0,0,0,.264.192.684.684,0,0,0,.576-.288l.312-.456V-7.2l.1-.168.192-.384.1-.336ZM35.2-4.176a2.571,2.571,0,0,1-.552,1.92,13.912,13.912,0,0,0-1.464.768L31.932-.432,31.5,0l-.48-.384a1.833,1.833,0,0,0-1.032-.36,1.049,1.049,0,0,0-.816.432,1.693,1.693,0,0,0-.288.96,1.66,1.66,0,0,0,.432,1.1,1.847,1.847,0,0,0,1.44.648,3.1,3.1,0,0,0,1.968-.552,1.993,1.993,0,0,0,.456-.6,3.654,3.654,0,0,1-.2.4,1.167,1.167,0,0,1-.252.3,2.661,2.661,0,0,1-1.968.7,2.526,2.526,0,0,1-2.064-.84,2.2,2.2,0,0,1-.408-.768A3.512,3.512,0,0,1,28.14-.024a3.577,3.577,0,0,1,.552-1.752q.072-.12.216-.324a3.044,3.044,0,0,1,.336-.4l1.7-2.28a1.615,1.615,0,0,1-.648-.24A2.763,2.763,0,0,1,28.86-7.68v-1.2h.312a2.456,2.456,0,0,0,.732-.108,4.212,4.212,0,0,0,.78-.348,5.66,5.66,0,0,0,1.152-1.056q.072-.072.192-.2a4.68,4.68,0,0,0,.336-.444l.264.432a1.888,1.888,0,0,0,.864.624l.792.12.672.048h.168l-.528.888a3.345,3.345,0,0,0-.408.792l-.048.144L34-8.04l-.84,1.128L33.8-6.7A2.624,2.624,0,0,1,35.2-4.176ZM33.42-8.184l-.5-.072L32.388-8.3a2.285,2.285,0,0,1-1.056-.288l-.456-.336.072.624a2.37,2.37,0,0,0,.276.936,1.259,1.259,0,0,0,.756.408l.48.1ZM32.94-3.24a1.279,1.279,0,0,0-.72-1.248,3.12,3.12,0,0,0-.768-.168l-1.56,2.064.144-.12a1.808,1.808,0,0,1,.7-.12,3.125,3.125,0,0,1,1.416.456l.744.48.048-.312ZM41.052-12.1l-1.176.984v8.328a.771.771,0,0,0,.408.744l.432.12-.336.288-.672.672q-.192.24-.288.348a2.729,2.729,0,0,0-.264.4l-.144.192-.384-.5-.744-.888a4.927,4.927,0,0,0-.816-.72l-.48-.312a.753.753,0,0,0,.36-.156.891.891,0,0,0,.192-.468l-.024-7.7q0-.36-.648-.528l-.648-.1.48-.24a10.153,10.153,0,0,0,1.776-1.2A11.266,11.266,0,0,0,39.3-14.328l.576-.888v3.12Zm6.648,8.9a1.834,1.834,0,0,1-.408,1.008,4,4,0,0,1-.744.816,2.82,2.82,0,0,0-.672.816l-.384.576h-.408a3.694,3.694,0,0,1-.84-.072,1.878,1.878,0,0,1-1-.552,4.956,4.956,0,0,1-.684-.984,2.248,2.248,0,0,1-.312-1.056V-9.024h.264q.216,0,.492-.012a5.414,5.414,0,0,0,.684-.084,1.384,1.384,0,0,0,.744-.408,7.118,7.118,0,0,0,.768-.96l.36-.552A.989.989,0,0,1,46-10.9a2.325,2.325,0,0,1,.876.684,3.158,3.158,0,0,1,.636,1.14l.072.216-.072.528a2.614,2.614,0,0,1-.12.48,1.266,1.266,0,0,1-.24.384L45.636-5.808a2.922,2.922,0,0,0-.216.24,4.366,4.366,0,0,0-.408.6l-.264.408v1.44a1.069,1.069,0,0,0,.432.84,2.55,2.55,0,0,0,.444.216,1.321,1.321,0,0,0,.468.1.852.852,0,0,0,.66-.312,1,1,0,0,0,.276-.672.809.809,0,0,0-.1-.36l-.24-.6a.293.293,0,0,1,.168-.264.591.591,0,0,1,.264-.1q.264,0,.42.336A1.745,1.745,0,0,1,47.7-3.192ZM45.924-7.3a1.932,1.932,0,0,0-.4-.936q-.4-.6-.78-.6v3.216l.84-.864A1.286,1.286,0,0,0,45.924-7.3Zm9.672-3.48-.432.288q-.192.168-.4.372t-.444.492q-.1.12-.312.444t-.36.588l-.216.5a2.277,2.277,0,0,0-.36-.648.778.778,0,0,0-.576-.288.82.82,0,0,0-.624.288.993.993,0,0,0-.264.7v4.224a2.912,2.912,0,0,0,.1.864q.192.864.792.864a.654.654,0,0,0,.468-.132.99.99,0,0,0,.132-.636l-.12-.288a1.45,1.45,0,0,1-.312-.672.482.482,0,0,1,.156-.348.482.482,0,0,1,.348-.156.466.466,0,0,1,.36.216.873.873,0,0,1,.168.552,2.375,2.375,0,0,1-.168.912,2.45,2.45,0,0,1-.96,1.08,7.711,7.711,0,0,0-.936.96l-.408.576-.312-.36a13.089,13.089,0,0,0-.936-.984l-.744-.672L49-2.256a.342.342,0,0,0,.288-.2,1.115,1.115,0,0,0,.12-.564V-8.472a.647.647,0,0,0-.432-.624L48.54-9.24l.36-.312.672-.624.384-.552.216-.36.312.192a1.308,1.308,0,0,1,.552.456l.408.624.192.36.192-.12a3.135,3.135,0,0,0,.624-.5l.36-.528.168-.312.168.072a2.925,2.925,0,0,0,.816.144l1.152-.024Z" transform="translate(819 451)" fill="#b50610"/>
    </g>
    <rect id="사각형_9" data-name="사각형 9" width="150" height="150" transform="translate(377 786)" fill="none"/>
    <g id="layer1" transform="translate(376.875 789.864)">
      <path id="path847" d="M149.331.136s8.925,14.527-33.1,23.392a2.282,2.282,0,0,0,.351,3.756s24.59-8.537,27.544-11.135c0,0-2.956,16.98-27.259,19.949,0,0-1.716,2.413,0,3.619,0,0,16.394-5.1,19.158-7.98,0,0-.954,11.691-20.206,17.351,0,0-22.393,3.909-25.6,17.966a90.974,90.974,0,0,1-7.252,14.2s-2.56,8.886-7.313,8.886H74.594c-4.753,0-7.313-8.886-7.313-8.886a90.978,90.978,0,0,1-7.252-14.2C56.821,53,34.428,49.088,34.428,49.088c-19.252-5.66-20.2-17.351-20.2-17.351,2.764,2.876,19.156,7.98,19.156,7.98,1.716-1.206,0-3.619,0-3.619C9.076,33.129,6.122,16.149,6.122,16.149c2.955,2.6,27.542,11.135,27.542,11.135a2.282,2.282,0,0,0,.351-3.756C-8.009,14.663.918.136.918.136a132.869,132.869,0,0,1,40.37,13.18c16.438,6.119,24.856,45.576,24.856,45.576,1.879,10.775,8.98,11.994,8.98,11.994s7.1-1.219,8.98-11.994c0,0,8.418-39.457,24.856-45.576A132.889,132.889,0,0,1,149.331.136Z" transform="translate(0 0)" fill="#b50610"/>
    </g>
  </g>
</svg>
