<svg xmlns="http://www.w3.org/2000/svg" width="150" height="150" viewBox="0 0 150 150">
  <g id="grank" transform="translate(-414 -596)">
    <g id="GoldRank" transform="translate(3 464)">
      <path id="패스_15" data-name="패스 15" d="M15.192-8.184A4.835,4.835,0,0,1,14.6-6.2,6.69,6.69,0,0,1,13.44-4.416a6.253,6.253,0,0,1-.648.588q-.48.4-1.2.936a12.625,12.625,0,0,0-1.248,1.056,2.651,2.651,0,0,0-.72,1.26A2.036,2.036,0,0,0,9.576,0L7.56-.384A9.142,9.142,0,0,1,4.536-1.512,7.667,7.667,0,0,1,2.712-3.1a6.756,6.756,0,0,1-.84-3.744,7.8,7.8,0,0,1,.576-3.1,5.752,5.752,0,0,1,1.32-1.944,15.032,15.032,0,0,1,1.56-1.272,5.352,5.352,0,0,1,1.8-.84l1.9-.312a.514.514,0,0,0,.144-.312l-.024-.24v-.168a4.253,4.253,0,0,1-2.016.384H6.048q-.528-.072-.792-.1a14.353,14.353,0,0,0-1.8.1,4.148,4.148,0,0,0-1.248.336,1.452,1.452,0,0,0-.984,1.44,3.028,3.028,0,0,0,.072.816.982.982,0,0,0,.132.288,2.489,2.489,0,0,0,.372.288l.48.216h.1l-.1.072-.36.072-.5-.072-.624-.36a1.348,1.348,0,0,1-.54-.576,2.917,2.917,0,0,1-.18-.552,3.623,3.623,0,0,1-.048-.672l.072-.84a3.1,3.1,0,0,1,1.3-2.592,4.094,4.094,0,0,1,2.5-.816,5.324,5.324,0,0,1,3,.888,4.865,4.865,0,0,0,1.728.888.9.9,0,0,0,.684-.24,1.129,1.129,0,0,0,.228-.792.917.917,0,0,1,.216-.672.482.482,0,0,1,.5-.192q.216.072.216.48a.564.564,0,0,1-.168.468,1.194,1.194,0,0,0-.312.444,4.466,4.466,0,0,1-.456.984.44.44,0,0,0,.144.24l.36.1a.565.565,0,0,0,.408-.12,1.736,1.736,0,0,0,.264-.648l.144-.7.048-.384.624.216a4.114,4.114,0,0,0,1.152.192,3.376,3.376,0,0,0,.6-.048q.384-.12.6-.168l.384-.1a1.136,1.136,0,0,1-.072.5,3.608,3.608,0,0,1-.6,1.272,2.82,2.82,0,0,1-1.008.96,3.621,3.621,0,0,1-.72.192H11.28l-.624-.024H10.1a1.682,1.682,0,0,0-.528.1v3.84a4.278,4.278,0,0,0,.768-.288,3.21,3.21,0,0,0,.6-.384q.264-.216.432-.384a5.093,5.093,0,0,0,.408-.48l.288-.48.576.12a3.945,3.945,0,0,1,1.968,1.32A3.246,3.246,0,0,1,15.06-9.42,5.629,5.629,0,0,1,15.192-8.184ZM11.664-6.768v-.288a6.91,6.91,0,0,0-.1-1.392q-.216-1.008-.816-1.008a1.217,1.217,0,0,0-.7.144,2.122,2.122,0,0,0-.48,1.32v5.184h.312a3.765,3.765,0,0,0,.924-.1,1.819,1.819,0,0,0,.564-.228.687.687,0,0,0,.264-.42l.048-1.08v-.192l-.024-.768V-6.768ZM8.592-13.7H8.28a3.063,3.063,0,0,0-1.344.312A5,5,0,0,0,4.968-11.76a3.683,3.683,0,0,0-.552,1.44q-.072.48-.12.948a9.779,9.779,0,0,0-.048,1l.024.792.072.576A3.322,3.322,0,0,0,4.9-5.688a.771.771,0,0,0,.6.384l.048-1.9.024-1.272.024-.312v-.36l-.024-1.272v-.936a1.685,1.685,0,0,1-.048-.288l.72-.288a3.532,3.532,0,0,0,1.08-.7,8.71,8.71,0,0,1,.912-.84ZM9.336-2.832V-13.56l-.624.408a1.2,1.2,0,0,0-.288.552l-.072,1.344L8.3-9.864l.048,1.752.072,1.2L7.992-6.7q-.36.216-.588.348a4.752,4.752,0,0,0-.468.312,3.508,3.508,0,0,0-.312.252,7.22,7.22,0,0,0-.624.6l-.36.432q.24.216.492.408t.588.456A6.269,6.269,0,0,0,9.336-2.832Zm13.344.816a5.108,5.108,0,0,0-.888.048A2.327,2.327,0,0,0,21-1.86a1.48,1.48,0,0,0-.528.348,5.262,5.262,0,0,0-.624.936l-.264.552h-.216a2.611,2.611,0,0,1-.864-.12,1.874,1.874,0,0,1-.948-.648,7.258,7.258,0,0,1-.66-1.056l-.168-.384V-7.776a1.367,1.367,0,0,0-.24-.816l-.12-.144h.6a.786.786,0,0,1,.192-.048,2.878,2.878,0,0,0,1.5-.624,6.246,6.246,0,0,0,1.212-1.32l.192-.36.324.048a1.343,1.343,0,0,1,.324.1,2.163,2.163,0,0,1,1.128.768,5.028,5.028,0,0,1,.672,1.008l.168.384Zm-2.208.048V-7.9a.81.81,0,0,0-.1-.408q-.024-.12-.312-.36a1.261,1.261,0,0,0-.192-.12,1.869,1.869,0,0,0-.5-.168l-.408-.072v6.072a.623.623,0,0,0,.192.456l.384.336a1.286,1.286,0,0,0,.456.168Zm7.3-13.272a2.6,2.6,0,0,0-.528.288,1.432,1.432,0,0,0-.528,1.128V-2.448a.783.783,0,0,0,.408.72l.36.12-.312.264-.624.576-.5.7L25.92.12l-.336-.456-.648-.792a3.226,3.226,0,0,0-.768-.624l-.432-.288.24-.072a.588.588,0,0,0,.264-.5V-14.448l.984.816.312-.5a3.825,3.825,0,0,1,.744-.84,1.6,1.6,0,0,1,.5-.216l.624-.072h.24ZM35.016-1.92h-.48a2.167,2.167,0,0,0-.66.072q-.2.072-.324.12a1.5,1.5,0,0,0-.312.192,2.7,2.7,0,0,0-.888.96l-.264.624H31.68A2.275,2.275,0,0,1,30.12-.48a3.055,3.055,0,0,1-.852-.792,1.831,1.831,0,0,1-.324-.792V-7.992a.805.805,0,0,0-.12-.384.6.6,0,0,0-.432-.24l.6-.1a3.77,3.77,0,0,0,1.2-.552,2.3,2.3,0,0,0,.6-.984l.168-.6-.12-.264a6.7,6.7,0,0,0-.276-.612,4.03,4.03,0,0,0-.348-.54,8.965,8.965,0,0,0-.768-.84l-.5-.528.336.1.384.1.168.048h.408l.24-.552a2.316,2.316,0,0,1,.432-.816,2.347,2.347,0,0,1,.72-.432l.456-.168-.1.48-.1.768a3.431,3.431,0,0,0,.672,1.776l.792,1.176.48.672q.24.336.576.72l.6.648ZM32.832-8.28A2.061,2.061,0,0,0,32.64-8.9a1.526,1.526,0,0,0-.528-.576L31.9-9.624q-.192-.168-.432-.408l-.264-.336v7.512a.766.766,0,0,0,.24.6,2.394,2.394,0,0,0,1.344.288Z" transform="translate(468 273)" fill="#f9b82b"/>
      <g id="그룹_1" data-name="그룹 1" transform="translate(-19 -18)">
        <g id="layer1" transform="translate(464.875 179.864)">
          <path id="path847" d="M79.7.136s4.76,8.07-17.653,13a1.3,1.3,0,0,0,.187,2.087s13.115-4.743,14.69-6.186c0,0-1.576,9.433-14.538,11.083,0,0-.915,1.34,0,2.01,0,0,8.743-2.835,10.218-4.433,0,0-.509,6.5-10.777,9.64,0,0-11.943,2.171-13.654,9.981A51.412,51.412,0,0,1,44.306,45.2s-1.365,4.937-3.9,4.937h-.564c-2.535,0-3.9-4.937-3.9-4.937a51.415,51.415,0,0,1-3.868-7.886c-1.711-7.81-13.654-9.981-13.654-9.981-10.268-3.145-10.776-9.64-10.776-9.64,1.474,1.6,10.217,4.433,10.217,4.433.915-.67,0-2.01,0-2.01C4.9,18.465,3.323,9.032,3.323,9.032c1.576,1.443,14.689,6.186,14.689,6.186a1.3,1.3,0,0,0,.187-2.087C-4.213,8.206.548.136.548.136a69.008,69.008,0,0,1,21.53,7.322c8.767,3.4,13.257,25.32,13.257,25.32,1,5.986,4.789,6.663,4.789,6.663s3.787-.677,4.789-6.663c0,0,4.489-21.921,13.257-25.32A69.018,69.018,0,0,1,79.7.136Z" transform="translate(0 0)" fill="#f9b82b" stroke="#f9b82b" stroke-width="0.249"/>
        </g>
        <g id="타원_1" data-name="타원 1" transform="translate(455 153)" fill="none" stroke="#f9b82b" stroke-width="3">
          <circle cx="50" cy="50" r="50" stroke="none"/>
          <circle cx="50" cy="50" r="48.5" fill="none"/>
        </g>
      </g>
    </g>
    <rect id="사각형_11" data-name="사각형 11" width="150" height="150" transform="translate(414 596)" fill="none"/>
  </g>
</svg>
