<svg xmlns="http://www.w3.org/2000/svg" width="50" height="50" viewBox="0 0 50 50">
  <g id="gyeol" transform="translate(20 143)">
    <rect id="사각형_15" data-name="사각형 15" width="50" height="50" transform="translate(-20 -143)"/>
    <path id="패스_1" data-name="패스 1" d="M14.14-10.5a.612.612,0,0,1-.392-.112.516.516,0,0,1-.14-.42V-13.02q0-.364.154-.448a.78.78,0,0,1,.378-.084h5.208v-2.772H14.392a12.889,12.889,0,0,1-1.568,2.506A16.924,16.924,0,0,1,10.5-11.424,21.546,21.546,0,0,1,7.448-9.268,23.645,23.645,0,0,1,3.724-7.5a2.333,2.333,0,0,1-.6.2q-.126,0-.266-.308L1.848-9.744a.7.7,0,0,1-.1-.434q.042-.126.434-.294a24.305,24.305,0,0,0,5.7-3.234,9.59,9.59,0,0,0,3.038-4.046q.14-.336.07-.462t-.518-.126H3.332q-.364,0-.448-.168a.935.935,0,0,1-.084-.42v-1.988a.655.655,0,0,1,.112-.434.6.6,0,0,1,.448-.126h9.6a2.741,2.741,0,0,1,1.75.406,1.9,1.9,0,0,1,.462,1.47.46.46,0,0,1-.014.112.46.46,0,0,0-.014.112h4.2v-2.38a.6.6,0,0,1,.112-.42.6.6,0,0,1,.42-.112h2.8a.6.6,0,0,1,.42.112.6.6,0,0,1,.112.42V-8.792q0,.336-.112.42a.744.744,0,0,1-.42.084h-2.8a.744.744,0,0,1-.42-.084q-.112-.084-.112-.42V-10.5ZM23.324,4.7H8.26a4.089,4.089,0,0,1-.994-.1A1.259,1.259,0,0,1,6.678,4.3a1.064,1.064,0,0,1-.28-.56,4.435,4.435,0,0,1-.07-.854V-.784a4.391,4.391,0,0,1,.07-.868,1.055,1.055,0,0,1,.28-.546,1.159,1.159,0,0,1,.574-.294,4.54,4.54,0,0,1,.98-.084H19.068q.28,0,.28-.308v-.672q0-.336-.308-.336H6.832A.655.655,0,0,1,6.4-4a.6.6,0,0,1-.126-.448V-6.384q0-.532.56-.532H21.14a4.419,4.419,0,0,1,1.036.1,1.368,1.368,0,0,1,.616.308,1.008,1.008,0,0,1,.294.546,4.215,4.215,0,0,1,.07.84v3.64a4.8,4.8,0,0,1-.07.91.987.987,0,0,1-.28.546,1.148,1.148,0,0,1-.588.266A5.876,5.876,0,0,1,21.2.308H10.472q-.308,0-.308.28v.784q0,.308.336.308H23.3a.822.822,0,0,1,.434.084q.126.084.126.448V4.144Q23.856,4.7,23.324,4.7ZM34.188-4.452a1.217,1.217,0,0,1-.084.588q-.084.112-.476.112H31.192a.591.591,0,0,1-.434-.112,1.064,1.064,0,0,1-.1-.588L30.352-19.18a2.846,2.846,0,0,1,.028-.784q.056-.168.532-.168h3.024q.448,0,.518.168a2.622,2.622,0,0,1,.07.784ZM32.452,1.96a2.151,2.151,0,0,1-1.568-.6,2.01,2.01,0,0,1-.616-1.5,2.01,2.01,0,0,1,.616-1.5,2.151,2.151,0,0,1,1.568-.6,2.2,2.2,0,0,1,1.582.6,1.987,1.987,0,0,1,.63,1.5,1.955,1.955,0,0,1-.644,1.512A2.241,2.241,0,0,1,32.452,1.96Z" transform="translate(-14 -108)" fill="#d9d452"/>
  </g>
</svg>
