<svg xmlns="http://www.w3.org/2000/svg" width="50" height="50" viewBox="0 0 50 50">
  <g id="hap" transform="translate(-35 143)">
    <rect id="사각형_16" data-name="사각형 16" width="50" height="50" transform="translate(35 -143)"/>
    <path id="패스_2" data-name="패스 2" d="M25.564-12.656H22.092v4.928a.658.658,0,0,1-.1.42.541.541,0,0,1-.406.112H18.76a.5.5,0,0,1-.56-.56v-14q0-.532.56-.532h2.828q.5,0,.5.532v5.908h3.472a.866.866,0,0,1,.392.084q.168.084.168.448v2.1a.528.528,0,0,1-.154.448A.675.675,0,0,1,25.564-12.656ZM12.74-19.628H5.46a.759.759,0,0,1-.406-.112q-.182-.112-.182-.5v-1.568q0-.392.182-.49a.843.843,0,0,1,.406-.1h7.28a.544.544,0,0,1,.616.616v1.512a.844.844,0,0,1-.112.49Q13.132-19.628,12.74-19.628ZM16.324-15.9H1.652q-.588,0-.588-.616v-1.54a.544.544,0,0,1,.616-.616H16.324a.544.544,0,0,1,.616.616v1.568Q16.94-15.9,16.324-15.9ZM9.156-6.664a8.324,8.324,0,0,1-2.338-.322,6.782,6.782,0,0,1-1.946-.9A4.6,4.6,0,0,1,3.542-9.24a3.162,3.162,0,0,1-.49-1.708,3.03,3.03,0,0,1,.5-1.694A4.681,4.681,0,0,1,4.9-13.972a6.717,6.717,0,0,1,1.96-.868,8.832,8.832,0,0,1,2.352-.308,8.832,8.832,0,0,1,2.352.308,6.717,6.717,0,0,1,1.96.868,4.681,4.681,0,0,1,1.344,1.33,3.03,3.03,0,0,1,.5,1.694,3.232,3.232,0,0,1-.49,1.722,4.334,4.334,0,0,1-1.344,1.358,7.175,7.175,0,0,1-1.988.882A8.724,8.724,0,0,1,9.156-6.664ZM19.936,4.452H7.5a5.759,5.759,0,0,1-1.092-.084,1.387,1.387,0,0,1-.658-.294,1.148,1.148,0,0,1-.336-.6,4.419,4.419,0,0,1-.1-1.036V-4.956a.47.47,0,0,1,.532-.532H8.568a.718.718,0,0,1,.448.112.516.516,0,0,1,.14.42v1.792h9.072V-5.18a.5.5,0,0,1,.56-.56H21.56q.5,0,.5.56v7.7a2.174,2.174,0,0,1-.406,1.512A2.481,2.481,0,0,1,19.936,4.452ZM9.212-12.46a3.113,3.113,0,0,0-1.9.49,1.338,1.338,0,0,0-.644,1.022,1.4,1.4,0,0,0,.672,1.092,3.07,3.07,0,0,0,1.876.5,3.059,3.059,0,0,0,1.89-.5,1.4,1.4,0,0,0,.658-1.092,1.338,1.338,0,0,0-.644-1.022A3.113,3.113,0,0,0,9.212-12.46ZM18.228-.336H9.156V1.288a.223.223,0,0,0,.252.252L18,1.512a.2.2,0,0,0,.224-.224Zm15.96-4.116a1.217,1.217,0,0,1-.084.588q-.084.112-.476.112H31.192a.591.591,0,0,1-.434-.112,1.064,1.064,0,0,1-.1-.588L30.352-19.18a2.846,2.846,0,0,1,.028-.784q.056-.168.532-.168h3.024q.448,0,.518.168a2.622,2.622,0,0,1,.07.784ZM32.452,1.96a2.151,2.151,0,0,1-1.568-.6,2.01,2.01,0,0,1-.616-1.5,2.01,2.01,0,0,1,.616-1.5,2.151,2.151,0,0,1,1.568-.6,2.2,2.2,0,0,1,1.582.6,1.987,1.987,0,0,1,.63,1.5,1.955,1.955,0,0,1-.644,1.512A2.241,2.241,0,0,1,32.452,1.96Z" transform="translate(41 -108)" fill="#d9d452"/>
  </g>
</svg>
