<svg xmlns="http://www.w3.org/2000/svg" width="100" height="100" viewBox="0 0 100 100">
  <g id="itemcopy" transform="translate(-593 -184)">
    <g id="타원_3" data-name="타원 3" transform="translate(593 184)" fill="#fff" stroke="#000" stroke-width="1">
      <circle cx="50" cy="50" r="50" stroke="none"/>
      <circle cx="50" cy="50" r="49.5" fill="none"/>
    </g>
    <g id="그룹_7" data-name="그룹 7" transform="translate(27 -2)">
      <rect id="사각형_18" data-name="사각형 18" width="35" height="45" transform="translate(612 209)" fill="#a3a3a3"/>
      <line id="선_2" data-name="선 2" x2="27" transform="translate(616.5 213.5)" fill="none" stroke="#fff" stroke-width="1"/>
      <line id="선_2-2" data-name="선 2" x2="27" transform="translate(616.5 220.5)" fill="none" stroke="#fff" stroke-width="1"/>
      <line id="선_3" data-name="선 3" x2="27" transform="translate(616.5 227.5)" fill="none" stroke="#fff" stroke-width="1"/>
      <line id="선_4" data-name="선 4" x2="27" transform="translate(616.5 234.5)" fill="none" stroke="#fff" stroke-width="1"/>
      <line id="선_5" data-name="선 5" x2="27" transform="translate(616.5 241.5)" fill="none" stroke="#fff" stroke-width="1"/>
      <line id="선_6" data-name="선 6" x2="27" transform="translate(616.5 248.5)" fill="none" stroke="#fff" stroke-width="1"/>
    </g>
    <g id="그룹_6" data-name="그룹 6" transform="translate(0 7)">
      <rect id="사각형_18-2" data-name="사각형 18" width="35" height="45" transform="translate(612 209)" fill="#77b9db"/>
      <line id="선_2-3" data-name="선 2" x2="27" transform="translate(616.5 213.5)" fill="none" stroke="#fff" stroke-width="1"/>
      <line id="선_2-4" data-name="선 2" x2="27" transform="translate(616.5 220.5)" fill="none" stroke="#fff" stroke-width="1"/>
      <line id="선_3-2" data-name="선 3" x2="27" transform="translate(616.5 227.5)" fill="none" stroke="#fff" stroke-width="1"/>
      <line id="선_4-2" data-name="선 4" x2="27" transform="translate(616.5 234.5)" fill="none" stroke="#fff" stroke-width="1"/>
      <line id="선_5-2" data-name="선 5" x2="27" transform="translate(616.5 241.5)" fill="none" stroke="#fff" stroke-width="1"/>
      <line id="선_6-2" data-name="선 6" x2="27" transform="translate(616.5 248.5)" fill="none" stroke="#fff" stroke-width="1"/>
    </g>
  </g>
</svg>
