<svg xmlns="http://www.w3.org/2000/svg" width="100" height="100" viewBox="0 0 100 100">
  <g id="lifesymbol" transform="translate(-439 -599)">
    <g id="타원_1" data-name="타원 1" transform="translate(439 599)" fill="#fff" stroke="#f9b82b" stroke-width="3">
      <circle cx="50" cy="50" r="50" stroke="none"/>
      <circle cx="50" cy="50" r="48.5" fill="none"/>
    </g>
    <g id="layer1" transform="translate(448.875 625.864)">
      <path id="path847" d="M79.7.136s4.76,8.07-17.653,13a1.3,1.3,0,0,0,.187,2.087s13.115-4.743,14.69-6.186c0,0-1.576,9.433-14.538,11.083,0,0-.915,1.34,0,2.01,0,0,8.743-2.835,10.218-4.433,0,0-.509,6.5-10.777,9.64,0,0-11.943,2.171-13.654,9.981A51.412,51.412,0,0,1,44.306,45.2s-1.365,4.937-3.9,4.937h-.564c-2.535,0-3.9-4.937-3.9-4.937a51.415,51.415,0,0,1-3.868-7.886c-1.711-7.81-13.654-9.981-13.654-9.981-10.268-3.145-10.776-9.64-10.776-9.64,1.474,1.6,10.217,4.433,10.217,4.433.915-.67,0-2.01,0-2.01C4.9,18.465,3.323,9.032,3.323,9.032c1.576,1.443,14.689,6.186,14.689,6.186a1.3,1.3,0,0,0,.187-2.087C-4.213,8.206.548.136.548.136a69.008,69.008,0,0,1,21.53,7.322c8.767,3.4,13.257,25.32,13.257,25.32,1,5.986,4.789,6.663,4.789,6.663s3.787-.677,4.789-6.663c0,0,4.489-21.921,13.257-25.32A69.018,69.018,0,0,1,79.7.136Z" transform="translate(0 0)" fill="#f9b82b" stroke="#f9b82b" stroke-width="0.249"/>
    </g>
  </g>
</svg>
