<svg xmlns="http://www.w3.org/2000/svg" width="150" height="150" viewBox="0 0 150 150">
  <g id="mrank" transform="translate(-227 -786)">
    <g id="MasterRank" transform="translate(-548 616)">
      <path id="패스_11" data-name="패스 11" d="M20.592-1.92l-.384.24-.84.624a2.724,2.724,0,0,0-.432.432q-.24.288-.432.552L18.36.216,18.144.1A2.6,2.6,0,0,1,17.28-.84a3.08,3.08,0,0,1-.2-.468q-.108-.3-.2-.636l-.1-.5L16.8-4.776V-6.912H14.784v2.856a7.544,7.544,0,0,0,.084,1.608,1.01,1.01,0,0,0,.348.384l.24.144-.384.24-.864.648a2.725,2.725,0,0,0-.72.792L13.2.216l-.36-.24a2.467,2.467,0,0,1-.36-.336,4.814,4.814,0,0,1-.36-.5,3.333,3.333,0,0,1-.216-.48,4.559,4.559,0,0,1-.168-.6l-.1-.5.024-4.464H9.744v3.384a.94.94,0,0,1-.06.36q-.06.144-.2.432a2.544,2.544,0,0,1-.756.84A3.562,3.562,0,0,0,7.776-.72l-.336.7L7.032-.216,5.928-.7a2.344,2.344,0,0,1-.672.84,5.646,5.646,0,0,1-1.224.78,3.761,3.761,0,0,1-1.656.348A3.088,3.088,0,0,1,.744.864,1.586,1.586,0,0,1-.024-.576L0-.84A3.64,3.64,0,0,1,.96-3.024,3.151,3.151,0,0,1,3.384-4.1l.36.024a14.36,14.36,0,0,1,2.592.456,3.308,3.308,0,0,1,.384.1q.24.072.48.168l.144-.192a1.219,1.219,0,0,0,.144-.48,1.524,1.524,0,0,0-.1-.432l-.36-.456a3.666,3.666,0,0,0-.864-.7,2.333,2.333,0,0,0-.624-.192l-.216.072q-.192.048-.408.1l-.5.024H4.008l-.144-.168a1.164,1.164,0,0,1-.12-.528l.024-.36A2,2,0,0,1,4.1-7.3l.24-.336L3.7-7.416a1.047,1.047,0,0,0-.672,1.008,2.44,2.44,0,0,0,.36,1.224l.36.48a6.079,6.079,0,0,1-1.032-.432,1.97,1.97,0,0,1-1.08-1.752A2.922,2.922,0,0,1,2.808-9.36a4.2,4.2,0,0,1,1.176-.576,2.768,2.768,0,0,1,.12-.6,4.771,4.771,0,0,1,2.424-2.448q.7-.36,1.032-.576t.912-.624a3,3,0,0,0,.384-.288q.192-.168.408-.384l-.912.216a13.289,13.289,0,0,1-2.3.216h-.6l-.288-.024a7.952,7.952,0,0,0-3.024.432,1.442,1.442,0,0,0-.96,1.464,1.592,1.592,0,0,0,.408,1.272,1.282,1.282,0,0,0,.84.24,1.87,1.87,0,0,0,.7-.144l.264-.144-.072.168a.947.947,0,0,1-.84.384A2.526,2.526,0,0,1,.96-11.352a2.532,2.532,0,0,1-.984-2.112L0-13.872a3.545,3.545,0,0,1,1.416-2.592,3.853,3.853,0,0,1,2.376-.816,6.562,6.562,0,0,1,2.5.792,6.75,6.75,0,0,0,2.256.792.71.71,0,0,0,.624-.456,1.959,1.959,0,0,0,.12-.36q.1-.336.168-.576.192-.672.648-.672l.192.072a.236.236,0,0,1,.12.216.984.984,0,0,1-.12.432l-.192.552L9.7-15.168l.168.048.216.024a1.116,1.116,0,0,0,.384-.048l.384-.168a1.517,1.517,0,0,0,.276-.228,5.031,5.031,0,0,0,.4-.468,3.352,3.352,0,0,0,.432-.528l.36.288q.312.24.648.528.192.168.528.456a2.73,2.73,0,0,0,.336.264l.48.336.528.288v.48l.5-.432.624-.5a4.977,4.977,0,0,0,1.224-1.3l.168-.288,1.272,1.152.84.6.528.288-.048,3.216L19.92-8.424v3.768a12.45,12.45,0,0,0,.1,2.184,1.407,1.407,0,0,0,.36.408ZM16.848-8.592l-.024-2.136-.048-1.824-.024-.648-.144-.384a.876.876,0,0,0-.312-.264l-.408-.1a1.155,1.155,0,0,0-.444.084.824.824,0,0,0-.348.276l-.288.192-.024,2.424v2.376Zm0,.264H14.784v1.2H16.8l.024-.816Zm-5.136-.264-.024-2.136-.024-1.824-.048-.72a.458.458,0,0,0-.144-.264.56.56,0,0,0-.312-.24l-.384-.144-.84-.024-.192.024v5.328Zm0,.264H9.744v1.2h1.92l.024-.816Zm-2.136,4.1V-13.9a2.223,2.223,0,0,0-1.38.852,2.977,2.977,0,0,0-.564,1.908A3.846,3.846,0,0,0,7.7-10.4a3.326,3.326,0,0,0,.264.78,6.533,6.533,0,0,1,.744,2.16l.024.792a2.859,2.859,0,0,0,.048.624q0,.48-.024.744t-.1.648A3.713,3.713,0,0,1,8.04-3.312l.264.048a1.239,1.239,0,0,0,.624-.18A2.033,2.033,0,0,0,9.576-4.224ZM5.64-.768l-.816-.24-.552-.1-.624-.048a3.545,3.545,0,0,0-1.368.24.849.849,0,0,0-.576.84.681.681,0,0,0,.336.66,1.764,1.764,0,0,0,.84.18A2.86,2.86,0,0,0,3.5.72L3.936.6a2.9,2.9,0,0,0,1.08-.672A2.966,2.966,0,0,0,5.64-.768ZM28.584-1.824l-.768.768a4.062,4.062,0,0,0-.576.84l-.12.24L26.9-.1a1.752,1.752,0,0,1-.7-.552,2.963,2.963,0,0,1-.456-.84l-.1-.288-.384.216-.648.456a4.1,4.1,0,0,0-.552.7L23.76.024l-.5-.168A2.856,2.856,0,0,1,22.5-.516a3.11,3.11,0,0,1-.588-.78l-.264-.528V-8.856l.768-.12a4.462,4.462,0,0,0,1.608-.72,7.752,7.752,0,0,0,.612-.492,3.206,3.206,0,0,0,.444-.492l.192-.384.456.336,1.1.648,1.152.552.48.216a.555.555,0,0,0-.432.528,8.839,8.839,0,0,0-.1.888q-.024.432-.024,1.368v1.2A21.54,21.54,0,0,0,28.02-2.58Q28.128-1.92,28.584-1.824ZM26.112-8.472l-.456-.072-.624-.144-.456-.288a1.342,1.342,0,0,0-.48-.24l-.192.072-.048,5.832.1.456a1.1,1.1,0,0,0,.24.336l.36.384a.59.59,0,0,0,.264.192.684.684,0,0,0,.576-.288l.312-.456V-7.2l.1-.168.192-.384.1-.336Zm10.608,4.3a2.571,2.571,0,0,1-.552,1.92,13.912,13.912,0,0,0-1.464.768L33.456-.432,33.024,0l-.48-.384a1.833,1.833,0,0,0-1.032-.36,1.049,1.049,0,0,0-.816.432,1.693,1.693,0,0,0-.288.96,1.66,1.66,0,0,0,.432,1.1,1.847,1.847,0,0,0,1.44.648,3.1,3.1,0,0,0,1.968-.552,1.993,1.993,0,0,0,.456-.6,3.654,3.654,0,0,1-.2.4,1.168,1.168,0,0,1-.252.3,2.661,2.661,0,0,1-1.968.7,2.526,2.526,0,0,1-2.064-.84,2.2,2.2,0,0,1-.408-.768,3.512,3.512,0,0,1-.144-1.056,3.577,3.577,0,0,1,.552-1.752q.072-.12.216-.324a3.044,3.044,0,0,1,.336-.4l1.7-2.28a1.615,1.615,0,0,1-.648-.24,2.763,2.763,0,0,1-1.44-2.664v-1.2H30.7a2.456,2.456,0,0,0,.732-.108,4.212,4.212,0,0,0,.78-.348,5.66,5.66,0,0,0,1.152-1.056q.072-.072.192-.2a4.68,4.68,0,0,0,.336-.444l.264.432a1.888,1.888,0,0,0,.864.624l.792.12.672.048h.168l-.528.888a3.345,3.345,0,0,0-.408.792l-.048.144L35.52-8.04l-.84,1.128.648.216A2.624,2.624,0,0,1,36.72-4.176ZM34.944-8.184l-.5-.072L33.912-8.3a2.285,2.285,0,0,1-1.056-.288L32.4-8.928l.072.624a2.37,2.37,0,0,0,.276.936,1.259,1.259,0,0,0,.756.408l.48.1Zm-.48,4.944a1.279,1.279,0,0,0-.72-1.248,3.12,3.12,0,0,0-.768-.168l-1.56,2.064.144-.12a1.808,1.808,0,0,1,.7-.12,3.125,3.125,0,0,1,1.416.456l.744.48.048-.312ZM42.576-12.1l-1.176.984v8.328a.771.771,0,0,0,.408.744l.432.12-.336.288-.672.672q-.192.24-.288.348a2.729,2.729,0,0,0-.264.4l-.144.192-.384-.5-.744-.888a4.927,4.927,0,0,0-.816-.72l-.48-.312a.753.753,0,0,0,.36-.156.891.891,0,0,0,.192-.468l-.024-7.7q0-.36-.648-.528l-.648-.1.48-.24a10.153,10.153,0,0,0,1.776-1.2,11.266,11.266,0,0,0,1.224-1.488l.576-.888v3.12Zm6.648,8.9a1.834,1.834,0,0,1-.408,1.008,4,4,0,0,1-.744.816,2.82,2.82,0,0,0-.672.816l-.384.576h-.408a3.694,3.694,0,0,1-.84-.072,1.878,1.878,0,0,1-1-.552,4.956,4.956,0,0,1-.684-.984,2.248,2.248,0,0,1-.312-1.056V-9.024h.264q.216,0,.492-.012a5.414,5.414,0,0,0,.684-.084,1.384,1.384,0,0,0,.744-.408,7.118,7.118,0,0,0,.768-.96l.36-.552a.989.989,0,0,1,.432.144,2.325,2.325,0,0,1,.876.684,3.158,3.158,0,0,1,.636,1.14l.072.216-.072.528a2.614,2.614,0,0,1-.12.48,1.266,1.266,0,0,1-.24.384L47.16-5.808a2.922,2.922,0,0,0-.216.24,4.366,4.366,0,0,0-.408.6l-.264.408v1.44a1.069,1.069,0,0,0,.432.84,2.55,2.55,0,0,0,.444.216,1.321,1.321,0,0,0,.468.1.852.852,0,0,0,.66-.312,1,1,0,0,0,.276-.672.809.809,0,0,0-.1-.36l-.24-.6a.293.293,0,0,1,.168-.264.591.591,0,0,1,.264-.1q.264,0,.42.336A1.745,1.745,0,0,1,49.224-3.192ZM47.448-7.3a1.932,1.932,0,0,0-.4-.936q-.4-.6-.78-.6v3.216l.84-.864A1.286,1.286,0,0,0,47.448-7.3Zm9.672-3.48-.432.288q-.192.168-.4.372t-.444.492q-.1.12-.312.444t-.36.588l-.216.5a2.277,2.277,0,0,0-.36-.648.778.778,0,0,0-.576-.288.82.82,0,0,0-.624.288.993.993,0,0,0-.264.7v4.224a2.912,2.912,0,0,0,.1.864q.192.864.792.864a.654.654,0,0,0,.468-.132.99.99,0,0,0,.132-.636l-.12-.288a1.45,1.45,0,0,1-.312-.672.482.482,0,0,1,.156-.348A.482.482,0,0,1,54.7-4.32a.466.466,0,0,1,.36.216.873.873,0,0,1,.168.552,2.375,2.375,0,0,1-.168.912,2.45,2.45,0,0,1-.96,1.08,7.711,7.711,0,0,0-.936.96l-.408.576-.312-.36a13.089,13.089,0,0,0-.936-.984L50.76-2.04l-.24-.216a.342.342,0,0,0,.288-.2,1.115,1.115,0,0,0,.12-.564V-8.472A.647.647,0,0,0,50.5-9.1l-.432-.144.36-.312.672-.624.384-.552.216-.36.312.192a1.308,1.308,0,0,1,.552.456l.408.624.192.36.192-.12a3.135,3.135,0,0,0,.624-.5l.36-.528.168-.312.168.072a2.925,2.925,0,0,0,.816.144l1.152-.024Z" transform="translate(821 296)"/>
      <g id="layer1" transform="translate(774.875 174.864)">
        <path id="path847" d="M149.331.136s8.925,14.527-33.1,23.392a2.282,2.282,0,0,0,.351,3.756s24.59-8.537,27.544-11.135c0,0-2.956,16.98-27.259,19.949,0,0-1.716,2.413,0,3.619,0,0,16.394-5.1,19.158-7.98,0,0-.954,11.691-20.206,17.351,0,0-22.393,3.909-25.6,17.966a90.974,90.974,0,0,1-7.252,14.2s-2.56,8.886-7.313,8.886H74.594c-4.753,0-7.313-8.886-7.313-8.886a90.978,90.978,0,0,1-7.252-14.2C56.821,53,34.428,49.088,34.428,49.088c-19.252-5.66-20.2-17.351-20.2-17.351,2.764,2.876,19.156,7.98,19.156,7.98,1.716-1.206,0-3.619,0-3.619C9.076,33.129,6.122,16.149,6.122,16.149c2.955,2.6,27.542,11.135,27.542,11.135a2.282,2.282,0,0,0,.351-3.756C-8.009,14.663.918.136.918.136a132.869,132.869,0,0,1,40.37,13.18c16.438,6.119,24.856,45.576,24.856,45.576,1.879,10.775,8.98,11.994,8.98,11.994s7.1-1.219,8.98-11.994c0,0,8.418-39.457,24.856-45.576A132.889,132.889,0,0,1,149.331.136Z" transform="translate(0 0)"/>
      </g>
    </g>
    <rect id="사각형_10" data-name="사각형 10" width="150" height="150" transform="translate(227 786)" fill="none"/>
  </g>
</svg>
