<svg xmlns="http://www.w3.org/2000/svg" width="100" height="100" viewBox="0 0 100 100">
  <g id="muligunplus" transform="translate(-815 -184)">
    <circle id="타원_2" data-name="타원 2" cx="50" cy="50" r="50" transform="translate(815 184)" fill="#902727"/>
    <g id="사각형_16" data-name="사각형 16" transform="translate(824 222)" stroke="#bcb4b4" stroke-width="1">
      <rect width="15" height="25" rx="3" stroke="none"/>
      <rect x="0.5" y="0.5" width="14" height="24" rx="2.5" fill="none"/>
    </g>
    <g id="사각형_19" data-name="사각형 19" transform="translate(841 222)" stroke="#bcb4b4" stroke-width="1">
      <rect width="15" height="25" rx="3" stroke="none"/>
      <rect x="0.5" y="0.5" width="14" height="24" rx="2.5" fill="none"/>
    </g>
    <g id="사각형_20" data-name="사각형 20" transform="translate(858 222)" stroke="#bcb4b4" stroke-width="1">
      <rect width="15" height="25" rx="3" stroke="none"/>
      <rect x="0.5" y="0.5" width="14" height="24" rx="2.5" fill="none"/>
    </g>
    <g id="사각형_21" data-name="사각형 21" transform="translate(875 222)" stroke="#bcb4b4" stroke-width="1">
      <rect width="15" height="25" rx="3" stroke="none"/>
      <rect x="0.5" y="0.5" width="14" height="24" rx="2.5" fill="none"/>
    </g>
    <path id="패스_22" data-name="패스 22" d="M-2.976-3.3V-.768a.127.127,0,0,1-.144.144H-4.1a.127.127,0,0,1-.144-.144V-3.3H-6.792a.139.139,0,0,1-.1-.042.139.139,0,0,1-.042-.1V-4.38a.139.139,0,0,1,.042-.1.139.139,0,0,1,.1-.042h2.544v-2.52a.139.139,0,0,1,.042-.1.139.139,0,0,1,.1-.042h.984a.139.139,0,0,1,.1.042.139.139,0,0,1,.042.1v2.52H-.444A.127.127,0,0,1-.3-4.38v.936A.127.127,0,0,1-.444-3.3ZM3.72.648q-.168,0-.168-.156v-7.1l-.888.768a.287.287,0,0,1-.138.06A.138.138,0,0,1,2.4-5.82l-.54-.648a.159.159,0,0,1-.03-.114A.205.205,0,0,1,1.9-6.708L3.732-8.4a.258.258,0,0,1,.084-.048.277.277,0,0,1,.1-.024h.636a.421.421,0,0,1,.246.042.522.522,0,0,1,.042.282V.492A.138.138,0,0,1,4.68.648Z" transform="translate(901 238)"/>
  </g>
</svg>
