<svg xmlns="http://www.w3.org/2000/svg" width="100" height="100" viewBox="0 0 100 100">
  <g id="orderselect" transform="translate(-593 -288)">
    <g id="타원_3" data-name="타원 3" transform="translate(593 288)" fill="#fff" stroke="#000" stroke-width="1">
      <circle cx="50" cy="50" r="50" stroke="none"/>
      <circle cx="50" cy="50" r="49.5" fill="none"/>
    </g>
    <path id="패스_21" data-name="패스 21" d="M12.06-26.748q-.288,1.044-.594,2.088t-.7,2.088h4.608V-28.08h3.492v5.508h9.468v3.132H18.864v5.76H31.212v3.24h-9V-.72a.782.782,0,0,0,.594.828,7.514,7.514,0,0,0,1.962.18h.864A6.915,6.915,0,0,0,27.5.108,1.323,1.323,0,0,0,28.26-.36a7.256,7.256,0,0,0,.288-1.584q.108-1.08.18-2.412l3.384,1.008q-.072,1.62-.252,2.9a6.358,6.358,0,0,1-.576,2.034,2.952,2.952,0,0,1-.576.882,2.885,2.885,0,0,1-1.044.648,7.679,7.679,0,0,1-1.782.414,22.149,22.149,0,0,1-2.79.144,22.322,22.322,0,0,1-3.114-.18,6.592,6.592,0,0,1-1.962-.54,2.247,2.247,0,0,1-1.026-.936,3.046,3.046,0,0,1-.306-1.44V-10.44H14.508a23.354,23.354,0,0,1-.954,4.806,15.859,15.859,0,0,1-1.962,4.086A15.025,15.025,0,0,1,8.424,1.836,20.546,20.546,0,0,1,3.888,4.5L1.908,1.512A18.928,18.928,0,0,0,5.67-.612a12.933,12.933,0,0,0,2.7-2.664A12.282,12.282,0,0,0,10.1-6.534a18.093,18.093,0,0,0,.882-3.906H2.664v-3.24H15.372v-5.76H9.432q-.684,1.368-1.476,2.646a26.311,26.311,0,0,1-1.764,2.5l-2.808-2.16a25.437,25.437,0,0,0,3.348-5.436A30.107,30.107,0,0,0,8.748-27.72ZM38.052,3.96a.767.767,0,0,1-.342.414,1.172,1.172,0,0,1-.486.09H34.632a.923.923,0,0,1-.594-.162q-.2-.162-.054-.594L43.308-25.7a.56.56,0,0,1,.576-.4h2.844q.828,0,.612.72ZM75.708-24.7q-.72.972-1.6,2.106T72.252-20.3q-.972,1.152-2.016,2.286T68.22-15.876l2.34-.144,2.268-.144q-.288-.5-.612-.99t-.648-.99l2.988-1.4q.756,1.116,1.35,2T77-15.84q.5.828.954,1.692T78.84-12.2l-3.06,1.62q-.36-.72-.684-1.4t-.684-1.368q-1.944.18-3.942.36t-4.05.36q-.252.4-.5.828t-.54.864h8.856l2.124,2.232A26.868,26.868,0,0,1,70.74-1.836,33.209,33.209,0,0,0,74.79-.18,29.254,29.254,0,0,0,79.308.936L77.724,4.1a34.187,34.187,0,0,1-4.878-1.44A27.488,27.488,0,0,1,67.968.252a26.85,26.85,0,0,1-4.716,2.52,39.6,39.6,0,0,1-5.328,1.764L56.2,1.512a33.336,33.336,0,0,0,4.68-1.44,32.4,32.4,0,0,0,4.1-1.944q-.972-.828-1.872-1.746a21.763,21.763,0,0,1-1.728-2q-.828.864-1.692,1.692A23.522,23.522,0,0,1,57.852-2.34L55.944-4.86V4.356H52.38V-5.4q0-.576.054-1.35t.126-1.494q-.468.5-.918,1.008t-.918,1.008L49.032-9.864a27.937,27.937,0,0,0,3.978-4.86,41.78,41.78,0,0,0,3.042-5.508L59.076-18.5q-.72,1.584-1.494,2.988T55.944-12.78v7.488a25.991,25.991,0,0,0,3.4-3.2,27.067,27.067,0,0,0,2.826-3.816q-1.044.072-2.088.108t-2.052.108l-.4-3.42,2.826-.072q1.458-.036,2.97-.108.468-.432.918-.864t.882-.9q-1.62-.792-3.312-1.548t-3.564-1.476l1.584-2.808q.54.216,1.062.432t1.026.4q.54-.648,1.08-1.4t1.044-1.53q.5-.774.972-1.53t.792-1.4l3.2,1.44q-1.08,1.8-2,3.114t-2,2.682q.648.288,1.242.54t1.206.54q1.476-1.692,2.718-3.33T72.5-26.424Zm-16.6-1.98a31.427,31.427,0,0,1-3.6,5.382,48.032,48.032,0,0,1-4.464,4.734L49-19.62a30,30,0,0,0,3.942-3.96,25.294,25.294,0,0,0,3.15-4.752ZM63.36-7.956a16.836,16.836,0,0,0,4.356,4.284,16.232,16.232,0,0,0,4.14-4.32h-8.5Z" transform="translate(602.5 349)"/>
  </g>
</svg>
