<svg xmlns="http://www.w3.org/2000/svg" width="150" height="150" viewBox="0 0 150 150">
  <g id="prank" transform="translate(-227 -636)">
    <g id="PlaRank" transform="translate(-310 508)">
      <path id="패스_16" data-name="패스 16" d="M11.466-7.992a3.424,3.424,0,0,1-1.458,3.1,4.16,4.16,0,0,1-1.035.432,4.465,4.465,0,0,1-1.2.162L7.434-4.32v1.386l.036.342a1.533,1.533,0,0,1-.18.684,1.907,1.907,0,0,1-.621.675,3.635,3.635,0,0,0-.783.765l-.324.45L5.4-.108,4.428-.522a1.434,1.434,0,0,1-.5.63A3.9,3.9,0,0,1,2.952.7,2.8,2.8,0,0,1,1.764.936,2.343,2.343,0,0,1,.5.612,1.153,1.153,0,0,1-.018-.45v-.2A2.651,2.651,0,0,1,.72-2.268,2.325,2.325,0,0,1,2.5-3.078l.306.018a9.627,9.627,0,0,1,1.908.342,1.794,1.794,0,0,1,.315.072q.171.054.369.126l.09-.144a.914.914,0,0,0,.108-.36.8.8,0,0,0-.09-.36,1.077,1.077,0,0,0-.252-.324,2.641,2.641,0,0,0-.63-.5,1.532,1.532,0,0,0-.486-.144A.365.365,0,0,0,4-4.311a.557.557,0,0,1-.189.054l-.261.045-.306.018H3.06l-.072-.018-.054-.054a1.046,1.046,0,0,1-.144-.45l.018-.18a1.5,1.5,0,0,1,.234-.576l.2-.252-.486.162a.785.785,0,0,0-.5.756,1.7,1.7,0,0,0,.27.918,1,1,0,0,1,.081.117,1.544,1.544,0,0,0,.207.243,3.158,3.158,0,0,1-.792-.324,1.477,1.477,0,0,1-.81-1.314,2.21,2.21,0,0,1,.882-1.872,2.881,2.881,0,0,1,.882-.414,2.076,2.076,0,0,1,.09-.45,3.55,3.55,0,0,1,1.8-1.854,11.612,11.612,0,0,0,1.476-.882,2.252,2.252,0,0,0,.288-.216q.144-.126.306-.288L6.03-11q-.5.072-1.107.126t-1.071.054l-.324-.018-.342-.018q-2.34,0-2.34,1.44a1.155,1.155,0,0,0,.324.954.962.962,0,0,0,.63.18,1.4,1.4,0,0,0,.522-.108L2.538-8.5l-.126.18A.81.81,0,0,1,2-8.1l-.342.018A1.544,1.544,0,0,1,.522-8.55a2.019,2.019,0,0,1-.54-1.494v-.36a2.755,2.755,0,0,1,1.044-1.944,2.991,2.991,0,0,1,1.818-.612,5.048,5.048,0,0,1,1.854.594,5.242,5.242,0,0,0,1.692.594.413.413,0,0,0,.36-.18,3.576,3.576,0,0,0,.324-.828q.144-.54.486-.54l.162.054a.2.2,0,0,1,.09.162,1.091,1.091,0,0,1-.126.414l-.126.324-.306.99H7.6A.839.839,0,0,0,8-11.565q.225-.171.243-.189a1.429,1.429,0,0,0,.306-.432l.18-.36a1.542,1.542,0,0,1,.324.108,3,3,0,0,1,1.314.882,3.509,3.509,0,0,1,.81,1.593A7.634,7.634,0,0,1,11.466-7.992ZM9.108-7.4a9.054,9.054,0,0,0-.153-1.908,1.932,1.932,0,0,0-.4-.918l-.378-.288a.625.625,0,0,0-.36-.126H7.434V-7.4Zm0,.306v-.162H7.434v.936H9.09Zm-.036.936H7.434V-4.59a1.566,1.566,0,0,0,1.26-.432,1.983,1.983,0,0,0,.216-.414Q8.964-5.6,9-5.751T9.072-6.156ZM7.254-3.276V-10.62a1.025,1.025,0,0,0-.342.09,2.772,2.772,0,0,0-1.062.756,2.363,2.363,0,0,0-.378,1.386A2.758,2.758,0,0,0,6-6.912,2.641,2.641,0,0,1,6.534-5.58v.612l.036.432A4.94,4.94,0,0,1,6.453-3.42a2.483,2.483,0,0,1-.441.936l.18.036a.943.943,0,0,0,.621-.216A1.679,1.679,0,0,0,7.254-3.276ZM4.212-.576,3.6-.756,3.168-.828l-.45-.036a2.643,2.643,0,0,0-1.035.18.637.637,0,0,0-.423.63A.516.516,0,0,0,1.5.441a1.312,1.312,0,0,0,.639.135A2.03,2.03,0,0,0,2.592.54L2.934.45a2.819,2.819,0,0,0,.81-.5,2.1,2.1,0,0,0,.234-.234A3.562,3.562,0,0,0,4.212-.576ZM15.138-11.43a1.952,1.952,0,0,0-.4.216,1.074,1.074,0,0,0-.4.846v8.532a.587.587,0,0,0,.306.54l.27.09-.234.2-.468.432-.378.522-.09.144L13.5-.252l-.486-.594a2.419,2.419,0,0,0-.576-.468l-.324-.216.18-.054a.441.441,0,0,0,.2-.378v-8.874l.738.612.234-.378a2.869,2.869,0,0,1,.558-.63,1.2,1.2,0,0,1,.378-.162l.468-.054h.18ZM20.862-1.368l-.576.576a3.046,3.046,0,0,0-.432.63l-.09.18L19.6-.072a1.314,1.314,0,0,1-.522-.414,2.222,2.222,0,0,1-.342-.63l-.072-.216-.288.162-.486.342a3.071,3.071,0,0,0-.414.522l-.234.324-.378-.126A2.142,2.142,0,0,1,16.3-.387a2.333,2.333,0,0,1-.441-.585l-.2-.4V-6.642l.576-.09a3.346,3.346,0,0,0,1.206-.54,5.814,5.814,0,0,0,.459-.369,2.4,2.4,0,0,0,.333-.369l.144-.288.342.252.828.486.864.414.36.162a.416.416,0,0,0-.324.4,6.63,6.63,0,0,0-.072.666q-.018.324-.018,1.026V-4a16.155,16.155,0,0,0,.081,2.061Q20.52-1.44,20.862-1.368ZM19.008-6.354l-.342-.054L18.2-6.516l-.342-.216a1.006,1.006,0,0,0-.36-.18l-.144.054-.036,4.374.072.342a.822.822,0,0,0,.18.252l.27.288a.443.443,0,0,0,.2.144.513.513,0,0,0,.432-.216l.234-.342V-5.4l.072-.126.144-.288.072-.252Zm6.228-2.718-.882.738v6.246a.578.578,0,0,0,.306.558l.324.09-.252.216-.5.5q-.144.18-.216.261a2.046,2.046,0,0,0-.2.3l-.108.144L23.418-.4l-.558-.666a3.7,3.7,0,0,0-.612-.54l-.36-.234a.565.565,0,0,0,.27-.117A.669.669,0,0,0,22.3-2.3l-.018-5.778q0-.27-.486-.4l-.486-.072.36-.18A7.615,7.615,0,0,0,23-9.63a8.45,8.45,0,0,0,.918-1.116l.432-.666v2.34Zm3.888-2.322-.36.306-.774.72a2.218,2.218,0,0,0-.414.864l-.18.558V-9.27a.5.5,0,0,0-.162-.36l-.216-.342a1.133,1.133,0,0,1-.108-.432.581.581,0,0,1,.063-.279,1.148,1.148,0,0,1,.243-.279,2.46,2.46,0,0,1,1.17-.378ZM28.98-1.3l-.18.18-.288.36-.594.738-.18-.234L27.27-.774q-.144-.144-.252-.234a2.28,2.28,0,0,0-.342-.252l-.342-.18a.372.372,0,0,0,.144-.036.768.768,0,0,0,.324-.558v-4.1L26.73-6.3l-.18-.27-.306-.2-.18-.108.216-.162.4-.4.594-.828.252.216.54.414.558.378.27.162-.414.468V-1.8a.535.535,0,0,0,.252.4ZM35.5-1.6l-.234.234-.378.432-.324.594-.2.36L33.8-.612l-.36-.36-.252-.2v-4.7a.742.742,0,0,0-.108-.468.483.483,0,0,0-.468-.234.674.674,0,0,0-.684.45,2.231,2.231,0,0,0-.054.558V-2.3a.93.93,0,0,0,.324.756,1.052,1.052,0,0,0,.324.144l-.216.18L31.9-.846a1.3,1.3,0,0,0-.162.252q-.108.2-.18.36l-.09.216-.2-.324q-.072-.126-.207-.315a2.6,2.6,0,0,0-.171-.225,3.772,3.772,0,0,0-.612-.414l-.432-.216.054-.216.126-.252.144-.234.09-.09V-6.246a.628.628,0,0,0-.306-.558l-.288-.144.18-.144.414-.4.594-.828.216.108a1.586,1.586,0,0,1,.441.432,2.3,2.3,0,0,1,.3.594l.09.306a1.227,1.227,0,0,0,.72-.18l.36-.45a2.944,2.944,0,0,0,.4-.666l.072-.2.324.108a1.672,1.672,0,0,1,.54.342,1.487,1.487,0,0,1,.4.72l.126.486V-1.98q0,.27.324.36Zm7.2.072-.756.594a1.579,1.579,0,0,0-.486.9l-.2.018a.963.963,0,0,1-.468-.108,1.681,1.681,0,0,1-.414-.342,3.551,3.551,0,0,1-.594-.9l-.738.54A1.463,1.463,0,0,0,38.556,0l-.2.018A1.247,1.247,0,0,1,38-.036a1.674,1.674,0,0,1-.522-.36q-.09-.108-.225-.288a3.116,3.116,0,0,1-.243-.378,1.3,1.3,0,0,1-.2-.648V-6.282a.552.552,0,0,0-.306-.45l-.324-.126.27-.234.468-.45a2.173,2.173,0,0,0,.36-.522l.09-.18.216.108a1.5,1.5,0,0,1,.441.378,2.2,2.2,0,0,1,.351.648l.09.36v3.96a2.03,2.03,0,0,0,.036.45l.162.4a.886.886,0,0,0,.378.342,1.533,1.533,0,0,0,.522.126l.18-.054-.036-.216v-4.59a.551.551,0,0,0-.324-.45l-.324-.108.27-.234L39.8-7.56q.18-.216.207-.252t.117-.2l.144-.27.342.18a1.3,1.3,0,0,1,.315.306,2.166,2.166,0,0,1,.333.648l.09.342v3.978l.054.432a1.149,1.149,0,0,0,.153.405.857.857,0,0,0,.423.369,1.58,1.58,0,0,0,.27.108,1.05,1.05,0,0,0,.288.036A.22.22,0,0,0,42.7-1.53Zm9.324,0-.234.234-.378.432-.324.54-.2.324-.558-.54L49.95-.882l-.234-.2V-5.8a.745.745,0,0,0-.162-.54A.561.561,0,0,0,49.14-6.5a.645.645,0,0,0-.5.18.921.921,0,0,0-.216.432v3.942a.367.367,0,0,0,.342.378l.324.036-.144.126-.468.522L47.952,0l-.558-.576-.36-.342-.252-.2v-4.7a.739.739,0,0,0-.153-.531.572.572,0,0,0-.423-.153.682.682,0,0,0-.666.432,2.138,2.138,0,0,0-.054.54v3.258a.914.914,0,0,0,.306.774l.342.144-.144.09-.468.432a2.06,2.06,0,0,0-.144.207q-.072.117-.162.3L45.072,0l-.2-.324-.4-.522a1.69,1.69,0,0,0-.234-.171q-.18-.117-.36-.243l-.414-.2.054-.216.108-.27a.633.633,0,0,1,.144-.216l.072-.09V-6.174a.716.716,0,0,0-.288-.576l-.306-.126.18-.144a1.7,1.7,0,0,0,.414-.414l.63-.828.2.126a1.668,1.668,0,0,1,.423.378,2.166,2.166,0,0,1,.333.648L45.5-6.8a1.022,1.022,0,0,0,.7-.2l.4-.45.324-.54a1.225,1.225,0,0,1,.144-.324l.162.054a2.333,2.333,0,0,1,.684.4,1.346,1.346,0,0,1,.36.684l.126.4a1.242,1.242,0,0,0,.72-.2l.378-.432a2.65,2.65,0,0,0,.225-.306,3.629,3.629,0,0,0,.171-.36l.072-.18.306.09a1.713,1.713,0,0,1,.558.306,1.966,1.966,0,0,1,.4.738l.126.5v4.7q0,.27.324.378Z" transform="translate(586 271)" fill="#fff"/>
      <g id="다각형_5" data-name="다각형 5" transform="translate(662 131) rotate(90)" fill="none">
        <path d="M90,0l30,50L90,100H30L0,50,30,0Z" stroke="none"/>
        <path d="M 32.83095550537109 5 L 5.830955505371094 50 L 32.83095550537109 95 L 87.16905212402344 95 L 114.1690521240234 50 L 87.16905212402344 5 L 32.83095550537109 5 M 30.00000762939453 0 L 90 0 L 120 50 L 90 100 L 30.00000762939453 100 L 7.62939453125e-06 50 L 30.00000762939453 0 Z" stroke="none" fill="#fff"/>
      </g>
      <g id="layer1" transform="translate(571.875 169.864)">
        <path id="path847" d="M79.7.136s4.76,8.07-17.653,13a1.3,1.3,0,0,0,.187,2.087s13.115-4.743,14.69-6.186c0,0-1.576,9.433-14.538,11.083,0,0-.915,1.34,0,2.01,0,0,8.743-2.835,10.218-4.433,0,0-.509,6.5-10.777,9.64,0,0-11.943,2.171-13.654,9.981A51.412,51.412,0,0,1,44.306,45.2s-1.365,4.937-3.9,4.937h-.564c-2.535,0-3.9-4.937-3.9-4.937a51.415,51.415,0,0,1-3.868-7.886c-1.711-7.81-13.654-9.981-13.654-9.981-10.268-3.145-10.776-9.64-10.776-9.64,1.474,1.6,10.217,4.433,10.217,4.433.915-.67,0-2.01,0-2.01C4.9,18.465,3.323,9.032,3.323,9.032c1.576,1.443,14.689,6.186,14.689,6.186a1.3,1.3,0,0,0,.187-2.087C-4.213,8.206.548.136.548.136a69.008,69.008,0,0,1,21.53,7.322c8.767,3.4,13.257,25.32,13.257,25.32,1,5.986,4.789,6.663,4.789,6.663s3.787-.677,4.789-6.663c0,0,4.489-21.921,13.257-25.32A69.018,69.018,0,0,1,79.7.136Z" transform="translate(0 0)" fill="#fff"/>
      </g>
    </g>
    <rect id="사각형_15" data-name="사각형 15" width="150" height="150" transform="translate(227 636)" fill="none"/>
  </g>
</svg>
