<svg xmlns="http://www.w3.org/2000/svg" width="100" height="100" viewBox="0 0 100 100">
  <g id="scoredouble" transform="translate(-704 -288)">
    <circle id="타원_2" data-name="타원 2" cx="50" cy="50" r="50" transform="translate(704 288)" fill="#219f2f"/>
    <path id="패스_18" data-name="패스 18" d="M-.12-19.8v1.2l2.37-.57V-.57L-.12,0V1.2l9.9-2.34a9.286,9.286,0,0,1,1.35-.87c.93-.51,1.26-.45,1.26-.54V-20.79a10.437,10.437,0,0,1-1.26-.51c-.84-.45-1.26-.87-1.35-.87ZM9.75-2.37,4.92-1.2V-19.8l4.83-1.17ZM23.64-21.39c-.81-.42-1.23-.84-1.32-.84l-4.89,1.14c-.18.06-.48.39-1.35.87a11.594,11.594,0,0,1-1.29.51V-1.44a11.594,11.594,0,0,1,1.29.51c.84.45,1.26.87,1.35.87,0,0,4.86-1.14,4.89-1.17.09,0,.51-.42,1.32-.84.96-.51,1.29-.45,1.29-.54V-20.85C24.93-20.94,24.6-20.88,23.64-21.39ZM22.29-2.43,17.43-1.26v-18.6l4.86-1.17Zm12.54.06L30-1.2V-21c0-.15-.42.33-1.38.84a9.2,9.2,0,0,1-1.29.51V-1.38a9.2,9.2,0,0,1,1.29.51c.84.45,1.26.87,1.35.87.06,0,4.89-1.08,4.89-1.17.12-.03.54-.42,1.35-.84.96-.51,1.29-.45,1.29-.54V-20.97c0-.15-.42.33-1.38.84s-1.29.45-1.29.54ZM39.3-19.83v1.23l2.4-.6V-.6L39.3,0V1.2l9.93-2.4a11.637,11.637,0,0,1,1.32-.87,11.594,11.594,0,0,1,1.29-.51v-8.7a11.594,11.594,0,0,1-1.29-.51c-.84-.45-1.26-.87-1.35-.87l-.21.03a10.421,10.421,0,0,1,1.11-.72,11.6,11.6,0,0,1,1.29-.51V-20.7c0-.09-.33-.03-1.29-.54-.84-.45-1.23-.84-1.35-.84Zm9.45,7.26-4.41,1.05v-8.31l4.41-1.05ZM49.2-2.4,44.34-1.23v-9.06l4.86-1.17Zm12.21.03L56.58-1.2V-21c0-.15-.42.33-1.38.84a10.438,10.438,0,0,1-1.26.51V-1.38a10.438,10.438,0,0,1,1.26.51c.84.45,1.26.87,1.35.87l4.86-1.17c.15-.03.51-.39,1.35-.84.96-.51,1.29-.45,1.29-.54V-6.54c0-.15-.42.33-1.38.84a10.438,10.438,0,0,1-1.26.51ZM74.07-22.14l-4.89,1.17c-.18.06-.48.39-1.35.84-.96.51-1.29.45-1.29.54v8.4l-1.89.42v1.23l1.89-.45v8.64c0,.09.33.03,1.29.54.84.45,1.26.84,1.35.84l4.86-1.14c.24-.06.51-.42,1.35-.87a11.6,11.6,0,0,1,1.29-.51V-8.34c0-.15-.42.3-1.38.81-.93.51-1.29.45-1.29.54v4.68l-4.8,1.14v-9.48l4.8-1.05v-1.23l-4.8,1.08v-7.92l4.8-1.14v5.31c0,.15.42-.33,1.38-.84a11.6,11.6,0,0,1,1.29-.51v-3.81a11.6,11.6,0,0,1-1.29-.51A15.454,15.454,0,0,1,74.07-22.14Z" transform="translate(715 349)" fill="#fff"/>
  </g>
</svg>
