<svg xmlns="http://www.w3.org/2000/svg" width="100" height="100" viewBox="0 0 100 100">
  <g id="seehap" transform="translate(-704 -288)">
    <circle id="타원_2" data-name="타원 2" cx="50" cy="50" r="50" transform="translate(704 288)" fill="#219f2f"/>
    <path id="패스_19" data-name="패스 19" d="M44.784-22.464a.569.569,0,0,1-.216.432.735.735,0,0,1-.5.192h-6.48v9.5a.679.679,0,0,1-.192.456.569.569,0,0,1-.432.216H32.688a.569.569,0,0,1-.432-.216.735.735,0,0,1-.192-.5v-24.96a.552.552,0,0,1,.624-.624H36.96a.552.552,0,0,1,.624.624V-26.4h6.48a.8.8,0,0,1,.5.168.5.5,0,0,1,.216.408ZM32.064-.72H14.832v2.5q0,.816.912.816H31.152q.912,0,.912-.816Zm5.52,4.368a3.3,3.3,0,0,1-.792,2.424,4.011,4.011,0,0,1-2.856.792H13.008a4.377,4.377,0,0,1-2.928-.72A3.563,3.563,0,0,1,9.312,3.5V-8.64A.523.523,0,0,1,9.5-9.048a.639.639,0,0,1,.432-.168H14.16a.731.731,0,0,1,.456.168.5.5,0,0,1,.216.408v3.648H32.064v-3.84a.679.679,0,0,1,.192-.456.569.569,0,0,1,.432-.216H36.96a.569.569,0,0,1,.432.216.679.679,0,0,1,.192.456Zm-21.7-26.16a6.533,6.533,0,0,0-3.72.984A2.9,2.9,0,0,0,10.7-19.056a3.019,3.019,0,0,0,1.464,2.52,6.305,6.305,0,0,0,3.72,1.032,6.281,6.281,0,0,0,3.744-1.032,3.03,3.03,0,0,0,1.44-2.52,2.913,2.913,0,0,0-1.44-2.472A6.509,6.509,0,0,0,15.888-22.512Zm0-4.032a15.061,15.061,0,0,1,4.056.528A10.856,10.856,0,0,1,23.256-24.5a7.336,7.336,0,0,1,2.208,2.352,6.065,6.065,0,0,1,.792,3.1,5.963,5.963,0,0,1-.816,3.072,7.859,7.859,0,0,1-2.208,2.4,10.61,10.61,0,0,1-3.288,1.56,14.627,14.627,0,0,1-4.1.552,14.2,14.2,0,0,1-4.032-.552,10.648,10.648,0,0,1-3.264-1.56,7.583,7.583,0,0,1-2.184-2.4,6.1,6.1,0,0,1-.792-3.072,6.065,6.065,0,0,1,.792-3.1A7.336,7.336,0,0,1,8.568-24.5a10.893,10.893,0,0,1,3.288-1.512A14.8,14.8,0,0,1,15.888-26.544Zm12.96-2.16a.691.691,0,0,1-.216.5.691.691,0,0,1-.5.216H2.832a.734.734,0,0,1-.528-.24.734.734,0,0,1-.24-.528v-2.5a.706.706,0,0,1,.264-.528.815.815,0,0,1,.552-.24H28.128a.691.691,0,0,1,.5.216.748.748,0,0,1,.216.552Zm-6.192-5.808a.861.861,0,0,1-.216.552.732.732,0,0,1-.6.264H9.408a.777.777,0,0,1-.456-.216.682.682,0,0,1-.264-.552v-2.544a.617.617,0,0,1,.264-.528.824.824,0,0,1,.456-.192H21.84a.786.786,0,0,1,.576.24.734.734,0,0,1,.24.528ZM57.888-6.96a.368.368,0,0,0-.048.144.138.138,0,0,1-.048.1,1.428,1.428,0,0,1-.72.1H53.52q-.192,0-.192-.1a1.373,1.373,0,0,1-.144-.816L52.512-32.88a2.555,2.555,0,0,1,.1-1.2q.144-.192.816-.192H57.7q.672,0,.792.192a3,3,0,0,1,.072,1.2L57.888-7.536ZM55.536,3.024a3.215,3.215,0,0,1-2.4-.984,3.279,3.279,0,0,1-.96-2.376,3.36,3.36,0,0,1,.96-2.4,3.177,3.177,0,0,1,2.4-1.008A3.254,3.254,0,0,1,57.96-2.736a3.317,3.317,0,0,1,.984,2.4A3.237,3.237,0,0,1,57.96,2.04,3.294,3.294,0,0,1,55.536,3.024Z" transform="translate(722 355)" fill="#fff"/>
  </g>
</svg>
