<svg xmlns="http://www.w3.org/2000/svg" width="150" height="150" viewBox="0 0 150 150">
  <g id="srank" transform="translate(-615 -493)">
    <g id="SilverRanK" transform="translate(314 361)">
      <path id="패스_14" data-name="패스 14" d="M15.936-7.176a4.584,4.584,0,0,1-.864,2.16L13.7-3.432l-1.32,1.68a4.251,4.251,0,0,0-.768,1.44L11.28.888l-.192.576-.72-.336L8.832.552,7.632.144,7.44.1,7.08.528A10.813,10.813,0,0,1,5.256,2.064a1.266,1.266,0,0,1-.36.18Q4.7,2.3,4.272,2.4q-.624.1-.876.108T3,2.52a3.254,3.254,0,0,1-1.7-.312A3.755,3.755,0,0,1,.336,1.3,2.4,2.4,0,0,1,0,.024a3.867,3.867,0,0,1,.168-1.08,2.916,2.916,0,0,1,1.1-1.584,5.713,5.713,0,0,1,1.392-.648,5.421,5.421,0,0,1,.564-.132q.324-.06.564-.084L5.28-3.552h.708A3.6,3.6,0,0,1,6.7-3.48l1.464.24.816.144.264-.888-.264-.192a2.683,2.683,0,0,1-.408-.48,1.728,1.728,0,0,1-.288-.6l-.048-.288H6.216L5.5-5.568a2.86,2.86,0,0,1-.624-.048,4.951,4.951,0,0,1-1.92-.7A2.76,2.76,0,0,1,1.608-7.884a6.741,6.741,0,0,1-.264-1.86,6.8,6.8,0,0,1,.228-1.716,7.811,7.811,0,0,1,.66-1.692,6.068,6.068,0,0,1,.888-1.224,13.1,13.1,0,0,1,1.344-1.248,7.981,7.981,0,0,1,3.192-1.608L9.72-17.64a14.543,14.543,0,0,1,2.088-.192,5.59,5.59,0,0,1,1.128.1,1.783,1.783,0,0,1,.348.024q.108.024.66.24l-1.632,5.4a4.108,4.108,0,0,1,.768.048,2.79,2.79,0,0,1,1.392.624,4.974,4.974,0,0,1,1.164,1.572,4.2,4.2,0,0,1,.372,1.74A5.017,5.017,0,0,1,15.936-7.176ZM11.76-12.12l.048-.264a2.12,2.12,0,0,0,.06-.348q.012-.156.036-.324a2.253,2.253,0,0,0-.144-.84,1.471,1.471,0,0,0-.624-.708,5.439,5.439,0,0,0-.852-.384q-.444-.156-.924-.3a8.5,8.5,0,0,0-1.752-.192l-.888.048L6-15.288a6.026,6.026,0,0,0-1.9,1.056A5.749,5.749,0,0,0,2.4-11.9a3.91,3.91,0,0,0-.12.384,1.679,1.679,0,0,0-.072.408v.216a2.789,2.789,0,0,0,.84,2.028,2.7,2.7,0,0,0,1.992.852l.288.024h.84a3.206,3.206,0,0,0,.372-.024,2.862,2.862,0,0,1,.3-.024q.432,0,.528-.144L7.32-9.12a1.648,1.648,0,0,1-.672.1H6.12q-.264-.072-.36-.1a3.945,3.945,0,0,1-.936-.408,3.8,3.8,0,0,1-.552-.408,2.208,2.208,0,0,1-.432-.552,2.043,2.043,0,0,1-.36-1.128,1.444,1.444,0,0,1,.168-.7,2.735,2.735,0,0,1,.852-.924,1.969,1.969,0,0,1,1.14-.4,1,1,0,0,1,.432.072,2.155,2.155,0,0,1,1.056.96l.264.624.528.072.552.024.6-.024.816-.1h.432a2.911,2.911,0,0,0,.36-.024,2.546,2.546,0,0,1,.288-.024Zm-5.208.072L6.5-12.432a1.718,1.718,0,0,0-.36-.456l-.312-.144L5.5-13.08l-.288.048-.12.024-.024.216a1.132,1.132,0,0,0,.048.372.534.534,0,0,0,.192.24.692.692,0,0,0,.336.132L6.072-12l.336-.024ZM10.92-9.432h-.144l-.336.024-.984-.048-1.344.024q-.216,0-.216.168L7.92-8.232,8.28-8.3l1.176-.12.84.048.312.048ZM14.328-7.68a3.154,3.154,0,0,0-.588-.828,2.4,2.4,0,0,0-.78-.528,4.678,4.678,0,0,0-1.152-.276L11.5-9.336l-.336,1.08.408.144a2.789,2.789,0,0,1,1.344.864,1.871,1.871,0,0,1,.156.336q.036.12.108.456a4.1,4.1,0,0,1,.072.84l-.024.5a.548.548,0,0,1-.12.312l-.648.816a1.73,1.73,0,0,1-.5.36L11.4-3.48l-.624.072a2.072,2.072,0,0,1-.744-.12l-.264-.12-.192.7,1.08.24a3.874,3.874,0,0,0,.888.1,2.128,2.128,0,0,0,1.188-.336,4.38,4.38,0,0,0,1.14-1.32,8.426,8.426,0,0,0,.576-1.188A2.936,2.936,0,0,0,14.664-6.5a1.674,1.674,0,0,0-.1-.576A1.382,1.382,0,0,0,14.328-7.68ZM12.072-4.728a.9.9,0,0,0-.288-.648L11.52-5.52H10.368l-.48,1.44.336.12q.12.024.348.06t.444.06a1.347,1.347,0,0,0,.744-.216.873.873,0,0,0,.216-.276A.828.828,0,0,0,12.072-4.728ZM9.744-5.52H8.736l.048.264.192.312.432.456ZM6.72.048l-.792-.24A7.688,7.688,0,0,0,4.1-.456H3.816L3.5-.408A1.965,1.965,0,0,0,2.088.12a1.537,1.537,0,0,0-.456,1.032.67.67,0,0,0,.168.456.876.876,0,0,0,.384.264,2.409,2.409,0,0,0,.7.072l.576-.024H4.2a2.556,2.556,0,0,0,1.872-.912Zm14.424-15.24-.48.408-1.032.96a2.957,2.957,0,0,0-.552,1.152l-.24.744v-.432a.665.665,0,0,0-.216-.48l-.288-.456a1.511,1.511,0,0,1-.144-.576.774.774,0,0,1,.084-.372,1.531,1.531,0,0,1,.324-.372,3.28,3.28,0,0,1,1.56-.5ZM20.952-1.728l-.24.24-.384.48-.792.984L19.3-.336l-.624-.7q-.192-.192-.336-.312a3.04,3.04,0,0,0-.456-.336l-.456-.24a.5.5,0,0,0,.192-.048,1.024,1.024,0,0,0,.432-.744V-8.184l-.1-.216-.24-.36L17.3-9.024l-.24-.144.288-.216.528-.528.792-1.1.336.288.72.552.744.5.36.216-.552.624V-2.4a.713.713,0,0,0,.336.528Zm5.04-13.512a2.6,2.6,0,0,0-.528.288,1.432,1.432,0,0,0-.528,1.128V-2.448a.783.783,0,0,0,.408.72l.36.12-.312.264-.624.576-.5.7-.12.192-.336-.456-.648-.792a3.226,3.226,0,0,0-.768-.624L21.96-2.04l.24-.072a.588.588,0,0,0,.264-.5V-14.448l.984.816.312-.5a3.825,3.825,0,0,1,.744-.84,1.6,1.6,0,0,1,.5-.216l.624-.072h.24Zm7.872,9.072a4.519,4.519,0,0,1-.408,2.136,5.646,5.646,0,0,1-.7.936,11.919,11.919,0,0,1-1.248,1.152l-.7.576A2.587,2.587,0,0,0,30.144.024h-.288a2.516,2.516,0,0,1-.864-.132,1.7,1.7,0,0,1-.66-.456q-.3-.324-.372-.42a2.1,2.1,0,0,1-.288-.48,1.825,1.825,0,0,1-.24-.84v-6.12A.676.676,0,0,0,27-9.048l-.432-.144.36-.312q.12-.12.264-.24a2.507,2.507,0,0,0,.36-.384l.408-.552.192-.36.288.144a1.969,1.969,0,0,1,.612.5,2.888,2.888,0,0,1,.444.864l.1.456v5.3l.072.576a2.513,2.513,0,0,0,.192.552,1.6,1.6,0,0,0,.528.456,1.87,1.87,0,0,0,.7.144.385.385,0,0,0,.228-.048.333.333,0,0,0,.1-.168q.036-.12.06-.24l.048-1.056V-8.424A.648.648,0,0,0,31.128-9L30.7-9.12l.408-.264.7-.648.6-.792.12-.192.288.168.216.216a2.157,2.157,0,0,1,.372.42,5.3,5.3,0,0,1,.372.828l.1.24ZM40.44-3.192a1.834,1.834,0,0,1-.408,1.008,4,4,0,0,1-.744.816,2.82,2.82,0,0,0-.672.816l-.384.576h-.408a3.694,3.694,0,0,1-.84-.072,1.878,1.878,0,0,1-1-.552,4.956,4.956,0,0,1-.684-.984,2.248,2.248,0,0,1-.312-1.056V-9.024h.264q.216,0,.492-.012a5.414,5.414,0,0,0,.684-.084,1.384,1.384,0,0,0,.744-.408,7.118,7.118,0,0,0,.768-.96l.36-.552a.989.989,0,0,1,.432.144,2.325,2.325,0,0,1,.876.684,3.158,3.158,0,0,1,.636,1.14l.072.216-.072.528a2.614,2.614,0,0,1-.12.48,1.266,1.266,0,0,1-.24.384L38.376-5.808a2.922,2.922,0,0,0-.216.24,4.366,4.366,0,0,0-.408.6l-.264.408v1.44a1.069,1.069,0,0,0,.432.84,2.55,2.55,0,0,0,.444.216,1.321,1.321,0,0,0,.468.1.852.852,0,0,0,.66-.312,1,1,0,0,0,.276-.672.809.809,0,0,0-.1-.36l-.24-.6a.293.293,0,0,1,.168-.264.591.591,0,0,1,.264-.1q.264,0,.42.336A1.745,1.745,0,0,1,40.44-3.192ZM38.664-7.3a1.932,1.932,0,0,0-.4-.936q-.4-.6-.78-.6v3.216l.84-.864A1.286,1.286,0,0,0,38.664-7.3Zm9.672-3.48-.432.288q-.192.168-.4.372t-.444.492q-.1.12-.312.444t-.36.588l-.216.5a2.277,2.277,0,0,0-.36-.648.778.778,0,0,0-.576-.288.82.82,0,0,0-.624.288.993.993,0,0,0-.264.7v4.224a2.912,2.912,0,0,0,.1.864q.192.864.792.864a.654.654,0,0,0,.468-.132.99.99,0,0,0,.132-.636l-.12-.288a1.45,1.45,0,0,1-.312-.672.482.482,0,0,1,.156-.348.482.482,0,0,1,.348-.156.466.466,0,0,1,.36.216.873.873,0,0,1,.168.552,2.375,2.375,0,0,1-.168.912,2.45,2.45,0,0,1-.96,1.08,7.711,7.711,0,0,0-.936.96l-.408.576-.312-.36a13.089,13.089,0,0,0-.936-.984l-.744-.672-.24-.216a.342.342,0,0,0,.288-.2,1.115,1.115,0,0,0,.12-.564V-8.472a.647.647,0,0,0-.432-.624L41.28-9.24l.36-.312.672-.624.384-.552.216-.36.312.192a1.308,1.308,0,0,1,.552.456l.408.624.192.36.192-.12a3.135,3.135,0,0,0,.624-.5l.36-.528.168-.312.168.072a2.925,2.925,0,0,0,.816.144l1.152-.024Z" transform="translate(351 273)" fill="#cccaca"/>
      <g id="그룹_2" data-name="그룹 2" transform="translate(-129 -18)">
        <g id="layer1" transform="translate(464.875 179.864)" opacity="0.75">
          <path id="path847" d="M79.7.136s4.76,8.07-17.653,13a1.3,1.3,0,0,0,.187,2.087s13.115-4.743,14.69-6.186c0,0-1.576,9.433-14.538,11.083,0,0-.915,1.34,0,2.01,0,0,8.743-2.835,10.218-4.433,0,0-.509,6.5-10.777,9.64,0,0-11.943,2.171-13.654,9.981A51.412,51.412,0,0,1,44.306,45.2s-1.365,4.937-3.9,4.937h-.564c-2.535,0-3.9-4.937-3.9-4.937a51.415,51.415,0,0,1-3.868-7.886c-1.711-7.81-13.654-9.981-13.654-9.981-10.268-3.145-10.776-9.64-10.776-9.64,1.474,1.6,10.217,4.433,10.217,4.433.915-.67,0-2.01,0-2.01C4.9,18.465,3.323,9.032,3.323,9.032c1.576,1.443,14.689,6.186,14.689,6.186a1.3,1.3,0,0,0,.187-2.087C-4.213,8.206.548.136.548.136a69.008,69.008,0,0,1,21.53,7.322c8.767,3.4,13.257,25.32,13.257,25.32,1,5.986,4.789,6.663,4.789,6.663s3.787-.677,4.789-6.663c0,0,4.489-21.921,13.257-25.32A69.018,69.018,0,0,1,79.7.136Z" transform="translate(0 0)" fill="#bebaba" stroke="#bebaba" stroke-width="0.249"/>
        </g>
        <g id="타원_1" data-name="타원 1" transform="translate(455 153)" fill="none" stroke="#bebaba" stroke-width="3" opacity="0.252">
          <circle cx="50" cy="50" r="50" stroke="none"/>
          <circle cx="50" cy="50" r="48.5" fill="none"/>
        </g>
      </g>
    </g>
    <rect id="사각형_13" data-name="사각형 13" width="150" height="150" transform="translate(615 493)" fill="none"/>
  </g>
</svg>
