<svg xmlns="http://www.w3.org/2000/svg" width="100" height="100" viewBox="0 0 100 100">
  <g id="tilecheck" transform="translate(-721 -184)">
    <circle id="타원_2" data-name="타원 2" cx="50" cy="50" r="50" transform="translate(721 184)" fill="#e05656"/>
    <rect id="사각형_16" data-name="사각형 16" width="30" height="50" transform="translate(741 209)"/>
    <path id="패스_25" data-name="패스 25" d="M6.552-25.248A11.069,11.069,0,0,1,4.68-20.832a9.029,9.029,0,0,0-1.344,5.184l.1,2.832,1.1,1.344-.72.336L2.184-10.128q-.336.24-.624.456a7.191,7.191,0,0,0-.72.648L.264-8.4-.12-9.6a10.881,10.881,0,0,0-.816-1.824L-2.76-13.68l.48-.288.768-.576a3.343,3.343,0,0,0,.576-.72l.144-.432v-3.312a6.717,6.717,0,0,1,1.152-3.6L1.512-24.24a12.475,12.475,0,0,0,1.392-2.3,4.274,4.274,0,0,0,.384-1.632,3.3,3.3,0,0,0-.432-1.536l-.528-1.2A10.8,10.8,0,0,0,.84-33.36a1.962,1.962,0,0,0-1.488-.672,1.234,1.234,0,0,0-1.128.576,5.2,5.2,0,0,0-.36,2.4,4.872,4.872,0,0,1-.72,2.928,2.873,2.873,0,0,1-2.112.864,2.734,2.734,0,0,1-2.112-.96,3.7,3.7,0,0,1-.768-2.3,4.666,4.666,0,0,1,1.416-3.7A5.714,5.714,0,0,1-2.52-35.472q4.656,0,6.96,2.112a7.668,7.668,0,0,1,2.3,5.952v.912Q6.6-25.68,6.552-25.248ZM3.1-4.944l-.24.768-.144.768A3.023,3.023,0,0,0,3-2.256a1.13,1.13,0,0,1-.24.816.755.755,0,0,1-.72.144l-.912-.192-.72-.1L-.6-1.44l-.96.144q-.72-.144-.72-1.056l.048-.768.1-.48a.9.9,0,0,0,.1-.48V-5.136q.288-.768.864-.768a1.842,1.842,0,0,1,.72.24l.48.048.624-.048.912-.192a1.609,1.609,0,0,1,.912-.1l.48.336A1.031,1.031,0,0,1,3.1-4.944Z" transform="translate(756 252)" fill="#fff"/>
    <rect id="사각형_17" data-name="사각형 17" width="30" height="50" transform="translate(771 209)" fill="#fff"/>
    <path id="패스_24" data-name="패스 24" d="M6.552-25.248A11.069,11.069,0,0,1,4.68-20.832a9.029,9.029,0,0,0-1.344,5.184l.1,2.832,1.1,1.344-.72.336L2.184-10.128q-.336.24-.624.456a7.191,7.191,0,0,0-.72.648L.264-8.4-.12-9.6a10.881,10.881,0,0,0-.816-1.824L-2.76-13.68l.48-.288.768-.576a3.343,3.343,0,0,0,.576-.72l.144-.432v-3.312a6.717,6.717,0,0,1,1.152-3.6L1.512-24.24a12.475,12.475,0,0,0,1.392-2.3,4.274,4.274,0,0,0,.384-1.632,3.3,3.3,0,0,0-.432-1.536l-.528-1.2A10.8,10.8,0,0,0,.84-33.36a1.962,1.962,0,0,0-1.488-.672,1.234,1.234,0,0,0-1.128.576,5.2,5.2,0,0,0-.36,2.4,4.872,4.872,0,0,1-.72,2.928,2.873,2.873,0,0,1-2.112.864,2.734,2.734,0,0,1-2.112-.96,3.7,3.7,0,0,1-.768-2.3,4.666,4.666,0,0,1,1.416-3.7A5.714,5.714,0,0,1-2.52-35.472q4.656,0,6.96,2.112a7.668,7.668,0,0,1,2.3,5.952v.912Q6.6-25.68,6.552-25.248ZM3.1-4.944l-.24.768-.144.768A3.023,3.023,0,0,0,3-2.256a1.13,1.13,0,0,1-.24.816.755.755,0,0,1-.72.144l-.912-.192-.72-.1L-.6-1.44l-.96.144q-.72-.144-.72-1.056l.048-.768.1-.48a.9.9,0,0,0,.1-.48V-5.136q.288-.768.864-.768a1.842,1.842,0,0,1,.72.24l.48.048.624-.048.912-.192a1.609,1.609,0,0,1,.912-.1l.48.336A1.031,1.031,0,0,1,3.1-4.944Z" transform="translate(786 252)"/>
  </g>
</svg>
