<svg xmlns="http://www.w3.org/2000/svg" width="50" height="80" viewBox="0 0 50 80">
  <defs>
    <style>
      .cls-1 {
        fill: #fff;
      }
    </style>
  </defs>
  <g id="wother" transform="translate(79 178)">
    <rect id="사각형_9" data-name="사각형 9" class="cls-1" width="50" height="80" transform="translate(-79 -178)"/>
    <path id="패스_10" data-name="패스 10" d="M22.5-38.924a17.065,17.065,0,0,1-2.886,6.808,13.92,13.92,0,0,0-2.072,7.992l.148,4.366,1.7,2.072-1.11.518-2.516,1.554q-.518.37-.962.7a11.085,11.085,0,0,0-1.11,1l-.888.962L12.21-14.8a16.775,16.775,0,0,0-1.258-2.812L8.14-21.09l.74-.444,1.184-.888a5.154,5.154,0,0,0,.888-1.11l.222-.666V-29.3a10.355,10.355,0,0,1,1.776-5.55l1.776-2.516a19.233,19.233,0,0,0,2.146-3.552,6.59,6.59,0,0,0,.592-2.516,5.088,5.088,0,0,0-.666-2.368l-.814-1.85A16.653,16.653,0,0,0,13.69-51.43,3.025,3.025,0,0,0,11.4-52.466a1.9,1.9,0,0,0-1.739.888,8.01,8.01,0,0,0-.555,3.7,7.511,7.511,0,0,1-1.11,4.514,4.429,4.429,0,0,1-3.256,1.332,4.215,4.215,0,0,1-3.256-1.48A5.7,5.7,0,0,1,.3-47.064a7.194,7.194,0,0,1,2.183-5.7A8.809,8.809,0,0,1,8.51-54.686q7.178,0,10.73,3.256t3.552,9.176v1.406Q22.57-39.59,22.5-38.924Zm-5.328,31.3L16.8-6.438l-.222,1.184a4.66,4.66,0,0,0,.444,1.776,1.743,1.743,0,0,1-.37,1.258A1.163,1.163,0,0,1,15.54-2l-1.406-.3-1.11-.148L11.47-2.22,9.99-2Q8.88-2.22,8.88-3.626L8.954-4.81,9.1-5.55a1.386,1.386,0,0,0,.148-.74V-7.918Q9.694-9.1,10.582-9.1a2.84,2.84,0,0,1,1.11.37l.74.074.962-.074,1.406-.3a2.48,2.48,0,0,1,1.406-.148l.74.518A1.59,1.59,0,0,1,17.168-7.622Z" transform="translate(-66 -111)"/>
  </g>
</svg>
