<svg xmlns="http://www.w3.org/2000/svg" width="150" height="150" viewBox="0 0 150 150">
  <g id="wrank" transform="translate(-260 -550)">
    <g id="WhiteRank" transform="translate(87 412)">
      <path id="백" d="M-3900,1393l0,0-40-50-40,50V1273h80v120Z" transform="translate(4186 -1134)" fill="#fff"/>
      <path id="패스_13" data-name="패스 13" d="M20.88-1.848l-.408.12q-.36.168-.48.228a1.944,1.944,0,0,0-.36.276,2.491,2.491,0,0,1-.288.24,3.066,3.066,0,0,0-.456.552L18.624,0l-.432-.312a3.553,3.553,0,0,1-.768-.972,2.049,2.049,0,0,1-.288-.924l-.024-.576-.5.384-.48.312-.96.384a2.5,2.5,0,0,0-.984.528,3.835,3.835,0,0,0-.816.912L13.224,0,12.96-.168A4.533,4.533,0,0,1,12.072-1.2l-.24-.624a2.215,2.215,0,0,1-.1-.7l-.7.432-.5.408A2.572,2.572,0,0,0,9.7-.6L9.5-.024H9.216q-.384,0-.768-.024a4.9,4.9,0,0,1-.72-.1A5.445,5.445,0,0,1,5.736-.96a8.629,8.629,0,0,1-1.992-1.8A5.409,5.409,0,0,1,2.664-6.1v-.432l.048-.288A6.144,6.144,0,0,1,3.1-8.976,7.731,7.731,0,0,1,4.1-10.848,6.918,6.918,0,0,1,6.192-12.84a4.883,4.883,0,0,1,1.1-.528,7.381,7.381,0,0,0-1.56,2.4,5.068,5.068,0,0,0-.312,1.152,9.383,9.383,0,0,0-.1,1.416,7.346,7.346,0,0,0,.324,2.472A5.19,5.19,0,0,0,7.08-4.056a6.78,6.78,0,0,0,1.2.792,6.114,6.114,0,0,0,1.272.384V-15.408l-.264.24a3.647,3.647,0,0,1-2.256.528H5.976q-.528-.072-.792-.1a7.939,7.939,0,0,0-3.036.432,1.5,1.5,0,0,0-.972,1.464,1.57,1.57,0,0,0,.5,1.3,1.378,1.378,0,0,0,.408.192,1.924,1.924,0,0,0,.552.072,1.879,1.879,0,0,0,.792-.24,1.2,1.2,0,0,0,.432-.24,2.368,2.368,0,0,1-.336.408,1.4,1.4,0,0,1-.936.408,2.6,2.6,0,0,1-1.56-.624A2.666,2.666,0,0,1,0-13.776l.024-.408a3.515,3.515,0,0,1,1.392-2.592,3.988,3.988,0,0,1,2.424-.816,5.324,5.324,0,0,1,3,.888,4.767,4.767,0,0,0,1.752.888q.912,0,.912-1.032A1.05,1.05,0,0,1,9.7-17.52a.533.533,0,0,1,.528-.192q.192.072.192.48a.594.594,0,0,1-.156.456,1.447,1.447,0,0,0-.3.456l-.216.5v1.3a2.678,2.678,0,0,0,.888-.264,5.163,5.163,0,0,0,1.32-.744,4.878,4.878,0,0,0,.96-.936l.24-.408.264.408a4,4,0,0,0,.288.384q.144.168.36.384l.6.576.288.36-.024,2.832L14.9-8.808,14.88-6.72v2.184l.048,1.584q.072.264.48.264a1.7,1.7,0,0,0,.84-.264,4.071,4.071,0,0,0,.48-.276,2.754,2.754,0,0,0,.384-.324l.048-2.592.024-2.184-.048-2.424q0-.864-.024-1.476t-.048-1.188l-.048-1.032a.956.956,0,0,0-.132-.288.568.568,0,0,0-.264-.192.67.67,0,0,1-.3-.24,1.447,1.447,0,0,0,.648-.168l.672-.408a1.692,1.692,0,0,0,.6-.648l.288-.48.264.408.624.72a3.117,3.117,0,0,0,.288.264,4.877,4.877,0,0,1,.48.5l.168.216L20.3-11.544,20.28-8.808l-.024,2.3-.024,2.64a8.157,8.157,0,0,0,.072,1.5.77.77,0,0,0,.312.4ZM11.808-9v-2.3L11.76-12.96l-.072-.7a.548.548,0,0,0-.12-.312.836.836,0,0,0-.312-.264l-.408-.072-.576.024a1.164,1.164,0,0,0-.528.12V-9Zm0,.24H9.744v1.248H11.76l.048-.816ZM11.76-7.32H9.744v4.44a3.517,3.517,0,0,0,1.008-.108,1.23,1.23,0,0,0,.576-.4q.072-.1.24-.36.1-.168.168-.288ZM29.112-1.632l-.528.624-.432.768-.264.5L27.168-.6l-.5-.48-.336-.288V-7.7a1.39,1.39,0,0,0-.156-.672.632.632,0,0,0-.612-.288.915.915,0,0,0-.48.168,1.551,1.551,0,0,0-.312.384V-2.4a.772.772,0,0,0,.384.7l.384.144-.312.24-.576.576L24.12-.1,24,.1l-.288-.432-.648-.792q-.264-.264-.348-.336a3.95,3.95,0,0,0-.4-.264l-.432-.288.24-.072a.57.57,0,0,0,.24-.5l.024-11.952.936.792.312-.5a2.893,2.893,0,0,1,.7-.792,1.588,1.588,0,0,1,.528-.216l.6-.072h.24l-.408.288a1.537,1.537,0,0,0-.5,1.1v4.872a1.058,1.058,0,0,0,.744-.264l.528-.6.432-.72a1.634,1.634,0,0,1,.192-.432l.408.12a2.141,2.141,0,0,1,.756.444,2.848,2.848,0,0,1,.516,1.02l.168.672v6.36a.485.485,0,0,0,.216.432,2.6,2.6,0,0,0,.5.12H29.4Zm5.352-13.56-.48.408-1.032.96a2.957,2.957,0,0,0-.552,1.152l-.24.744v-.432a.665.665,0,0,0-.216-.48l-.288-.456a1.511,1.511,0,0,1-.144-.576.774.774,0,0,1,.084-.372,1.531,1.531,0,0,1,.324-.372,3.28,3.28,0,0,1,1.56-.5ZM34.272-1.728l-.24.24-.384.48-.792.984-.24-.312-.624-.7q-.192-.192-.336-.312A3.04,3.04,0,0,0,31.2-1.68l-.456-.24a.5.5,0,0,0,.192-.048,1.024,1.024,0,0,0,.432-.744V-8.184l-.1-.216-.24-.36-.408-.264-.24-.144.288-.216.528-.528.792-1.1.336.288.72.552.744.5.36.216-.552.624V-2.4a.713.713,0,0,0,.336.528ZM40.1-12.1l-1.176.984v8.328a.771.771,0,0,0,.408.744l.432.12-.336.288L38.76-.96q-.192.24-.288.348a2.729,2.729,0,0,0-.264.4l-.144.192-.384-.5-.744-.888a4.927,4.927,0,0,0-.816-.72l-.48-.312A.753.753,0,0,0,36-2.6a.891.891,0,0,0,.192-.468l-.024-7.7q0-.36-.648-.528l-.648-.1.48-.24a10.153,10.153,0,0,0,1.776-1.2,11.266,11.266,0,0,0,1.224-1.488l.576-.888v3.12Zm6.648,8.9a1.834,1.834,0,0,1-.408,1.008,4,4,0,0,1-.744.816,2.82,2.82,0,0,0-.672.816l-.384.576h-.408a3.694,3.694,0,0,1-.84-.072,1.878,1.878,0,0,1-1-.552,4.956,4.956,0,0,1-.684-.984A2.248,2.248,0,0,1,41.3-2.64V-9.024h.264q.216,0,.492-.012a5.414,5.414,0,0,0,.684-.084,1.384,1.384,0,0,0,.744-.408,7.118,7.118,0,0,0,.768-.96l.36-.552a.989.989,0,0,1,.432.144,2.325,2.325,0,0,1,.876.684,3.158,3.158,0,0,1,.636,1.14l.072.216-.072.528a2.614,2.614,0,0,1-.12.48,1.266,1.266,0,0,1-.24.384L44.688-5.808a2.922,2.922,0,0,0-.216.24,4.366,4.366,0,0,0-.408.6L43.8-4.56v1.44a1.069,1.069,0,0,0,.432.84,2.55,2.55,0,0,0,.444.216,1.321,1.321,0,0,0,.468.1.852.852,0,0,0,.66-.312,1,1,0,0,0,.276-.672.809.809,0,0,0-.1-.36l-.24-.6a.293.293,0,0,1,.168-.264.591.591,0,0,1,.264-.1q.264,0,.42.336A1.745,1.745,0,0,1,46.752-3.192ZM44.976-7.3a1.932,1.932,0,0,0-.4-.936q-.4-.6-.78-.6v3.216l.84-.864A1.286,1.286,0,0,0,44.976-7.3Z" transform="translate(222 278)" fill="#fff"/>
    </g>
    <rect id="사각형_12" data-name="사각형 12" width="150" height="150" transform="translate(260 550)" fill="none"/>
  </g>
</svg>
